<?xml version="1.0" standalone="no"?>
<!DOCTYPE svg PUBLIC "-//W3C//DTD SVG 1.1//EN" "http://www.w3.org/Graphics/SVG/1.1/DTD/svg11.dtd" >
<svg xmlns="http://www.w3.org/2000/svg" xmlns:xlink="http://www.w3.org/1999/xlink" version="1.1">
<metadata></metadata>
<defs>
<font id="pf_agora_slab_prolight" horiz-adv-x="1105" >
<font-face units-per-em="2048" ascent="1536" descent="-512" />
<missing-glyph horiz-adv-x="532" />
<glyph horiz-adv-x="0" />
<glyph horiz-adv-x="682" />
<glyph unicode=" "  horiz-adv-x="532" />
<glyph unicode="&#x09;" horiz-adv-x="532" />
<glyph unicode="&#xa0;" horiz-adv-x="532" />
<glyph unicode="!" horiz-adv-x="405" d="M115 70q0 35 25.5 60.5t62.5 25.5t62.5 -25.5t25.5 -60.5q0 -37 -25.5 -63.5t-60.5 -26.5q-37 0 -63.5 26.5t-26.5 63.5zM145 1417h117l-6 -639l-14 -452h-68l-18 452z" />
<glyph unicode="&#x22;" horiz-adv-x="468" d="M88 1399h113l-27 -379h-61zM279 1399h110l-22 -379h-64z" />
<glyph unicode="#" horiz-adv-x="1040" d="M82 397l22 76h148l82 381h-162l23 76h155l76 348h82l-76 -348h332l76 348h82l-76 -348h139l-22 -76h-134l-81 -381h147l-23 -76h-141l-84 -397h-82l84 397h-332l-84 -397h-81l84 397h-154zM334 473h332l82 381h-332z" />
<glyph unicode="$" d="M139 106v240h90v-178q68 -33 115 -43t94 -16v583q-59 20 -111.5 48t-91 65t-60 88t-21.5 123t21.5 129t60 99t90 69.5t112.5 40.5v135h72v-1643h-72v162q-80 8 -150.5 28.5t-148.5 69.5zM260 1026q0 -53 13.5 -89t38 -62.5t57 -45t69.5 -32.5v460q-74 -20 -126 -74.5 t-52 -156.5zM580 -154v1643h73v-127q59 -4 124 -21.5t120 -52.5v-241h-90v182q-35 16 -74 25.5t-80 13.5v-539q63 -27 124 -54.5t107 -67.5t73.5 -96t27.5 -138t-25.5 -144.5t-69.5 -105.5t-105.5 -69.5t-131.5 -39.5v-168h-73zM653 113q109 18 168.5 81.5t59.5 186.5 q0 49 -17.5 87t-48.5 67.5t-72 51t-90 40.5v-514z" />
<glyph unicode="%" horiz-adv-x="1607" d="M39 944q0 66 11 140.5t47 137t100.5 104.5t169.5 42q106 0 168.5 -44t94.5 -107.5t40 -137.5t8 -131q0 -72 -14.5 -144.5t-51.5 -132t-97 -97t-153 -37.5q-104 0 -167.5 35.5t-98.5 94t-46 131t-11 146.5zM143 942q0 -66 8.5 -124t33 -102t67.5 -69.5t115 -25.5 q63 0 103 29.5t63.5 75.5t31.5 104.5t8 113.5q0 45 -4 103.5t-24.5 110.5t-62.5 88t-115 36q-76 0 -120 -35t-67.5 -86t-30 -110.5t-6.5 -108.5zM469 -47l582 1477h84l-578 -1477h-88zM930 401q0 66 11 140.5t47 137t100.5 104.5t168.5 42q106 0 169 -44t94.5 -107.5 t40 -137t8.5 -130.5q0 -72 -14.5 -145t-51.5 -132t-97 -97t-153 -38q-104 0 -167.5 36t-98.5 94t-46 131t-11 146zM1034 399q0 -66 8.5 -124t33 -102t67.5 -69.5t114 -25.5q63 0 103.5 29.5t64 75.5t31.5 104.5t8 113.5q0 45 -4 103.5t-24.5 111t-62.5 88t-116 35.5 q-76 0 -119.5 -34.5t-67 -86t-30 -110.5t-6.5 -109z" />
<glyph unicode="&#x26;" horiz-adv-x="1425" d="M55 369q0 141 93.5 247.5t254.5 198.5q-66 90 -91 153.5t-25 125.5q0 59 18.5 111t54 90t87 60.5t116.5 22.5q68 0 119 -20.5t86 -55t52.5 -81.5t17.5 -101q0 -55 -19.5 -101t-55.5 -87t-89 -79t-121 -77q49 -76 111.5 -157.5t128.5 -163.5q37 -47 75.5 -92.5t79.5 -90.5 q92 88 159 202t85 259h-195v92h439v-92h-150q-12 -162 -86 -294t-184 -234q154 -150 311 -215l-47 -90q-33 14 -76 38.5t-90 57.5t-94 69.5t-86 73.5q-102 -78 -220 -118.5t-231 -40.5q-90 0 -167.5 24.5t-135 72.5t-91.5 120.5t-34 171.5zM160 373q0 -78 24.5 -134.5 t67.5 -94.5t100.5 -56t120.5 -18q96 0 197.5 35.5t197.5 101.5q-57 59 -105 118.5t-91 114.5q-59 76 -115.5 151t-101.5 140q-63 -35 -116.5 -71.5t-93.5 -80.5t-62.5 -94.5t-22.5 -111.5zM399 1104q0 -57 29 -113.5t76 -126.5q47 25 89 50.5t72.5 56t48 66.5t17.5 83 q0 72 -46 118t-130 46q-45 0 -74.5 -18.5t-48 -46t-26 -58.5t-7.5 -57z" />
<glyph unicode="'" horiz-adv-x="350" d="M123 1399h113l-27 -379h-62z" />
<glyph unicode="(" horiz-adv-x="538" d="M121 588q0 180 34.5 325.5t82 255t95.5 183t73 108.5l47 -28q-23 -33 -60 -105t-72.5 -178.5t-62.5 -247.5t-27 -313q0 -195 27 -345.5t62.5 -262t73.5 -184t61 -111.5l-49 -37q-23 33 -71 108.5t-95 192.5t-83 276.5t-36 362.5z" />
<glyph unicode=")" horiz-adv-x="542" d="M59 -315q23 39 61 111.5t73.5 184t62.5 262t27 345.5q0 172 -27 313t-62.5 247.5t-73.5 178.5t-59 105l48 28q25 -35 72.5 -108.5t95 -183t82 -255t34.5 -325.5q0 -203 -35.5 -362.5t-84 -276.5t-95.5 -192.5t-69 -108.5z" />
<glyph unicode="*" horiz-adv-x="765" d="M104 1151q2 47 12.5 80t35.5 63l202 -114l-45 229q37 12 78 12q39 0 74 -12l-47 -229l202 106q35 -33 42.5 -65.5t7.5 -73.5l-238 -27l168 -159q-41 -63 -115 -89l-100 215l-98 -213q-39 10 -66 30t-53 57l168 161z" />
<glyph unicode="+" d="M172 561v96h334v328h100v-328h332v-96h-332v-342h-100v342h-334z" />
<glyph unicode="," horiz-adv-x="380" d="M76 -172q35 35 56.5 68.5t25.5 87.5q-29 10 -45.5 32.5t-16.5 53.5q0 35 27 61.5t63 26.5q41 0 69 -29t28 -78q0 -72 -49.5 -145.5t-129.5 -114.5z" />
<glyph unicode="-" horiz-adv-x="724" d="M104 481v109h514v-109h-514z" />
<glyph unicode="." horiz-adv-x="374" d="M90 70q0 35 25.5 60.5t62.5 25.5t62.5 -25.5t25.5 -60.5q0 -37 -25.5 -63.5t-60.5 -26.5q-37 0 -63.5 26.5t-26.5 63.5z" />
<glyph unicode="/" horiz-adv-x="645" d="M37 -53l522 1483h68l-521 -1483h-69z" />
<glyph unicode="0" d="M74 666q0 72 7 153.5t26.5 160.5t53.5 150.5t88 127t132 88t182 32.5q106 0 183 -33.5t128.5 -90t82 -130t47 -152.5t21.5 -156.5t5 -143.5q0 -119 -22.5 -241t-76.5 -221t-144.5 -161.5t-227.5 -62.5q-158 0 -253 60t-147.5 156.5t-68.5 218.5t-16 245zM193 662 q0 -119 14 -224.5t54 -183.5t112.5 -124t189.5 -46q106 0 175 53t107 137t52 188t14 204q0 53 -3 118.5t-13 134t-32.5 133t-60.5 115t-96.5 81t-142.5 30.5q-127 0 -200.5 -62.5t-111.5 -155.5t-48 -200.5t-10 -197.5z" />
<glyph unicode="1" d="M160 1241l354 117h109v-1264h278v-94h-692v94h299v1127l-330 -54z" />
<glyph unicode="2" d="M72 1235q61 45 121.5 73.5t113.5 44t98.5 20.5t77.5 5q86 0 161 -21.5t129 -65.5t85 -112.5t31 -162.5q0 -88 -35 -175t-91 -172t-127 -166t-144.5 -154t-143 -137.5t-121.5 -115.5h607v203h104v-299h-864v88q51 51 122.5 117.5t148.5 143.5t152.5 159t136 167t97.5 168 t37 158q0 72 -22.5 124.5t-63.5 85t-96.5 48t-118.5 15.5q-25 0 -58.5 -3t-77.5 -14.5t-97.5 -33t-114.5 -60.5z" />
<glyph unicode="3" d="M90 59l31 86q115 -33 195.5 -46t140.5 -13q180 0 283.5 81t103.5 257q0 141 -100.5 215t-280.5 74q-39 0 -71 -3t-68 -10l-37 78l469 475v2h-510v-208l-105 -3v314h764l23 -74l-469 -471h35q92 0 177 -22.5t149.5 -70.5t103.5 -122t39 -174q0 -113 -40 -196t-105.5 -138 t-149.5 -81.5t-174 -26.5q-121 0 -218.5 18t-185.5 59z" />
<glyph unicode="4" d="M66 389v96l657 873h119v-873h198v-96h-198v-295h153v-94h-407v94h143v295h-665zM182 485h551v721h-12l-98 -135z" />
<glyph unicode="5" d="M96 59l31 86q115 -33 195.5 -46t140.5 -13q180 0 283.5 81t103.5 257q0 80 -28.5 140.5t-76 99t-110 58t-131.5 19.5q-59 0 -122 -15t-120 -44l-82 63l37 613h694v-273h-98v170h-494l-26 -458q27 8 84.5 26.5t161.5 18.5q76 0 152.5 -22.5t138 -72t100.5 -129t39 -194.5 q0 -113 -40 -196t-105.5 -138t-149.5 -81.5t-174 -26.5q-121 0 -218.5 18t-185.5 59z" />
<glyph unicode="6" d="M106 625q0 168 33 306t97.5 238.5t161 155.5t223.5 55q111 0 187.5 -24.5t109.5 -42.5l-35 -86q-78 33 -145.5 43t-119.5 10q-119 0 -194.5 -61.5t-118.5 -146.5t-60.5 -175t-19.5 -145l13 -7q55 35 143 68t207 33q80 0 154.5 -22.5t132 -73t91 -131t33.5 -195.5 q0 -100 -32.5 -181t-91 -138.5t-140.5 -88t-180 -30.5q-135 0 -222 51t-137.5 138t-70 204t-19.5 246zM223 584q0 -66 9.5 -153t44 -164t101 -130t181.5 -53q80 0 140.5 24.5t100.5 69.5t60.5 105.5t20.5 132.5t-15.5 132t-51.5 103t-94.5 67.5t-144.5 24.5t-151.5 -17 t-110.5 -40q-53 -25 -90 -55v-47z" />
<glyph unicode="7" d="M154 1044v314h798v-96l-567 -1262h-111l566 1255h-582v-211h-104z" />
<glyph unicode="8" d="M86 328q0 57 14.5 118.5t47 119t83 109.5t121.5 93q-100 55 -149 119.5t-49 161.5q0 68 28.5 128t81.5 105t128 71.5t165 26.5q68 0 138.5 -17t128 -56t94 -99.5t36.5 -146.5q0 -80 -45 -171t-170 -181q109 -53 177.5 -139.5t68.5 -213.5q0 -74 -29.5 -141.5t-87 -118.5 t-141.5 -80.5t-192 -29.5q-115 0 -199 27.5t-139.5 74.5t-83 108.5t-27.5 131.5zM203 342q0 -49 18.5 -97t59.5 -86t104.5 -60.5t155.5 -22.5q84 0 146.5 23.5t103 63.5t61 91t20.5 104q0 76 -32.5 128.5t-90 92t-136 73.5t-173.5 73q-131 -82 -184 -184.5t-53 -198.5z M272 1049q0 -59 32 -102.5t83 -77t116.5 -61.5t133.5 -56q117 80 162 152.5t45 137.5q0 39 -15.5 83t-50.5 79t-91 58.5t-136 23.5t-133 -25.5t-85 -62.5t-46.5 -77.5t-14.5 -71.5z" />
<glyph unicode="9" d="M86 942q0 100 32 181t90 138.5t140 88t180 30.5q135 0 222.5 -51t137.5 -138t69.5 -204t19.5 -246q0 -168 -33 -306t-97.5 -237.5t-160.5 -154.5t-223 -55q-55 0 -105.5 7t-92.5 17.5t-72.5 21.5t-47.5 21l35 86q78 -33 156 -43t129 -10q80 0 139.5 28.5t102.5 76 t70.5 104.5t45 116.5t25.5 113t10 89.5l-10 7q-55 -35 -143.5 -69t-208.5 -34q-80 0 -155 22.5t-131 73t-90 131t-34 195.5zM203 950q0 -72 15 -132t51 -103t94.5 -67.5t144.5 -24.5t151.5 16t110.5 39q53 25 90 57v47q0 66 -9 152t-44 161.5t-101.5 128t-181.5 52.5 q-162 0 -241.5 -91t-79.5 -235z" />
<glyph unicode=":" horiz-adv-x="366" d="M100 76q0 35 26 60.5t62 25.5q37 0 62.5 -25.5t25.5 -60.5q0 -37 -22.5 -63.5t-63.5 -26.5t-65.5 26.5t-24.5 63.5zM100 733q0 37 26 61.5t62 24.5q37 0 62.5 -24.5t25.5 -61.5t-25.5 -63.5t-60.5 -26.5q-37 0 -63.5 27.5t-26.5 62.5z" />
<glyph unicode=";" horiz-adv-x="366" d="M76 -172q35 35 56.5 68.5t25.5 87.5q-29 10 -45.5 32.5t-16.5 53.5q0 35 27 61.5t63 26.5q41 0 69 -29t28 -78q0 -72 -49.5 -145.5t-129.5 -114.5zM100 733q0 37 26 61.5t62 24.5q37 0 62.5 -24.5t25.5 -61.5t-25.5 -63.5t-60.5 -26.5q-37 0 -63.5 27.5t-26.5 62.5z" />
<glyph unicode="&#x3c;" d="M176 565v84l770 393v-110l-657 -324l657 -329v-111z" />
<glyph unicode="=" d="M150 430v94h804v-94h-804zM150 711v96h804v-96h-804z" />
<glyph unicode="&#x3e;" d="M176 168v111l658 329l-658 324v110l770 -393v-84z" />
<glyph unicode="?" horiz-adv-x="849" d="M82 1102v274q88 31 181 46.5t167 15.5q186 0 277.5 -71t91.5 -198q0 -100 -58.5 -173.5t-134.5 -133.5q-72 -55 -121 -100t-80.5 -86t-46 -80t-14.5 -82q0 -39 6 -78t15 -92l-91 -20q-16 66 -22 115.5t-6 84.5q0 96 59.5 185t202.5 200q82 63 127 118.5t45 133.5 q0 96 -67.5 136t-172.5 40q-57 0 -126.5 -9t-135.5 -32v-194h-96zM268 70q0 35 25.5 60.5t62.5 25.5t62.5 -25.5t25.5 -60.5q0 -39 -25.5 -64.5t-60.5 -25.5q-37 0 -63.5 26.5t-26.5 63.5z" />
<glyph unicode="@" horiz-adv-x="1755" d="M143 682q0 156 61.5 288t167 227t244.5 149.5t297 54.5q162 0 292 -48t220.5 -135.5t138.5 -209t48 -271.5q-2 -102 -32 -179t-78 -128t-107.5 -75.5t-118.5 -24.5q-63 0 -121.5 23.5t-85.5 88.5q-45 -43 -118.5 -77.5t-162.5 -34.5q-66 0 -107.5 22.5t-65 55t-33 70.5 t-9.5 71q0 51 19.5 91t51.5 67.5t73 43t84 19.5l248 21v57q0 104 -37 144t-131 40q-111 0 -238 -45l-25 70q63 31 137 47t146 16q111 0 173.5 -56t62.5 -194v-323q0 -68 36.5 -104.5t112.5 -36.5q41 0 85 19t80 59t58.5 102.5t22.5 148.5q0 141 -44 251t-125 186.5 t-195.5 116.5t-254.5 40q-141 0 -266 -49t-220 -136t-150.5 -205t-55.5 -255q0 -139 49 -258t134 -205t201 -135t251 -49q59 0 117.5 8t126.5 31l18 -66q-47 -20 -115.5 -33.5t-140.5 -13.5q-158 0 -289 54.5t-227 149.5t-149.5 227t-53.5 288zM672 555q0 -70 35.5 -106.5 t115.5 -36.5q113 0 226 100v203l-209 -17q-72 -4 -120 -40.5t-48 -102.5z" />
<glyph unicode="A" horiz-adv-x="1302" d="M41 0v94h119q98 315 208.5 653t211.5 654h147l424 -1307h113v-94h-383v94h145l-90 293h-567l-90 -293h151v-94h-389zM403 489h500l-203 648l-45 151h-4q0 -4 -2 -11t-7 -23.5t-14.5 -45t-23.5 -73.5q-27 -82 -75 -234.5t-126 -411.5z" />
<glyph unicode="B" horiz-adv-x="1202" d="M82 0v96h139v1209h-131v94h584q201 0 302 -99.5t101 -252.5q0 -37 -8 -81t-29.5 -87t-60.5 -82t-102 -66q68 -18 113.5 -57t74.5 -88t42 -103.5t13 -103.5q0 -86 -31.5 -155.5t-84 -120t-120 -77t-141.5 -26.5h-661zM338 96h360q84 0 142.5 24.5t95.5 64.5t53.5 93.5 t16.5 110.5q0 55 -19.5 107.5t-57.5 92.5t-96.5 64.5t-134.5 24.5h-360v-582zM338 774h321q147 0 225.5 72.5t78.5 189.5q0 57 -17.5 106.5t-54.5 85.5t-94.5 56.5t-137.5 20.5h-321v-531z" />
<glyph unicode="C" horiz-adv-x="1116" d="M102 690q0 72 11.5 154t37 162.5t68.5 155.5t107.5 132.5t153.5 91t206 33.5t203 -16.5t143 -38.5v-295h-98v219q-47 14 -112.5 23.5t-131.5 9.5q-121 0 -210 -46t-146.5 -129t-85 -200t-27.5 -260q0 -121 18.5 -229.5t69.5 -190.5t143.5 -131t239.5 -49q29 0 70 2t86 8 t92 15.5t90 23.5l25 -88q-33 -12 -79 -23.5t-96.5 -19.5t-103.5 -13t-98 -5q-156 0 -265.5 49t-178 141t-100.5 222t-32 292z" />
<glyph unicode="D" horiz-adv-x="1296" d="M82 0v94h139v1211h-131v94h553q164 0 270.5 -56.5t169 -151.5t87 -222.5t24.5 -266.5q0 -145 -26.5 -272t-92 -223t-176.5 -151.5t-276 -55.5h-541zM342 96h264q29 0 75 2t99.5 17.5t105.5 51.5t95 101.5t69.5 166.5t26.5 251q0 152 -24.5 257.5t-63.5 174t-88 106.5 t-100 56t-98.5 21.5t-79.5 3.5h-281v-1209z" />
<glyph unicode="E" d="M82 0v94h135v1211h-127v92h920v-275h-99v183h-577v-523l571 13v-111l-571 8v-598h608v182h102v-276h-962z" />
<glyph unicode="F" horiz-adv-x="1050" d="M82 0v94h135v1211h-127v92h920v-275h-99v183h-577v-523l571 13v-111l-571 8v-598h198v-94h-450z" />
<glyph unicode="G" horiz-adv-x="1241" d="M102 690q0 72 11.5 154t38 162.5t70.5 155.5t112.5 132.5t163 91t219.5 33.5q117 0 203 -16.5t143 -38.5v-295h-98v219q-47 14 -113 23.5t-131 9.5q-129 0 -223.5 -46t-155.5 -129t-91 -200t-30 -260q0 -121 19.5 -228.5t72 -190.5t142.5 -131t233 -48q29 0 66 2t74.5 6 t72.5 10.5t60 16.5v498h-211v92h430v-92h-107v-576q-98 -31 -199.5 -45t-199.5 -14q-154 0 -261.5 49t-177 141t-101.5 222t-32 292z" />
<glyph unicode="H" horiz-adv-x="1359" d="M82 0v96h127v1209h-127v94h373v-94h-129v-517h706v517h-127v94h373v-94h-129v-1209h129v-96h-373v96h127v592h-706v-592h129v-96h-373z" />
<glyph unicode="I" horiz-adv-x="657" d="M143 0v94h125v1211h-125v94h371v-94h-129v-1211h129v-94h-371z" />
<glyph unicode="J" horiz-adv-x="657" d="M-53 -279q88 49 150.5 98.5t103.5 108t60.5 128t19.5 161.5l2 1088h-168v94h440v-94h-154l-2 -1055q0 -125 -27.5 -219t-80.5 -166t-131 -125t-180 -96z" />
<glyph unicode="K" horiz-adv-x="1245" d="M82 0v96h127v1209h-127v94h373v-94h-129v-586l594 584h-142v96h391v-96h-110l-467 -457l502 -748h120v-98h-397l-2 98h141l-448 668l-182 -178v-492h133v-96h-377z" />
<glyph unicode="L" horiz-adv-x="1064" d="M82 0v94h135v1211h-127v92h393v-92h-149v-1211h608v244h102v-338h-962z" />
<glyph unicode="M" horiz-adv-x="1689" d="M82 0v94h125v1211h-125v94h258l385 -871l115 -262h12l117 266l381 867h258v-94h-127v-1211h127v-94h-373v94h131v1094h-4l-100 -234l-363 -817h-113l-372 834l-95 217h-4l4 -1094h134v-94h-371z" />
<glyph unicode="N" horiz-adv-x="1431" d="M82 0v96h137v1209h-137v94h262l578 -912l172 -274h10v1092h-143v94h389v-94h-133v-1305h-109l-623 973l-149 239l-6 -2l2 -1114h143v-96h-393z" />
<glyph unicode="O" horiz-adv-x="1327" d="M102 686q0 143 29 276.5t95.5 234.5t176 161.5t273.5 60.5q166 0 272.5 -61.5t168 -162.5t85 -232.5t23.5 -270.5q0 -152 -35 -280.5t-103.5 -223t-171 -148.5t-239.5 -54q-158 0 -267.5 49t-177 139t-98.5 220t-31 292zM221 682q0 -297 107.5 -448.5t347.5 -151.5 q111 0 191.5 48t134 130t79 192.5t25.5 233.5q0 106 -15.5 219t-61.5 206t-131 152.5t-222 59.5t-225.5 -55.5t-139.5 -145.5t-70.5 -204.5t-19.5 -235.5z" />
<glyph unicode="P" horiz-adv-x="1110" d="M82 0v94h129v1211h-129v94h553q84 0 159.5 -23.5t132 -73t89.5 -124t33 -174.5q0 -59 -17.5 -131t-61.5 -134.5t-122 -105.5t-197 -43h-323v-496h172v-94h-418zM328 684h317q51 0 103.5 15.5t92.5 51t65.5 96t25.5 150.5q0 78 -22.5 135.5t-62.5 96.5t-93.5 57.5 t-114.5 18.5h-311v-621z" />
<glyph unicode="Q" horiz-adv-x="1325" d="M102 686q0 143 29 276.5t95.5 234.5t176 161.5t273.5 60.5q166 0 272.5 -61.5t168 -162.5t85 -232.5t23.5 -270.5q0 -117 -20.5 -220t-61.5 -189t-102.5 -150.5t-143.5 -101.5l324 -78l-50 -119l-473 152h-22q-158 0 -267.5 49t-177 139t-98.5 220t-31 292zM221 682 q0 -297 107.5 -448.5t347.5 -151.5q111 0 191.5 48t134 130t79 192.5t25.5 233.5q0 106 -15.5 219t-61.5 206t-131 152.5t-222 59.5t-225.5 -55.5t-139.5 -145.5t-70.5 -204.5t-19.5 -235.5z" />
<glyph unicode="R" horiz-adv-x="1198" d="M82 0v94h129v1211h-129v94h553q84 0 159.5 -20.5t132 -65.5t89.5 -117t33 -172q0 -49 -12.5 -107.5t-43 -111.5t-84 -96t-133.5 -64l260 -549l144 -18v-68q-31 -10 -72 -17t-70 -7q-53 0 -73.5 24.5t-38.5 65.5l-260 555h-338v-537h172v-94h-418zM328 725h317 q51 0 103.5 11.5t92.5 44t65.5 90t25.5 147.5q0 78 -22.5 132t-62.5 89t-93.5 50.5t-114.5 15.5h-311v-580z" />
<glyph unicode="S" horiz-adv-x="1050" d="M72 92v252h98v-180q84 -43 161 -59.5t158 -16.5q88 0 158 14.5t118 48t73.5 90t25.5 140.5q0 72 -25.5 119t-70.5 77.5t-105.5 51t-130.5 39.5q-86 23 -164.5 49t-140 66t-97.5 100.5t-36 152.5q0 94 35 166t94.5 120t138 72.5t166.5 24.5q39 0 84 -3t92.5 -12 t93.5 -25.5t87 -41.5v-254h-101v193q-57 27 -127.5 36t-136.5 9q-135 0 -222 -70.5t-87 -216.5q0 -63 28.5 -106t74.5 -72t104.5 -47t118.5 -33q78 -20 156.5 -42.5t142 -64.5t103.5 -111t40 -179q0 -106 -39 -181t-104.5 -122t-152.5 -68.5t-185 -21.5q-111 0 -220.5 23.5 t-205.5 82.5z" />
<glyph unicode="T" horiz-adv-x="1060" d="M31 1102v297h997l2 -297h-100v203h-340v-1211h151v-94h-413v94h147v1211h-346v-203h-98z" />
<glyph unicode="U" horiz-adv-x="1396" d="M61 1305v94h392v-94h-150v-805q0 -207 102.5 -311.5t288.5 -104.5q195 0 296.5 104.5t101.5 311.5v805h-148v94h391v-94h-129v-807q0 -115 -31.5 -209t-95 -162t-160 -104.5t-225.5 -36.5q-266 0 -387 136t-121 376v807h-125z" />
<glyph unicode="V" horiz-adv-x="1234" d="M20 1305v94h373v-94h-131l283 -906l78 -264h8l78 271l274 899h-127v94h369v-94h-125l-412 -1305h-131l-412 1305h-125z" />
<glyph unicode="W" horiz-adv-x="1804" d="M20 1305v94h392v-94h-150l230 -955l47 -203h4l57 209l254 879l-20 70h-146v94h412v-94h-152l289 -975l51 -183h4l47 207l220 951h-146v94h381v-94h-127q-37 -156 -77 -321t-81 -332t-82 -331.5t-77 -320.5h-127l-250 846l-58 205h-4l-61 -215l-246 -836h-133l-326 1305 h-125z" />
<glyph unicode="X" horiz-adv-x="1236" d="M41 0v96h123l387 633l-356 576h-123v94h391v-94h-144l302 -496l305 496h-150v94h398v-94h-123l-369 -586l385 -623h129v-96h-410v96h158l-334 543l-323 -543h166v-96h-412z" />
<glyph unicode="Y" horiz-adv-x="1126" d="M20 1305v94h367v-94h-133l305 -568h8l318 568h-137v94h358v-94h-107l-378 -670v-541h167v-94h-454v94h168v535l-371 676h-111z" />
<glyph unicode="Z" horiz-adv-x="1015" d="M41 0v94l764 1211h-617v-203h-98v297h850v-94l-764 -1209h696v221h103v-317h-934z" />
<glyph unicode="[" horiz-adv-x="481" d="M102 -328v1753h308v-86h-201v-1575h201v-92h-308z" />
<glyph unicode="\" horiz-adv-x="645" d="M37 1430h67l523 -1483h-70z" />
<glyph unicode="]" horiz-adv-x="481" d="M61 -236h201v1575h-201v86h308v-1753h-308v92z" />
<glyph unicode="^" horiz-adv-x="866" d="M45 805l348 594h80l340 -594h-96l-287 500l-289 -500h-96z" />
<glyph unicode="_" horiz-adv-x="1024" d="M0 -184h1024v-74h-1024v74z" />
<glyph unicode="`" horiz-adv-x="978" d="M252 1382l100 82l228 -323l-60 -43z" />
<glyph unicode="a" horiz-adv-x="978" d="M72 270q0 70 26.5 123t74.5 90t114.5 56.5t144.5 23.5l266 15v81q0 72 -11 120t-36.5 77t-69.5 41t-108 12q-145 0 -307 -57l-31 82q84 39 178.5 59.5t184.5 20.5q147 0 228 -73t81 -253v-594h143l8 -67q-35 -16 -77.5 -25.5t-71.5 -9.5q-53 0 -81 22.5t-30 98.5l-4 2 q-59 -49 -111.5 -76t-95.5 -38t-76.5 -13t-58.5 -2q-84 0 -138 28.5t-86 71.5t-44 92t-12 92zM193 279q0 -96 48 -146.5t156 -50.5q72 0 148 31.5t153 103.5v272l-280 -14q-113 -6 -169 -58t-56 -138z" />
<glyph unicode="b" horiz-adv-x="1042" d="M-14 1362v90h282v-526q92 51 164.5 72.5t140.5 21.5q106 0 178 -40t113 -110.5t58.5 -167t17.5 -208.5q0 -104 -20.5 -196.5t-67.5 -161t-125 -108.5t-190 -40q-111 0 -205 23.5t-174 58.5v1292h-172zM268 135q68 -29 134.5 -39t125.5 -10q70 0 125.5 21.5t93 68.5 t57 125t19.5 188q0 125 -18.5 209t-51 133.5t-81 70t-105.5 20.5q-80 0 -159.5 -28t-139.5 -63v-696z" />
<glyph unicode="c" horiz-adv-x="886" d="M82 485q0 76 17.5 169.5t64.5 174t130 136t216 55.5q82 0 157.5 -15.5t133.5 -41.5v-242h-90v176q-53 16 -98.5 22.5t-96.5 6.5q-84 0 -144.5 -34t-99.5 -92.5t-57 -139t-18 -175.5q0 -84 14 -157.5t48 -129t91.5 -87t145.5 -31.5q82 0 151.5 17.5t151.5 52.5l32 -74 q-59 -35 -147 -60.5t-186 -25.5q-117 0 -196 36.5t-128 102.5t-70.5 157t-21.5 199z" />
<glyph unicode="d" horiz-adv-x="1048" d="M82 481q0 113 21.5 212.5t67.5 171t121 113.5t183 42q31 0 67 -4t73.5 -13.5t73.5 -24.5t65 -36v420h-176v90h288v-1364h162v-88h-274v92l-4 6q-57 -45 -137.5 -77.5t-166.5 -32.5q-102 0 -171.5 40t-112.5 107.5t-61.5 157.5t-18.5 188zM199 477q0 -111 18.5 -185.5 t54 -120.5t86 -65.5t111.5 -19.5q33 0 75 10t83 26.5t74.5 37t52.5 39.5v643q-16 12 -47 26.5t-68 26.5t-79 19.5t-79 7.5q-59 0 -110.5 -22.5t-90 -75t-60 -137.5t-21.5 -210z" />
<glyph unicode="e" horiz-adv-x="946" d="M82 496q0 39 5 93t20.5 112.5t43 114.5t73.5 101.5t113 73t159 27.5q96 0 161.5 -28.5t107.5 -73t64.5 -98.5t31.5 -106.5t10 -96.5t1 -68v-78h-675q0 -74 12 -144.5t46 -124t92.5 -86t148.5 -32.5q45 0 83.5 4t75.5 13.5t76 23.5t82 33l33 -76q-86 -47 -168 -68.5 t-180 -21.5q-127 0 -207 40t-127 108.5t-64.5 160.5t-17.5 197zM199 563h563q0 80 -13.5 145.5t-44 113.5t-81.5 74t-127 26q-80 0 -134.5 -30t-89 -80t-51 -114.5t-22.5 -134.5z" />
<glyph unicode="f" horiz-adv-x="655" d="M41 0v90h149v815h-137v62l140 34v179q0 76 22.5 130t61 90t93 53t117.5 17q41 0 87.5 -5t91.5 -15l-17 -88q-35 4 -72.5 8t-68.5 4q-104 0 -156.5 -42t-52.5 -148v-185h295v-94h-295v-815h178v-90h-436z" />
<glyph unicode="g" horiz-adv-x="987" d="M57 -143q0 45 13.5 84t33 69.5t43 53t43.5 32.5q-123 23 -127 144v10q0 44 17 72q18 32 45 50.5t56.5 27t51.5 10.5q-25 12 -49 32.5t-44.5 51t-33 73.5t-12.5 101q0 98 36 166.5t91 110.5t124 61q62 16 121 16h13q43 -2 84 -7t82 -18h307v-90h-159l-5 -10 q39 -39 57.5 -96.5t18.5 -126.5q0 -80 -28.5 -142.5t-82 -106.5t-127 -66.5t-161.5 -22.5h-109h-49t-43 -4q-41 -8 -62.5 -24.5t-21.5 -49.5q0 -37 32 -56.5t83 -19.5h246q180 0 275 -81t95 -226q0 -76 -34.5 -135t-95 -99t-142.5 -60.5t-174 -20.5q-117 0 -196 24.5 t-126 65.5t-66.5 94t-19.5 113zM168 -125q0 -43 15.5 -83t51 -70.5t96 -49t152.5 -18.5q68 0 125.5 15.5t100.5 45t67.5 70.5t24.5 90q0 35 -12.5 71t-43 65.5t-83 49t-130.5 19.5h-229q-23 -6 -46.5 -26.5t-43.5 -49.5t-32.5 -62.5t-12.5 -66.5zM213 674 q0 -111 65.5 -177.5t174.5 -66.5q129 0 212 59.5t83 184.5q0 41 -12.5 85t-43 79.5t-83 59.5t-132.5 24q-129 0 -196.5 -62.5t-67.5 -185.5z" />
<glyph unicode="h" horiz-adv-x="1138" d="M41 1362v90h266v-545q88 53 185.5 83t171.5 30q104 0 160.5 -31t82 -77t30.5 -100t5 -103v-615h152v-67q-35 -16 -78 -25.5t-72 -9.5q-53 0 -80.5 22.5t-29.5 98.5v565q0 55 -5.5 100t-24 77t-55 49.5t-102.5 17.5q-41 0 -85 -9.5t-89 -25t-88 -34.5t-78 -38v-815h-110 v1362h-156z" />
<glyph unicode="i" horiz-adv-x="546" d="M109 907v90h227v-903h151v-67q-35 -16 -77.5 -25.5t-71.5 -9.5q-53 0 -81 22.5t-30 98.5v794h-118zM195 1243q0 35 23.5 58.5t55.5 23.5q35 0 58.5 -23.5t23.5 -58.5q0 -33 -23.5 -56.5t-58.5 -23.5q-33 0 -56 23.5t-23 56.5z" />
<glyph unicode="j" horiz-adv-x="522" d="M-20 -360q74 41 119.5 76.5t72.5 75.5t37 87t10 109v919h-149v90h258v-985q0 -92 -13.5 -158.5t-49.5 -117.5t-96 -92t-155 -80zM186 1243q0 35 23.5 58.5t56.5 23.5q35 0 58.5 -23.5t23.5 -58.5q0 -33 -23.5 -56.5t-58.5 -23.5q-33 0 -56.5 23.5t-23.5 56.5z" />
<glyph unicode="k" horiz-adv-x="1007" d="M25 1362v90h278v-917l397 372h-135v90h369v-90h-105l-301 -284l334 -531l137 -18v-62q-29 -14 -61.5 -20t-60.5 -6q-51 0 -72 17t-45 54l-305 496l-152 -139v-324h150v-90h-406v90h148v1272h-170z" />
<glyph unicode="l" horiz-adv-x="561" d="M72 1362v90h278v-1362h150v-90h-406v90h148v1272h-170z" />
<glyph unicode="m" horiz-adv-x="1740" d="M41 905v92h264v-84l8 -6q86 51 173 80t165 29q74 0 135.5 -27.5t100.5 -87.5q37 23 81 44.5t92 37.5t96 25.5t93 9.5q109 0 168.5 -33t88 -82t33.5 -105.5t5 -105.5v-598h152v-67q-35 -16 -78 -25.5t-72 -9.5q-53 0 -80.5 22.5t-29.5 98.5v559q0 57 -7.5 103t-30 79 t-62.5 49.5t-105 16.5q-37 0 -80 -7.5t-86 -20.5t-83 -30.5t-71 -38.5q10 -35 12.5 -72.5t2.5 -62.5v-688h-111v711q0 119 -55 164t-135 45q-78 0 -165 -33t-155 -74v-813h-108v905h-156z" />
<glyph unicode="n" horiz-adv-x="1138" d="M41 907v90h266v-82l6 -4q86 53 182.5 81t168.5 28q104 0 160.5 -31t82 -77t30.5 -100t5 -103v-615h152v-67q-35 -16 -78 -25.5t-72 -9.5q-53 0 -80.5 22.5t-29.5 98.5v565q0 55 -5.5 100t-24 77t-55 49.5t-102.5 17.5q-41 0 -85 -9.5t-89 -25t-88 -34.5t-78 -38v-815 h-110v907h-156z" />
<glyph unicode="o" horiz-adv-x="985" d="M82 492q0 96 21.5 190t71.5 169t130 121t197 46q119 0 196.5 -46t123.5 -120t63.5 -168t17.5 -188q0 -92 -18.5 -183.5t-66.5 -164t-130 -117.5t-209 -45q-117 0 -193.5 42t-121.5 112.5t-63.5 161.5t-18.5 190zM199 489q0 -80 11 -152.5t43 -129.5t91 -91t158 -34 q90 0 146.5 38t87 96t41.5 131t11 145q0 70 -10 145.5t-40.5 139t-87 104.5t-148.5 41t-150.5 -39t-92.5 -100.5t-47 -139.5t-13 -154z" />
<glyph unicode="p" horiz-adv-x="1038" d="M4 907v90h281v-102q57 47 138 81t169 34q102 0 172 -40t113 -107.5t61 -158t18 -188.5q0 -115 -21.5 -213t-67.5 -170t-121.5 -114t-182.5 -42q-31 0 -66.5 4.5t-73.5 13.5t-74 24.5t-64 35.5v-391h176v-90h-451v90h162v1243h-168zM285 156q16 -12 46.5 -26.5t67.5 -27 t79 -19.5t79 -7q59 0 110.5 22.5t90.5 74.5t60.5 137t21.5 210q0 111 -18.5 185.5t-54.5 120.5t-86 65.5t-112 19.5q-35 0 -75.5 -10t-81.5 -26.5t-75 -37t-52 -38.5v-643z" />
<glyph unicode="q" horiz-adv-x="1044" d="M104 498q2 104 25 197t71 163t124.5 111t189.5 41q111 0 202 -23.5t171 -58.5v-1262h168v-92h-467v92h188v406q-92 -51 -164.5 -73t-140.5 -22q-109 0 -179.5 39t-113.5 109t-60 165q-14 85 -14 184v24zM221 494v-24q0 -105 15 -177q18 -80 52 -128t82 -68.5t107 -20.5 q80 0 160 27.5t139 62.5v696q-68 29 -131 39t-123 10q-137 0 -217 -97t-84 -320z" />
<glyph unicode="r" horiz-adv-x="714" d="M59 0v90h154v817h-152v90h261v-135h2q29 25 70.5 52.5t88.5 52t97.5 40t95.5 15.5q16 0 29.5 -8t13.5 -37q0 -27 -12.5 -65t-30.5 -60l-350 -39v-723h166v-90h-433z" />
<glyph unicode="s" horiz-adv-x="835" d="M61 287h89l6 -158q49 -25 113.5 -37t117.5 -12q55 0 103.5 8t85 28.5t57 57.5t20.5 92q0 45 -19.5 76t-53 53.5t-76.5 39t-88 28.5q-61 16 -120.5 35.5t-107 50.5t-77 79t-29.5 122t28.5 125t75.5 82.5t107.5 46t126.5 14.5q70 0 142.5 -16.5t131.5 -55.5l6 -225h-90 l-6 168q-39 16 -89 25.5t-97 9.5q-94 0 -159.5 -38t-65.5 -141q0 -45 24.5 -74.5t60 -49t75.5 -30.5t71 -20q61 -16 121.5 -35.5t108.5 -52t77 -85t29 -134.5q0 -74 -31 -126t-81 -86t-116.5 -49t-138.5 -15q-90 0 -177 18.5t-148 61.5z" />
<glyph unicode="t" horiz-adv-x="704" d="M41 907v58l149 45l43 213l66 16v-242h305v-90h-307v-653q0 -68 26.5 -117t110.5 -49q76 0 197 37l22 -78q-51 -25 -112.5 -40t-120.5 -15q-49 0 -92 11t-74 37t-48.5 69t-17.5 104v694h-147z" />
<glyph unicode="u" horiz-adv-x="1120" d="M41 907v90h264v-678q0 -55 5 -100t23.5 -76.5t55.5 -49t103 -17.5q31 0 70.5 9t82.5 26.5t87 44t83 61.5v690h-147v90l256 2v-2h2l-2 -903h143l8 -67q-35 -16 -78 -25.5t-71 -9.5q-53 0 -81 22.5t-30 98.5l-4 2q-49 -45 -99 -73t-95.5 -42t-81 -18.5t-60.5 -4.5 q-104 0 -160.5 30t-82 76t-30.5 101.5t-5 104.5v618h-156z" />
<glyph unicode="v" horiz-adv-x="983" d="M14 905v92h207l180 -585l95 -299h8l84 278l160 514h-101v92h316v-92h-105l-299 -905h-129l-295 905h-121z" />
<glyph unicode="w" horiz-adv-x="1511" d="M6 905v92h195l164 -573l86 -305h8l96 297l139 405l-26 84h-156v92h383v-92h-111l187 -522l90 -264h8l70 270l139 516h-139v92h352v-92h-105l-253 -905h-127l-162 434l-90 248h-13l-86 -258l-145 -424h-125l-266 905h-113z" />
<glyph unicode="x" horiz-adv-x="950" d="M20 0v90h130l260 434l-222 383h-155v90h221l233 -403l181 313h-86v90h331v-90h-131l-239 -403l256 -414h133v-90h-338v90h84l-209 348l-203 -348h111v-90h-357z" />
<glyph unicode="y" horiz-adv-x="1030" d="M33 905v92h188l213 -682l68 -227h10l74 223l194 594h-135v92h346v-92h-104l-377 -1141q-35 -111 -87 -156.5t-142 -45.5q-16 0 -66.5 2t-146.5 30l20 84q49 -10 92 -17t78 -7q53 0 92 29.5t68 113.5l65 203h-55l-293 905h-102z" />
<glyph unicode="z" horiz-adv-x="851" d="M41 0v80l612 825h-487v-172h-92v264h706v-88l-606 -815h533v168h94v-262h-760z" />
<glyph unicode="{" horiz-adv-x="485" d="M59 580v65q47 8 73 31.5t38 54.5t15 68t3 75v369q0 33 10.5 66.5t31 62.5t49 47.5t65.5 18.5h90v-88h-43q-49 0 -72.5 -38t-23.5 -98v-348q0 -39 -4 -78.5t-16.5 -74.5t-34 -60.5t-58.5 -38.5q76 -47 94.5 -105t18.5 -149v-487q0 -57 16.5 -95t71.5 -38h51v-90h-90 q-37 0 -65.5 18.5t-48 47t-31 63.5t-11.5 67v506q0 39 -3 76t-15 67.5t-38 53t-73 31.5z" />
<glyph unicode="|" horiz-adv-x="432" d="M166 -279v1706h82v-1706h-82z" />
<glyph unicode="}" horiz-adv-x="485" d="M51 -260h51q55 0 71.5 38t16.5 95v487q0 45 3.5 82t14.5 68t33.5 56.5t61.5 47.5q-37 12 -58.5 38t-33.5 61t-16.5 74.5t-4.5 78.5v348q0 59 -23.5 97.5t-72.5 38.5h-43v88h90q37 0 66 -18.5t49 -47.5t30.5 -62.5t10.5 -66.5v-369q0 -39 3 -75.5t15.5 -67.5t38 -54.5 t72.5 -31.5v-65q-47 -8 -72.5 -31t-38 -53.5t-15.5 -67.5t-3 -76v-506q0 -33 -11.5 -67.5t-30.5 -63t-48 -47t-66 -18.5h-90v90z" />
<glyph unicode="~" d="M160 569q31 66 88 110t131 44q45 0 100.5 -15.5t110.5 -34t106.5 -33.5t87.5 -15l142 98l53 -45q-29 -66 -86 -111t-133 -45q-59 0 -111.5 15.5t-101.5 33t-94 32.5t-86 15l-152 -96z" />
<glyph unicode="&#xa2;" d="M178 485q0 72 15.5 161t57.5 168t116.5 136.5t193.5 67.5v190h82v-190q72 -4 137.5 -18.5t116.5 -36.5v-242h-90v176q-47 14 -85 20.5t-79 8.5v-844q66 4 124 21.5t128 46.5l33 -74q-53 -31 -127 -54.5t-158 -29.5v-166h-82v164q-106 6 -180 45t-119 104.5t-64.5 153.5 t-19.5 192zM293 485q0 -80 12 -151.5t42 -125.5t82 -88t132 -40v842q-72 -10 -123 -46t-83.5 -93.5t-47 -133.5t-14.5 -164z" />
<glyph unicode="&#xa3;" d="M129 0v94q49 16 80 56t49 91.5t26.5 109t10.5 108.5l10 186h-143v92h147l10 234q4 80 26 152.5t66 127t113.5 86t167.5 31.5q86 0 173 -17.5t145 -45.5v-248h-99v178q-45 14 -102 25.5t-113 11.5q-80 0 -131 -23.5t-81.5 -65.5t-43 -98.5t-16.5 -121.5l-10 -226h407v-92 h-409l-11 -186q-2 -51 -8 -105.5t-18.5 -103.5t-31.5 -90t-48 -64h702v-96h-868z" />
<glyph unicode="&#xa5;" d="M33 1264v94h366v-94h-133l279 -572h8l285 572h-138v94h359v-94h-107l-321 -615h313v-71h-794v71h309l-316 615h-110zM150 397v78h794v-78h-344v-303h172v-94h-455v94h170v303h-337z" />
<glyph unicode="&#xa8;" horiz-adv-x="978" d="M203 1171q0 33 24.5 55.5t53.5 22.5q39 0 62.5 -21.5t23.5 -56.5t-23.5 -55t-58.5 -20t-58.5 20.5t-23.5 54.5zM575 1171q0 33 23 55.5t51 22.5q39 0 63.5 -21.5t24.5 -56.5t-24.5 -55t-63.5 -20q-33 0 -53.5 20.5t-20.5 54.5z" />
<glyph unicode="&#xa9;" horiz-adv-x="1687" d="M106 684q0 150 58.5 283t158 232t233.5 156.5t288 57.5q152 0 287 -57.5t236 -156.5t159.5 -232t58.5 -283q0 -152 -58.5 -285t-159.5 -232t-236 -156.5t-287 -57.5q-154 0 -288 57.5t-233.5 156.5t-158 232t-58.5 285zM178 684q0 -135 52.5 -255t143.5 -209t212 -141 t258 -52q139 0 260 52t211 141t142 209t52 255q0 137 -52 257t-142 209t-211 140t-260 51q-137 0 -258 -51t-212 -140t-143.5 -209t-52.5 -257zM434 668q0 78 18.5 171t66.5 174t132 135t213 54q88 0 150.5 -12t101.5 -29v-221h-76v158q-35 10 -81 17t-93 7 q-86 0 -150.5 -32.5t-105.5 -93t-61.5 -144.5t-20.5 -186q0 -86 13.5 -165t50.5 -138.5t103.5 -94.5t172.5 -35q20 0 51 2.5t65 6.5t67.5 10t62.5 16l19 -71q-47 -18 -126 -31.5t-149 -13.5q-115 0 -195.5 35.5t-131 103t-74 163t-23.5 214.5z" />
<glyph unicode="&#xab;" horiz-adv-x="829" d="M133 338v80l281 307l47 -39l-203 -309l205 -307l-45 -37zM399 338v80l281 307l47 -39l-203 -309l205 -307l-45 -37z" />
<glyph unicode="&#xad;" horiz-adv-x="724" d="M104 481v109h514v-109h-514z" />
<glyph unicode="&#xae;" horiz-adv-x="1163" d="M88 969q0 98 38 185t103.5 151.5t152.5 102.5t187 38q98 0 186.5 -38t155 -102.5t104.5 -151.5t38 -185t-38 -184.5t-104.5 -151t-155 -101t-186.5 -36.5q-100 0 -187 36.5t-152.5 101t-103.5 150.5t-38 185zM150 969q0 -84 33.5 -160t90 -132t133 -89t162.5 -33 q88 0 164 33t133.5 89t90 132t32.5 160q0 86 -32.5 162.5t-90 133t-133.5 89t-164 32.5q-86 0 -162.5 -32.5t-133 -89t-90 -133t-33.5 -162.5zM352 674v55h51v488h-51v55h240q78 0 130 -38t52 -126q0 -39 -26.5 -88t-88.5 -74l105 -215l61 -8v-45q-31 -10 -69 -10 q-23 0 -37 14t-21 29l-110 227h-115v-209h72v-55h-193zM473 993h121q43 0 78 22.5t35 90.5q0 61 -34 86t-79 25h-121v-224z" />
<glyph unicode="&#xb4;" horiz-adv-x="978" d="M406 1141l227 323l100 -82l-268 -284z" />
<glyph unicode="&#xb8;" horiz-adv-x="886" d="M303 -430q111 10 178.5 40t67.5 85q0 29 -19.5 45t-50 25.5t-68.5 13.5t-75 4l-23 35l195 252l57 -35l-131 -168q98 -4 160.5 -42t62.5 -116q0 -41 -21.5 -79t-65.5 -65.5t-110.5 -44t-156.5 -14.5v64z" />
<glyph unicode="&#xbb;" horiz-adv-x="829" d="M111 70l204 307l-202 309l47 39l280 -307v-80l-284 -305zM377 70l205 307l-203 309l47 39l281 -307v-80l-285 -305z" />
<glyph unicode="&#x2c6;" horiz-adv-x="978" d="M141 1135l305 284h80l308 -280l-39 -47l-310 202l-307 -204z" />
<glyph unicode="&#x2da;" horiz-adv-x="978" d="M287 1298q0 41 16 78t44 64.5t67 44t82 16.5t79.5 -16.5t64.5 -44t43 -64.5t15 -78q0 -86 -58 -143t-144 -57q-43 0 -82 15t-67 43t-44 64.5t-16 77.5zM360 1294q0 -57 37 -95t99 -38q57 0 93 38t36 95t-36 97.5t-93 40.5q-61 0 -98.5 -39t-37.5 -99z" />
<glyph unicode="&#x2dc;" horiz-adv-x="978" d="M172 1135q20 57 63.5 97t98.5 40q33 0 70.5 -12.5t73.5 -27.5t69 -27.5t57 -12.5l117 80l45 -37q-20 -57 -63.5 -97t-98.5 -40q-43 0 -81 12t-70.5 27.5t-62.5 28t-56 12.5l-117 -80z" />
<glyph unicode="&#x401;" d="M82 0v94h135v1211h-127v92h920v-275h-99v183h-577v-523l571 13v-111l-571 8v-598h608v182h102v-276h-962zM326 1565q0 33 24.5 55t52.5 22q39 0 62.5 -21.5t23.5 -55.5q0 -35 -23 -55.5t-58 -20.5t-58.5 20.5t-23.5 55.5zM698 1565q0 33 22.5 55t51.5 22q39 0 63.5 -21.5 t24.5 -55.5q0 -35 -24.5 -55.5t-63.5 -20.5q-33 0 -53.5 20.5t-20.5 55.5z" />
<glyph unicode="&#x402;" horiz-adv-x="1468" d="M53 1102v295h1145v-295h-100v203h-486v-535q104 45 202.5 64.5t174.5 19.5q104 0 179 -33t123 -89t70.5 -132t22.5 -160q0 -113 -31.5 -208t-85 -175t-123 -143.5t-145.5 -110.5l-41 62q137 102 223.5 239.5t86.5 317.5q0 172 -82 251t-228 79q-74 0 -165 -18.5 t-181 -55.5v-584h152v-94h-414v94h148v1211h-346v-203h-99z" />
<glyph unicode="&#x403;" horiz-adv-x="1050" d="M82 0v94h135v1211h-127v92h920v-275h-99v183h-577v-1211h198v-94h-450zM504 1532l227 323l100 -81l-268 -285z" />
<glyph unicode="&#x404;" horiz-adv-x="1116" d="M102 690q0 72 11.5 154t37 162.5t68.5 155.5t107.5 132.5t153.5 91t206 33.5t203 -16.5t143 -38.5v-295h-98v219q-47 14 -112.5 23.5t-131.5 9.5q-111 0 -194.5 -38t-141 -108.5t-90.5 -170t-41 -222.5l580 13v-111l-582 8v-6q0 -121 18.5 -229.5t69.5 -190.5t143.5 -131 t239.5 -49q29 0 70 2t86 8t92 15.5t90 23.5l25 -88q-33 -12 -79 -23.5t-96.5 -19.5t-103.5 -13t-98 -5q-156 0 -265.5 49t-178 141t-100.5 222t-32 292z" />
<glyph unicode="&#x405;" horiz-adv-x="1050" d="M72 92v252h98v-180q84 -43 161 -59.5t158 -16.5q88 0 158 14.5t118 48t73.5 90t25.5 140.5q0 72 -25.5 119t-70.5 77.5t-105.5 51t-130.5 39.5q-86 23 -164.5 49t-140 66t-97.5 100.5t-36 152.5q0 94 35 166t94.5 120t138 72.5t166.5 24.5q39 0 84 -3t92.5 -12 t93.5 -25.5t87 -41.5v-254h-101v193q-57 27 -127.5 36t-136.5 9q-135 0 -222 -70.5t-87 -216.5q0 -63 28.5 -106t74.5 -72t104.5 -47t118.5 -33q78 -20 156.5 -42.5t142 -64.5t103.5 -111t40 -179q0 -106 -39 -181t-104.5 -122t-152.5 -68.5t-185 -21.5q-111 0 -220.5 23.5 t-205.5 82.5z" />
<glyph unicode="&#x406;" horiz-adv-x="657" d="M143 0v94h125v1211h-125v94h371v-94h-129v-1211h129v-94h-371z" />
<glyph unicode="&#x407;" horiz-adv-x="657" d="M59 1565q0 33 25 55t53 22q39 0 62.5 -21.5t23.5 -55.5q0 -35 -23.5 -55.5t-58.5 -20.5t-58.5 20.5t-23.5 55.5zM143 0v94h125v1211h-125v94h371v-94h-129v-1211h129v-94h-371zM432 1565q0 33 22.5 55t51.5 22q39 0 63.5 -21.5t24.5 -55.5q0 -35 -24.5 -55.5t-63.5 -20.5 q-33 0 -53.5 20.5t-20.5 55.5z" />
<glyph unicode="&#x408;" horiz-adv-x="657" d="M-53 -279q88 49 150.5 98.5t103.5 108t60.5 128t19.5 161.5l2 1088h-168v94h440v-94h-154l-2 -1055q0 -125 -27.5 -219t-80.5 -166t-131 -125t-180 -96z" />
<glyph unicode="&#x409;" horiz-adv-x="1890" d="M20 47q117 37 186.5 123t106.5 221t47.5 318.5t10.5 416.5v177h-176v96h976v-94h-145v-496h350q117 0 199 -37t134 -95.5t75.5 -131t23.5 -146.5q0 -102 -31.5 -177t-87 -124t-130 -73.5t-158.5 -24.5h-631v94h139v1211l-428 -2v-152q0 -229 -12 -434t-56 -364.5 t-132 -263t-242 -130.5zM1026 94h369q61 0 115.5 18.5t95.5 56.5t64.5 95.5t23.5 134.5q0 84 -29 143.5t-75 98.5t-104.5 56.5t-117.5 17.5h-342v-621z" />
<glyph unicode="&#x40a;" horiz-adv-x="1908" d="M82 0v94h127v1211h-127v92h375v-92h-129v-500h600v500h-140v94h402v-94h-146v-496h351q117 0 198.5 -37t134 -95.5t76 -131t23.5 -146.5q0 -102 -32 -177t-87 -124t-130 -73.5t-159 -24.5h-631v94h140v619h-600v-619h129v-94h-375zM1044 94h369q61 0 115.5 18.5 t95.5 56.5t64.5 95.5t23.5 134.5q0 84 -28.5 143.5t-74.5 98.5t-104.5 56.5t-118.5 17.5h-342v-621z" />
<glyph unicode="&#x40b;" horiz-adv-x="1599" d="M61 1102v295h1147v-295h-100v203h-485v-531q102 39 198.5 58.5t182.5 19.5q166 0 271 -76t105 -229v-453h129v-94h-374v94h127v414q0 70 -20.5 116t-58.5 74.5t-91.5 41t-120.5 12.5q-90 0 -183.5 -22.5t-164.5 -55.5v-580h151v-94h-414v94h148v1211h-348v-203h-99z" />
<glyph unicode="&#x40c;" horiz-adv-x="1198" d="M82 0v94h125v1211h-125v94h371v-94h-129v-1211h129v-94h-371zM397 719v31l449 583q35 45 63.5 62.5t65.5 15.5q39 0 75.5 -9t71.5 -26l-10 -73l-178 -21l-422 -543l479 -633l187 -20v-74q-35 -12 -77 -20t-77 -8q-41 0 -71.5 15t-59.5 50zM545 1536l227 324l100 -82 l-268 -285z" />
<glyph unicode="&#x40e;" horiz-adv-x="1126" d="M10 1305v94h363v-94h-133l190 -506l139 -385h9l133 383l184 508h-137v94h356v-94h-106l-404 -1108q-41 -109 -92 -156t-141 -47q-16 0 -66.5 2t-146.5 31l20 84q49 -10 92 -17.5t78 -7.5q53 0 91 29.5t69 113.5l37 103h-53l-371 973h-111zM244 1702l84 57 q53 -72 113.5 -119t119.5 -47q18 0 45 4.5t63 19.5t79 45t96 83l45 -39q-86 -119 -171 -168t-163 -49q-51 0 -95 18.5t-83 49t-72 68.5t-61 77z" />
<glyph unicode="&#x40f;" horiz-adv-x="1359" d="M82 0v94h127v1211h-127v92h375v-92h-129v-1211h700v1211h-127v92h377v-92h-129v-1211h129v-94h-549v-336h-98v336h-549z" />
<glyph unicode="&#x410;" horiz-adv-x="1302" d="M41 0v94h119q98 315 208.5 653t211.5 654h147l424 -1307h113v-94h-383v94h145l-90 293h-567l-90 -293h151v-94h-389zM403 489h500l-203 648l-45 151h-4q0 -4 -2 -11t-7 -23.5t-14.5 -45t-23.5 -73.5q-27 -82 -75 -234.5t-126 -411.5z" />
<glyph unicode="&#x411;" horiz-adv-x="1191" d="M86 0v94h125v1211h-125v92h887v-275h-99v183h-546v-496h350q123 0 205 -34t133 -88t72.5 -123.5t21.5 -143.5q0 -102 -31.5 -180t-86 -131.5t-129.5 -81t-161 -27.5h-616zM328 94h372q61 0 114.5 21.5t93.5 63.5t63.5 102.5t23.5 138.5q0 84 -26.5 140t-71.5 91 t-104.5 49.5t-122.5 14.5h-342v-621z" />
<glyph unicode="&#x412;" horiz-adv-x="1202" d="M82 0v96h139v1209h-131v94h584q201 0 302 -99.5t101 -252.5q0 -37 -8 -81t-29.5 -87t-60.5 -82t-102 -66q68 -18 113.5 -57t74.5 -88t42 -103.5t13 -103.5q0 -86 -31.5 -155.5t-84 -120t-120 -77t-141.5 -26.5h-661zM338 96h360q84 0 142.5 24.5t95.5 64.5t53.5 93.5 t16.5 110.5q0 55 -19.5 107.5t-57.5 92.5t-96.5 64.5t-134.5 24.5h-360v-582zM338 774h321q147 0 225.5 72.5t78.5 189.5q0 57 -17.5 106.5t-54.5 85.5t-94.5 56.5t-137.5 20.5h-321v-531z" />
<glyph unicode="&#x413;" horiz-adv-x="1050" d="M82 0v94h135v1211h-127v92h920v-275h-99v183h-577v-1211h198v-94h-450z" />
<glyph unicode="&#x414;" horiz-adv-x="1386" d="M61 94h107q68 57 116 171t78.5 263.5t45 323.5t14.5 350v103h-135v92h985v-92h-129v-1211h135v-426h-98v332h-1020v-332h-99v426zM301 94h727v1211h-502v-105q0 -203 -12 -368.5t-40 -301t-70 -243t-103 -193.5z" />
<glyph unicode="&#x415;" d="M82 0v94h135v1211h-127v92h920v-275h-99v183h-577v-523l571 13v-111l-571 8v-598h608v182h102v-276h-962z" />
<glyph unicode="&#x416;" horiz-adv-x="1773" d="M25 12v74l184 20l434 623l-418 553l-172 21l-8 73q33 14 74 25.5t76 11.5q39 2 65.5 -13.5t48.5 -45.5l461 -613v-30l-457 -656q-31 -45 -66.5 -59t-72.5 -12q-35 0 -75 8t-74 20zM707 0v94h124v1211h-124v94h370v-94h-129v-1211h129v-94h-370zM1008 711v30l454 598 q29 37 54.5 55.5t64.5 16.5q35 0 77 -10t75 -25l-11 -73l-170 -21l-422 -549l439 -627l184 -20v-74q-35 -12 -75 -20t-74 -8q-47 -2 -77 11t-61 58z" />
<glyph unicode="&#x417;" horiz-adv-x="1118" d="M70 72l30 86q115 -33 207 -46.5t152 -13.5q217 0 327.5 84t110.5 244q0 70 -30.5 125t-83 93t-123 57.5t-152.5 19.5h-166v94h164q170 0 261 77t91 195q0 63 -24.5 108.5t-68.5 73t-104.5 40t-134.5 12.5q-84 0 -162.5 -16.5t-142.5 -44.5v-224h-98v295q74 39 183.5 63.5 t228.5 24.5q94 0 176 -17.5t141 -56t93 -101t34 -150.5q0 -96 -61.5 -185.5t-182.5 -128.5q59 -18 110.5 -48t89.5 -74t59.5 -101t21.5 -131q0 -109 -42 -190.5t-114 -135t-166 -80t-198 -26.5q-121 0 -229.5 18.5t-196.5 59.5z" />
<glyph unicode="&#x418;" horiz-adv-x="1392" d="M78 0v94h139v1211h-133v92h389v-92h-143v-990h4l741 930v60h-174v92h420v-92h-137v-1211h137v-94h-393v94h143v996h-6l-735 -934v-62h137v-94h-389z" />
<glyph unicode="&#x419;" horiz-adv-x="1392" d="M78 0v94h139v1211h-133v92h389v-92h-143v-990h4l741 930v60h-174v92h420v-92h-137v-1211h137v-94h-393v94h143v996h-6l-735 -934v-62h137v-94h-389zM383 1769l78 54q53 -72 116.5 -122t122.5 -50q18 0 45 4t63 19.5t79 45t96 82.5l45 -39q-86 -119 -171 -163t-163 -44 q-51 0 -95 18.5t-83 49.5t-71.5 69t-61.5 76z" />
<glyph unicode="&#x41a;" horiz-adv-x="1198" d="M82 0v94h125v1211h-125v94h371v-94h-129v-1211h129v-94h-371zM397 719v31l449 583q35 45 63.5 62.5t65.5 15.5q39 0 75.5 -9t71.5 -26l-10 -73l-178 -21l-422 -543l479 -633l187 -20v-74q-35 -12 -77 -20t-77 -8q-41 0 -71.5 15t-59.5 50z" />
<glyph unicode="&#x41b;" horiz-adv-x="1325" d="M20 47q117 37 186.5 123t106.5 221t47.5 318.5t10.5 416.5v177h-176v96h1028v-94h-129v-1209h129v-96h-373v96h125v1207h-494v-152q0 -229 -12 -434t-56 -364.5t-132 -263t-242 -130.5z" />
<glyph unicode="&#x41c;" horiz-adv-x="1689" d="M82 0v94h125v1211h-125v94h258l385 -871l115 -262h12l117 266l381 867h258v-94h-127v-1211h127v-94h-373v94h131v1094h-4l-100 -234l-363 -817h-113l-372 834l-95 217h-4l4 -1094h134v-94h-371z" />
<glyph unicode="&#x41d;" horiz-adv-x="1359" d="M82 0v96h127v1209h-127v94h373v-94h-129v-517h706v517h-127v94h373v-94h-129v-1209h129v-96h-373v96h127v592h-706v-592h129v-96h-373z" />
<glyph unicode="&#x41e;" horiz-adv-x="1327" d="M102 686q0 143 29 276.5t95.5 234.5t176 161.5t273.5 60.5q166 0 272.5 -61.5t168 -162.5t85 -232.5t23.5 -270.5q0 -152 -35 -280.5t-103.5 -223t-171 -148.5t-239.5 -54q-158 0 -267.5 49t-177 139t-98.5 220t-31 292zM221 682q0 -297 107.5 -448.5t347.5 -151.5 q111 0 191.5 48t134 130t79 192.5t25.5 233.5q0 106 -15.5 219t-61.5 206t-131 152.5t-222 59.5t-225.5 -55.5t-139.5 -145.5t-70.5 -204.5t-19.5 -235.5z" />
<glyph unicode="&#x41f;" horiz-adv-x="1386" d="M82 0v96h127v1202h-127v101h1196v-101h-129v-1202h129v-96h-377v96h127v1202h-700v-1202h129v-96h-375z" />
<glyph unicode="&#x420;" horiz-adv-x="1110" d="M82 0v94h129v1211h-129v94h553q84 0 159.5 -23.5t132 -73t89.5 -124t33 -174.5q0 -59 -17.5 -131t-61.5 -134.5t-122 -105.5t-197 -43h-323v-496h172v-94h-418zM328 684h317q51 0 103.5 15.5t92.5 51t65.5 96t25.5 150.5q0 78 -22.5 135.5t-62.5 96.5t-93.5 57.5 t-114.5 18.5h-311v-621z" />
<glyph unicode="&#x421;" horiz-adv-x="1116" d="M102 690q0 72 11.5 154t37 162.5t68.5 155.5t107.5 132.5t153.5 91t206 33.5t203 -16.5t143 -38.5v-295h-98v219q-47 14 -112.5 23.5t-131.5 9.5q-121 0 -210 -46t-146.5 -129t-85 -200t-27.5 -260q0 -121 18.5 -229.5t69.5 -190.5t143.5 -131t239.5 -49q29 0 70 2t86 8 t92 15.5t90 23.5l25 -88q-33 -12 -79 -23.5t-96.5 -19.5t-103.5 -13t-98 -5q-156 0 -265.5 49t-178 141t-100.5 222t-32 292z" />
<glyph unicode="&#x422;" horiz-adv-x="1060" d="M31 1102v297h997l2 -297h-100v203h-340v-1211h151v-94h-413v94h147v1211h-346v-203h-98z" />
<glyph unicode="&#x423;" horiz-adv-x="1126" d="M10 1305v94h363v-94h-133l190 -506l139 -385h9l133 383l184 508h-137v94h356v-94h-106l-404 -1108q-41 -109 -92 -156t-141 -47q-16 0 -66.5 2t-146.5 31l20 84q49 -10 92 -17.5t78 -7.5q53 0 91 29.5t69 113.5l37 103h-53l-371 973h-111z" />
<glyph unicode="&#x424;" horiz-adv-x="1564" d="M82 702q0 94 37 185.5t116.5 165t203.5 122t296 56.5v74h-145v94h409v-94h-147v-74q178 -6 299 -53.5t194.5 -120t105.5 -163.5t32 -185q0 -109 -44 -202t-126 -163t-199 -112t-262 -48v-88h147v-96h-409v96h145v88q-344 14 -498.5 148.5t-154.5 369.5zM193 698 q0 -207 138 -309t404 -115v865q-152 -8 -255 -47t-167.5 -99.5t-92 -137.5t-27.5 -157zM852 274q248 14 384 131t136 297q0 76 -25.5 152t-86 137.5t-160 101.5t-248.5 46v-865z" />
<glyph unicode="&#x425;" horiz-adv-x="1236" d="M41 0v96h123l387 633l-356 576h-123v94h391v-94h-144l302 -496l305 496h-150v94h398v-94h-123l-369 -586l385 -623h129v-96h-410v96h158l-334 543l-323 -543h166v-96h-412z" />
<glyph unicode="&#x426;" horiz-adv-x="1359" d="M80 0v94h127v1211h-127v92h375v-92h-129v-1211h700v1211h-127v92h377v-92h-129v-1211h127v-426h-98v332h-1096z" />
<glyph unicode="&#x427;" horiz-adv-x="1271" d="M61 1303v94h375v-94h-131v-392q0 -70 20.5 -115.5t58.5 -74.5t91 -41t121 -12q90 0 183 22.5t165 54.5v558h-125v94h371v-94h-131v-1209h131v-94h-371v94h125v551q-205 -78 -377 -78q-166 0 -271.5 76t-105.5 229v431h-129z" />
<glyph unicode="&#x428;" horiz-adv-x="1853" d="M82 0v94h127v1211h-127v92h375v-92h-129v-1211h542v1211h-127v92h377v-92h-129v-1211h531v1211h-127v92h377v-92h-130v-1211h130v-94h-1690z" />
<glyph unicode="&#x429;" horiz-adv-x="1853" d="M82 0v94h127v1211h-127v92h375v-92h-129v-1211h542v1211h-127v92h377v-92h-129v-1211h531v1211h-127v92h377v-92h-130v-1211h125v-426h-98v332h-1587z" />
<glyph unicode="&#x42a;" horiz-adv-x="1495" d="M31 1122v275h729v-92h-129v-496h350q117 0 199 -37t134 -95.5t75.5 -131t23.5 -146.5q0 -102 -31.5 -177t-87 -124t-130 -73.5t-158.5 -24.5h-631v94h139v1211h-385v-183h-98zM631 94h368q61 0 115.5 18.5t95.5 56.5t64.5 95.5t23.5 134.5q0 84 -28.5 143.5t-74.5 98.5 t-104.5 56.5t-117.5 17.5h-342v-621z" />
<glyph unicode="&#x42b;" horiz-adv-x="1683" d="M82 0v94h139v1211h-139v94h401v-94h-145v-496h350q117 0 199 -37t134 -95.5t75.5 -131t23.5 -146.5q0 -102 -31.5 -177t-87 -124t-130 -73.5t-158.5 -24.5h-631zM338 94h369q61 0 115.5 18.5t95 56.5t64.5 95.5t24 134.5q0 84 -29 143.5t-75 98.5t-104.5 56.5 t-117.5 17.5h-342v-621zM1221 0v94h125v1211h-125v92h370v-92h-129v-1211h129v-94h-370z" />
<glyph unicode="&#x42c;" horiz-adv-x="1212" d="M92 0v94h139v1211h-139v94h402v-94h-146v-496h350q117 0 199 -37t134 -95.5t75.5 -131t23.5 -146.5q0 -102 -31.5 -177t-87 -124t-130 -73.5t-158.5 -24.5h-631zM348 94h369q61 0 115.5 18.5t95.5 56.5t64.5 95.5t23.5 134.5q0 84 -29 143.5t-75 98.5t-104 56.5 t-118 17.5h-342v-621z" />
<glyph unicode="&#x42d;" horiz-adv-x="1118" d="M61 45l27 90q43 -14 89 -24.5t91 -16.5t85 -9t69 -3q143 0 238.5 52t152.5 137t81 194.5t24 224.5l-576 -8v111l576 -13q-2 123 -28 222.5t-79 170t-136 109.5t-198 39q-33 0 -71.5 -3t-75.5 -8t-71 -12.5t-56 -13.5v-219h-99v295q59 23 156.5 41t214.5 18 q180 0 289.5 -63.5t170 -163.5t81 -227t20.5 -252q0 -156 -33.5 -289t-107.5 -230.5t-189.5 -152.5t-277.5 -55q-47 0 -98 4t-100.5 12t-93.5 19.5t-75 23.5z" />
<glyph unicode="&#x42e;" horiz-adv-x="1808" d="M82 0v96h127v1209h-127v92h375v-92h-129v-517h299q8 127 39.5 242t96 201t166 137t249.5 51q166 0 268 -61.5t160.5 -162.5t79 -232.5t20.5 -270.5q0 -152 -32 -280.5t-96.5 -223t-163.5 -148.5t-236 -54q-158 0 -264.5 49t-171 139t-91 220t-26.5 292v2h-297v-592h129 v-96h-375zM743 682q0 -297 97.5 -448.5t337.5 -151.5q111 0 188.5 48t126.5 130t71.5 192.5t22.5 233.5q0 106 -12 219t-55 206t-124 152.5t-218 59.5t-222.5 -55.5t-132.5 -145.5t-63.5 -204.5t-16.5 -235.5z" />
<glyph unicode="&#x42f;" horiz-adv-x="1239" d="M20 10v68l146 18l268 543q-92 16 -149.5 56t-89 90.5t-43 107.5t-11.5 106q0 100 33 176t89 125.5t132 74t160 24.5h553v-94h-129v-1211h137v-94h-405v94h151v531h-317l-269 -549q-18 -41 -38.5 -65.5t-73.5 -24.5q-29 0 -71 7t-73 17zM258 999q0 -90 29.5 -144t76 -85 t99.5 -41t102 -10h297v586h-311q-61 0 -114.5 -18.5t-93.5 -56.5t-62.5 -95.5t-22.5 -135.5z" />
<glyph unicode="&#x430;" horiz-adv-x="978" d="M72 270q0 70 26.5 123t74.5 90t114.5 56.5t144.5 23.5l266 15v81q0 72 -11 120t-36.5 77t-69.5 41t-108 12q-145 0 -307 -57l-31 82q84 39 178.5 59.5t184.5 20.5q147 0 228 -73t81 -253v-594h143l8 -67q-35 -16 -77.5 -25.5t-71.5 -9.5q-53 0 -81 22.5t-30 98.5l-4 2 q-59 -49 -111.5 -76t-95.5 -38t-76.5 -13t-58.5 -2q-84 0 -138 28.5t-86 71.5t-44 92t-12 92zM193 279q0 -96 48 -146.5t156 -50.5q72 0 148 31.5t153 103.5v272l-280 -14q-113 -6 -169 -58t-56 -138z" />
<glyph unicode="&#x431;" horiz-adv-x="983" d="M82 465q0 119 2 203t5 140t7 89t8 53q33 162 127.5 271.5t278.5 179.5q33 12 72 27.5t77.5 32t76.5 32.5t69 29l41 -88q-76 -41 -151.5 -71t-112.5 -42q-102 -35 -172 -78t-114 -103.5t-68.5 -141t-34.5 -187.5h4q41 84 130 134t189 50q113 0 186.5 -41t117.5 -109.5 t62.5 -161.5t18.5 -198q0 -86 -18.5 -175t-66.5 -161.5t-130 -118.5t-209 -46q-121 0 -197.5 45t-120.5 114.5t-60.5 154.5t-16.5 167zM199 463q0 -66 10 -133.5t41 -122.5t89 -90t157 -35q88 0 145 36t89 92t44 126.5t12 142.5q0 76 -10 151t-40.5 134t-88 96t-149.5 37 q-86 -2 -144.5 -42t-92.5 -101.5t-48 -138t-14 -152.5z" />
<glyph unicode="&#x432;" horiz-adv-x="950" d="M66 0v90h106v817h-100v90h467q160 0 240.5 -70.5t80.5 -183.5q0 -53 -24.5 -112.5t-100.5 -104.5q47 -18 78 -47.5t48.5 -63.5t24.5 -70t7 -69q0 -61 -25.5 -112t-66.5 -88t-95.5 -56.5t-111.5 -19.5h-528zM283 90h266q63 0 107 16.5t72 44t40 62.5t12 72t-14 69.5 t-44 59t-73 42t-100 15.5h-266v-381zM283 565h254q96 0 152 48t56 122t-52 123t-173 49h-237v-342z" />
<glyph unicode="&#x433;" horiz-adv-x="829" d="M66 0v90h104v817h-98v90h725v-268h-90v178h-431v-817h152v-90h-362z" />
<glyph unicode="&#x434;" horiz-adv-x="1103" d="M61 90h84q59 43 93 130t50.5 193.5t21.5 219t5 205.5v69h-118v90h721v-907h90v-356h-93v266h-761v-266h-93v356zM285 90h522v817h-385v-71q0 -92 -5 -200t-19.5 -210t-41 -191.5t-71.5 -144.5z" />
<glyph unicode="&#x435;" horiz-adv-x="946" d="M82 496q0 39 5 93t20.5 112.5t43 114.5t73.5 101.5t113 73t159 27.5q96 0 161.5 -28.5t107.5 -73t64.5 -98.5t31.5 -106.5t10 -96.5t1 -68v-78h-675q0 -74 12 -144.5t46 -124t92.5 -86t148.5 -32.5q45 0 83.5 4t75.5 13.5t76 23.5t82 33l33 -76q-86 -47 -168 -68.5 t-180 -21.5q-127 0 -207 40t-127 108.5t-64.5 160.5t-17.5 197zM199 563h563q0 80 -13.5 145.5t-44 113.5t-81.5 74t-127 26q-80 0 -134.5 -30t-89 -80t-51 -114.5t-22.5 -134.5z" />
<glyph unicode="&#x436;" horiz-adv-x="1454" d="M41 16v62l154 14l321 426l-315 387l-133 15l-7 61q23 14 53.5 22.5t59.5 8.5t52.5 -9.5t52.5 -44.5l352 -432v-18l-355 -469q-27 -35 -53 -44t-55 -9t-67 8t-60 22zM532 0v90h138v815h-138v92h388v-92h-142v-815h148v-90h-394zM825 516v19l338 423q29 35 54.5 44.5 t54.5 9.5t59.5 -8.5t52.5 -22.5l-6 -61l-133 -15l-309 -379l326 -434l153 -14v-62q-23 -14 -60.5 -22t-66.5 -8t-55.5 9t-52.5 44z" />
<glyph unicode="&#x437;" horiz-adv-x="888" d="M51 57l31 76q78 -27 147.5 -42t145.5 -15q147 0 231 52t84 173q0 59 -25.5 96t-64.5 58.5t-84 30t-84 8.5h-164v94h140q39 0 84 7t81.5 25.5t61 52.5t24.5 89q0 74 -54 119t-173 45q-59 0 -123.5 -8.5t-128.5 -30.5v-182h-90v243q31 14 73 27.5t88 24t93 15.5t88 5 q150 0 243 -62.5t93 -181.5q0 -45 -15.5 -83t-40 -66.5t-56 -47t-62.5 -26.5v-6q86 -20 144.5 -84t58.5 -162q0 -86 -36 -145.5t-93.5 -97.5t-132 -55t-150.5 -17q-45 0 -93 6t-92 16t-83 22.5t-66 26.5z" />
<glyph unicode="&#x438;" horiz-adv-x="1120" d="M41 907v90h256v-809h8l105 166l411 643h107v-903h151v-67q-35 -16 -78 -25.5t-71 -9.5q-53 0 -81 22.5t-30 98.5v706h-6l-121 -192l-401 -627h-101v907h-149z" />
<glyph unicode="&#x439;" horiz-adv-x="1120" d="M41 907v90h256v-809h8l105 166l411 643h107v-903h151v-67q-35 -16 -78 -25.5t-71 -9.5q-53 0 -81 22.5t-30 98.5v706h-6l-121 -192l-401 -627h-101v907h-149zM227 1321l78 53q53 -72 116.5 -122t123.5 -50q18 0 44.5 4t62.5 19.5t79 45t96 83.5l45 -39 q-86 -119 -170.5 -163t-162.5 -44q-51 0 -95.5 18.5t-83 49t-71.5 68.5t-62 77z" />
<glyph unicode="&#x43a;" horiz-adv-x="985" d="M31 907v90h278v-907h146v-90h-402v90h148v817h-170zM348 516v19l357 423q29 35 54 44.5t54 9.5t59.5 -8.5t53.5 -22.5l-6 -61l-134 -9l-325 -383l346 -438l147 -14v-60q-23 -14 -59.5 -22t-65.5 -8t-54 9t-54 44z" />
<glyph unicode="&#x43b;" horiz-adv-x="1079" d="M37 59q86 35 136 90.5t75.5 143.5t32 213t6.5 301v100h-158v90h758v-907h131v-90h-369v90h129v817h-385v-82q0 -166 -6 -311t-38 -258t-98.5 -187.5t-184.5 -99.5z" />
<glyph unicode="&#x43c;" horiz-adv-x="1441" d="M47 907v90h272l293 -585l107 -222h2l102 224l277 583h256v-90h-144v-813h154v-67q-35 -16 -77 -25.5t-70 -9.5q-53 0 -80 22.5t-29 98.5v680h-8l-78 -172l-254 -535h-100l-264 520l-97 199h-6v-805h-102v907h-154z" />
<glyph unicode="&#x43d;" horiz-adv-x="1075" d="M25 907v90h247v-422h527v422h108v-903h152v-67q-35 -16 -78 -25.5t-72 -9.5q-53 0 -81.5 22.5t-28.5 98.5v370h-529v-483h-108v907h-137z" />
<glyph unicode="&#x43e;" horiz-adv-x="985" d="M82 492q0 96 21.5 190t71.5 169t130 121t197 46q119 0 196.5 -46t123.5 -120t63.5 -168t17.5 -188q0 -92 -18.5 -183.5t-66.5 -164t-130 -117.5t-209 -45q-117 0 -193.5 42t-121.5 112.5t-63.5 161.5t-18.5 190zM199 489q0 -80 11 -152.5t43 -129.5t91 -91t158 -34 q90 0 146.5 38t87 96t41.5 131t11 145q0 70 -10 145.5t-40.5 139t-87 104.5t-148.5 41t-150.5 -39t-92.5 -100.5t-47 -139.5t-13 -154z" />
<glyph unicode="&#x43f;" horiz-adv-x="1148" d="M53 905v92h1037v-92h-148v-811h152v-67q-35 -16 -78 -25.5t-72 -9.5q-53 0 -80.5 22.5t-29.5 98.5v792h-527v-905h-110v905h-144z" />
<glyph unicode="&#x440;" horiz-adv-x="1054" d="M20 907v90h281v-102q57 47 138 81t169 34q102 0 172 -40t113 -107.5t61.5 -158t18.5 -188.5q0 -115 -21.5 -213t-67.5 -170t-122 -114t-182 -42q-31 0 -67 4.5t-74 13.5t-73.5 24.5t-64.5 35.5v-391h176v-90h-450v90h161v1243h-168zM301 156q16 -12 47 -26.5t68 -27 t79 -19.5t78 -7q59 0 110.5 22.5t90.5 74.5t60.5 137t21.5 210q0 111 -18.5 185.5t-54 120.5t-86 65.5t-111.5 19.5q-35 0 -76 -10t-82 -26.5t-75 -37t-52 -38.5v-643z" />
<glyph unicode="&#x441;" horiz-adv-x="886" d="M82 485q0 76 17.5 169.5t64.5 174t130 136t216 55.5q82 0 157.5 -15.5t133.5 -41.5v-242h-90v176q-53 16 -98.5 22.5t-96.5 6.5q-84 0 -144.5 -34t-99.5 -92.5t-57 -139t-18 -175.5q0 -84 14 -157.5t48 -129t91.5 -87t145.5 -31.5q82 0 151.5 17.5t151.5 52.5l32 -74 q-59 -35 -147 -60.5t-186 -25.5q-117 0 -196 36.5t-128 102.5t-70.5 157t-21.5 199z" />
<glyph unicode="&#x442;" horiz-adv-x="870" d="M41 768v229h788v-229h-92v139h-248v-817h134v-90h-367v90h127v817h-250v-139h-92z" />
<glyph unicode="&#x443;" horiz-adv-x="1030" d="M33 905v92h188l213 -682l68 -227h10l74 223l194 594h-135v92h346v-92h-104l-377 -1141q-35 -111 -87 -156.5t-142 -45.5q-16 0 -66.5 2t-146.5 30l20 84q49 -10 92 -17t78 -7q53 0 92 29.5t68 113.5l65 203h-55l-293 905h-102z" />
<glyph unicode="&#x444;" horiz-adv-x="1280" d="M82 489q0 109 28.5 203t90 164t158 111t229.5 45v350h-164v90h266v-440q133 -2 229.5 -39t158 -102.5t91 -156.5t29.5 -200q0 -106 -25.5 -198.5t-86 -163t-158 -114.5t-238.5 -52v-320h184v-92h-448v92h162v320q-141 6 -237.5 46t-157 106.5t-86 155.5t-25.5 195z M190 496q0 -88 20.5 -164t67 -131.5t122 -88t188.5 -34.5v837q-117 -4 -194 -37.5t-122 -89t-63.5 -130t-18.5 -162.5zM690 78q113 4 188.5 38t123 91t68 133t20.5 164t-18.5 162.5t-63.5 129t-123 86t-195 33.5v-837z" />
<glyph unicode="&#x445;" horiz-adv-x="950" d="M20 0v90h130l260 434l-222 383h-155v90h221l233 -403l181 313h-86v90h331v-90h-131l-239 -403l256 -414h133v-90h-338v90h84l-209 348l-203 -348h111v-90h-357z" />
<glyph unicode="&#x446;" horiz-adv-x="1107" d="M61 905v92h232l2 -903h524v811h-98v92h313v-92h-106v-811h119v-360h-95v266h-886v94h120v811h-125z" />
<glyph unicode="&#x447;" horiz-adv-x="1095" d="M20 907v90h265l2 -264q0 -55 5 -100t23.5 -77t55.5 -49.5t102 -17.5q80 0 164 18.5t156 57.5v434h110v-913h148l4 -68q-35 -16 -78 -25t-72 -9q-53 0 -80.5 22.5t-29.5 97.5l-2 369q-76 -47 -169.5 -64.5t-166.5 -17.5q-104 0 -160.5 30t-83.5 76t-32 101t-5 104v205 h-156z" />
<glyph unicode="&#x448;" horiz-adv-x="1495" d="M61 905v92h234v-903h395v811h-98v92h313v-92h-106v-811h407v811h-98v92h313v-92h-106v-811h119v-94h-1368v94h120v811h-125z" />
<glyph unicode="&#x449;" horiz-adv-x="1495" d="M61 905v92h234v-903h395v811h-98v92h313v-92h-106v-811h407v811h-98v92h313v-92h-106v-811h119v-360h-95v266h-1273v94h120v811h-125z" />
<glyph unicode="&#x44a;" horiz-adv-x="1183" d="M29 729v268h487v-407h272q96 0 161 -26.5t103 -68.5t54 -95.5t16 -104.5q0 -72 -24.5 -127t-67.5 -92t-100.5 -56.5t-124.5 -19.5h-395v907h-289v-178h-92zM516 90h289q94 0 153.5 50t59.5 151q0 111 -67.5 159t-168.5 48h-266v-408z" />
<glyph unicode="&#x44b;" horiz-adv-x="1359" d="M39 907v90h264v-407h272q96 0 161 -26.5t103 -68.5t54 -95.5t16 -104.5q0 -72 -24.5 -127t-67.5 -92t-100.5 -56.5t-124.5 -19.5h-393v907h-160zM303 90h289q94 0 153.5 50t59.5 151q0 111 -67.5 159t-168.5 48h-266v-408zM930 907v90h227v-903h152v-67 q-35 -16 -78 -25.5t-72 -9.5q-53 0 -80.5 22.5t-29.5 98.5v794h-119z" />
<glyph unicode="&#x44c;" horiz-adv-x="970" d="M39 907v90h264v-407h272q96 0 161 -26.5t103 -68.5t54 -95.5t16 -104.5q0 -72 -24.5 -127t-67.5 -92t-100.5 -56.5t-124.5 -19.5h-393v907h-160zM303 90h289q94 0 153.5 50t59.5 151q0 111 -67.5 159t-168.5 48h-266v-408z" />
<glyph unicode="&#x44d;" horiz-adv-x="942" d="M61 76l33 74q82 -35 149.5 -52.5t149.5 -17.5q86 0 148.5 32.5t102.5 89t59.5 130.5t19.5 153l-457 -6v96l455 -10q-10 166 -85 263.5t-222 97.5q-51 0 -102.5 -6.5t-104.5 -22.5v-176h-90v242q57 27 137 42t162 15q129 0 210 -47t128 -120t65.5 -161t18.5 -172 q0 -109 -26 -205t-81 -168.5t-139 -114.5t-201 -42q-98 0 -184 25.5t-146 60.5z" />
<glyph unicode="&#x44e;" horiz-adv-x="1394" d="M41 907v90h262v-422h213q8 86 33.5 166t75 141.5t122.5 98.5t175 37q115 0 190.5 -46t119.5 -120t62.5 -168t18.5 -188q0 -92 -19.5 -183.5t-66.5 -164t-127 -117.5t-201 -45q-113 0 -187.5 41t-118.5 108.5t-62.5 156.5t-18.5 187h-209v-479h-106v907h-156zM629 489 q0 -80 9 -152.5t40 -129.5t88 -91t156 -34q86 0 139 38t84 96t42 131t11 145q0 70 -10 145.5t-41 139t-85 104.5t-140 41t-142.5 -39t-90.5 -100.5t-47 -139.5t-13 -154z" />
<glyph unicode="&#x44f;" horiz-adv-x="1003" d="M20 6v72l123 12q51 94 98.5 178t98.5 178q-68 12 -110 41t-66.5 66t-32.5 77t-8 75q0 74 25.5 129t70.5 92t103.5 54t126.5 17h442v-92h-100v-811h151v-67q-35 -16 -78 -25.5t-71 -9.5q-53 0 -81 22.5t-30 98.5v323h-236l-204 -381q-16 -27 -40 -48t-65 -21 q-25 0 -56.5 5t-60.5 15zM229 705q0 -57 22.5 -92t56.5 -54.5t74 -26t77 -6.5h223v381h-242q-92 0 -151.5 -50t-59.5 -152z" />
<glyph unicode="&#x451;" horiz-adv-x="946" d="M82 496q0 39 5 93t20.5 112.5t43 114.5t73.5 101.5t113 73t159 27.5q96 0 161.5 -28.5t107.5 -73t64.5 -98.5t31.5 -106.5t10 -96.5t1 -68v-78h-675q0 -74 12 -144.5t46 -124t92.5 -86t148.5 -32.5q45 0 83.5 4t75.5 13.5t76 23.5t82 33l33 -76q-86 -47 -168 -68.5 t-180 -21.5q-127 0 -207 40t-127 108.5t-64.5 160.5t-17.5 197zM199 563h563q0 80 -13.5 145.5t-44 113.5t-81.5 74t-127 26q-80 0 -134.5 -30t-89 -80t-51 -114.5t-22.5 -134.5zM238 1186q0 33 24.5 55.5t52.5 22.5q39 0 62.5 -21.5t23.5 -56.5t-23.5 -55.5t-58.5 -20.5 t-58 20.5t-23 55.5zM610 1186q0 33 22.5 55.5t51.5 22.5q39 0 63.5 -21.5t24.5 -56.5t-24.5 -55.5t-63.5 -20.5q-33 0 -53.5 20.5t-20.5 55.5z" />
<glyph unicode="&#x452;" horiz-adv-x="1042" d="M4 1362v90h283v-258h473v-80h-473v-254q92 41 170 61.5t151 20.5q80 0 143.5 -27.5t107.5 -88t67.5 -157t23.5 -235.5q0 -104 -18.5 -191t-64.5 -151.5t-122.5 -100.5t-191.5 -36h-21.5t-21.5 2l4 82q82 0 143.5 17.5t102.5 63.5t60.5 122.5t19.5 197.5q0 119 -17.5 198 t-51.5 124t-81 63.5t-104 18.5q-68 0 -151 -23.5t-148 -54.5v-766h-111v1114h-110v80h110v168h-172z" />
<glyph unicode="&#x453;" horiz-adv-x="829" d="M66 0v90h104v817h-98v90h725v-268h-90v178h-431v-817h152v-90h-362zM377 1141l227 323l101 -82l-269 -284z" />
<glyph unicode="&#x454;" horiz-adv-x="886" d="M82 485q0 76 17.5 169.5t64.5 174t130 136t216 55.5q82 0 157.5 -15.5t133.5 -41.5v-242h-90v176q-53 16 -98.5 22.5t-96.5 6.5q-78 0 -134 -28t-95 -78t-60.5 -118.5t-27.5 -150.5l454 10v-96l-456 6q0 -80 15 -151.5t49 -125t91.5 -84t143.5 -30.5q82 0 151.5 17.5 t151.5 52.5l32 -74q-59 -35 -147 -60.5t-186 -25.5q-117 0 -196 36.5t-128 102.5t-70.5 157t-21.5 199z" />
<glyph unicode="&#x455;" horiz-adv-x="835" d="M61 287h89l6 -158q49 -25 113.5 -37t117.5 -12q55 0 103.5 8t85 28.5t57 57.5t20.5 92q0 45 -19.5 76t-53 53.5t-76.5 39t-88 28.5q-61 16 -120.5 35.5t-107 50.5t-77 79t-29.5 122t28.5 125t75.5 82.5t107.5 46t126.5 14.5q70 0 142.5 -16.5t131.5 -55.5l6 -225h-90 l-6 168q-39 16 -89 25.5t-97 9.5q-94 0 -159.5 -38t-65.5 -141q0 -45 24.5 -74.5t60 -49t75.5 -30.5t71 -20q61 -16 121.5 -35.5t108.5 -52t77 -85t29 -134.5q0 -74 -31 -126t-81 -86t-116.5 -49t-138.5 -15q-90 0 -177 18.5t-148 61.5z" />
<glyph unicode="&#x456;" horiz-adv-x="546" d="M109 907v90h227v-903h151v-67q-35 -16 -77.5 -25.5t-71.5 -9.5q-53 0 -81 22.5t-30 98.5v794h-118zM195 1243q0 35 23.5 58.5t55.5 23.5q35 0 58.5 -23.5t23.5 -58.5q0 -33 -23.5 -56.5t-58.5 -23.5q-33 0 -56 23.5t-23 56.5z" />
<glyph unicode="&#x457;" horiz-adv-x="546" d="M-8 1171q0 33 24.5 55.5t53.5 22.5q39 0 62.5 -21.5t23.5 -56.5t-23.5 -55t-58.5 -20t-58.5 20.5t-23.5 54.5zM109 907v90h227v-903h151v-67q-35 -16 -77.5 -25.5t-71.5 -9.5q-53 0 -81 22.5t-30 98.5v794h-118zM365 1171q0 33 22.5 55.5t50.5 22.5q39 0 63.5 -21.5 t24.5 -56.5t-24.5 -55t-63.5 -20q-33 0 -53 20.5t-20 54.5z" />
<glyph unicode="&#x458;" horiz-adv-x="522" d="M-20 -360q74 41 119.5 76.5t72.5 75.5t37 87t10 109v919h-149v90h258v-985q0 -92 -13.5 -158.5t-49.5 -117.5t-96 -92t-155 -80zM186 1243q0 35 23.5 58.5t56.5 23.5q35 0 58.5 -23.5t23.5 -58.5q0 -33 -23.5 -56.5t-58.5 -23.5q-33 0 -56.5 23.5t-23.5 56.5z" />
<glyph unicode="&#x459;" horiz-adv-x="1501" d="M33 59q86 35 136 90.5t75.5 143.5t32 213t6.5 301v100h-158v90h709v-407h272q96 0 160.5 -26.5t102.5 -68.5t54.5 -95.5t16.5 -104.5q0 -72 -24.5 -127t-67.5 -92t-100.5 -56.5t-125.5 -19.5h-393v907h-340v-82q0 -166 -6 -311t-38 -258t-98.5 -187.5t-185.5 -99.5z M834 90h288q94 0 153.5 50t59.5 151q0 111 -67.5 159t-167.5 48h-266v-408z" />
<glyph unicode="&#x45a;" horiz-adv-x="1511" d="M41 907v90h246v-407h452v317h-159v90h264v-407h272q96 0 160.5 -26.5t102.5 -68.5t54.5 -95.5t16.5 -104.5q0 -72 -24.5 -127t-67.5 -92t-100.5 -56.5t-124.5 -19.5h-394v498h-452v-498h-107v907h-139zM844 90h289q94 0 153.5 50t59.5 151q0 111 -68 159t-168 48h-266 v-408z" />
<glyph unicode="&#x45b;" horiz-adv-x="1138" d="M41 1362v90h266v-258h473v-76h-473v-276q88 53 185.5 82.5t171.5 29.5q104 0 160.5 -30.5t82 -76.5t30.5 -100.5t5 -103.5v-549h152v-67q-35 -16 -78 -25.5t-72 -9.5q-53 0 -80.5 22.5t-29.5 98.5v499q0 55 -5.5 100.5t-24 77t-55 49t-102.5 17.5q-41 0 -85 -9t-89 -24.5 t-88 -35t-78 -37.5v-750h-110v1118h-111v76h111v168h-156z" />
<glyph unicode="&#x45c;" horiz-adv-x="985" d="M31 907v90h278v-907h146v-90h-402v90h148v817h-170zM348 516v19l357 423q29 35 54 44.5t54 9.5t59.5 -8.5t53.5 -22.5l-6 -61l-134 -9l-325 -383l346 -438l147 -14v-60q-23 -14 -59.5 -22t-65.5 -8t-54 9t-54 44zM399 1141l228 323l100 -82l-268 -284z" />
<glyph unicode="&#x45e;" horiz-adv-x="1030" d="M33 905v92h188l213 -682l68 -227h10l74 223l194 594h-135v92h346v-92h-104l-377 -1141q-35 -111 -87 -156.5t-142 -45.5q-16 0 -66.5 2t-146.5 30l20 84q49 -10 92 -17t78 -7q53 0 92 29.5t68 113.5l65 203h-55l-293 905h-102zM201 1321l78 53q53 -72 116.5 -122 t122.5 -50q18 0 45 4t63 19.5t79 45t96 83.5l45 -39q-86 -119 -171 -163t-163 -44q-51 0 -95 18.5t-83 49t-72 68.5t-61 77z" />
<glyph unicode="&#x45f;" horiz-adv-x="1107" d="M61 907v90h232l2 -907h524v817h-98v90h311v-90h-104v-817h116v-90h-442v-283h-96v283h-440v90h120v817h-125z" />
<glyph unicode="&#x490;" horiz-adv-x="1050" d="M82 0v94h135v1211h-127v92h821v264h99v-356h-676v-1211h198v-94h-450z" />
<glyph unicode="&#x491;" horiz-adv-x="829" d="M66 0v88h104v819h-98v90h635v211h90v-301h-521v-819h152v-88h-362z" />
<glyph unicode="&#x4d9;" horiz-adv-x="946" d="M94 461v78h676q0 74 -12.5 144.5t-46 123.5t-92 86t-148.5 33q-45 0 -84 -4t-76 -13.5t-75.5 -24t-81.5 -32.5l-33 76q86 47 168 68.5t180 21.5q125 0 206 -40t128 -108.5t64.5 -161t17.5 -196.5q0 -39 -5.5 -93t-20.5 -112.5t-43 -115t-74 -101.5t-112.5 -72.5 t-158.5 -27.5q-96 0 -161.5 28.5t-107.5 72.5t-64.5 98.5t-32 106.5t-10.5 96t-1 69zM205 444q0 -80 13 -145.5t44 -113.5t82 -73.5t127 -25.5q80 0 134 29.5t89 80t51.5 115t22.5 133.5h-563z" />
<glyph unicode="&#x2000;" horiz-adv-x="930" />
<glyph unicode="&#x2001;" horiz-adv-x="1860" />
<glyph unicode="&#x2002;" horiz-adv-x="930" />
<glyph unicode="&#x2003;" horiz-adv-x="1860" />
<glyph unicode="&#x2004;" horiz-adv-x="620" />
<glyph unicode="&#x2005;" horiz-adv-x="465" />
<glyph unicode="&#x2006;" horiz-adv-x="310" />
<glyph unicode="&#x2007;" horiz-adv-x="310" />
<glyph unicode="&#x2008;" horiz-adv-x="232" />
<glyph unicode="&#x2009;" horiz-adv-x="372" />
<glyph unicode="&#x200a;" horiz-adv-x="103" />
<glyph unicode="&#x2010;" horiz-adv-x="724" d="M104 481v109h514v-109h-514z" />
<glyph unicode="&#x2011;" horiz-adv-x="724" d="M104 481v109h514v-109h-514z" />
<glyph unicode="&#x2012;" horiz-adv-x="724" d="M104 481v109h514v-109h-514z" />
<glyph unicode="&#x2013;" horiz-adv-x="1024" d="M55 475v96h920v-96h-920z" />
<glyph unicode="&#x2014;" horiz-adv-x="2048" d="M55 475v96h1927v-96h-1927z" />
<glyph unicode="&#x2018;" horiz-adv-x="401" d="M109 1161q0 37 13 78t37.5 80t58.5 71.5t75 53.5l29 -37q-37 -35 -58.5 -79t-25.5 -97q29 -10 45 -33.5t16 -56.5q0 -35 -26.5 -62.5t-63.5 -27.5q-41 0 -70.5 29.5t-29.5 80.5z" />
<glyph unicode="&#x2019;" horiz-adv-x="401" d="M109 1087q37 35 58 79t26 98q-29 10 -45.5 33.5t-16.5 56.5q0 35 26.5 62.5t63.5 27.5q41 0 71 -30t30 -81q0 -37 -13.5 -78t-38 -79.5t-58.5 -71.5t-75 -53z" />
<glyph unicode="&#x201a;" horiz-adv-x="380" d="M76 -172q35 35 56.5 68.5t25.5 87.5q-29 10 -45.5 32.5t-16.5 53.5q0 35 27 61.5t63 26.5q41 0 69 -29t28 -78q0 -72 -49.5 -145.5t-129.5 -114.5z" />
<glyph unicode="&#x201c;" horiz-adv-x="626" d="M109 1161q0 37 13 78t37.5 80t58.5 71.5t75 53.5l29 -37q-37 -35 -58.5 -79t-25.5 -97q29 -10 45 -33.5t16 -56.5q0 -35 -26.5 -62.5t-63.5 -27.5q-41 0 -70.5 29.5t-29.5 80.5zM344 1161q0 37 13.5 78t38 80t58 71.5t74.5 53.5l29 -37q-37 -35 -58.5 -79t-25.5 -97 q29 -10 45.5 -33.5t16.5 -56.5q0 -35 -27 -62.5t-64 -27.5q-41 0 -70.5 29.5t-29.5 80.5z" />
<glyph unicode="&#x201d;" horiz-adv-x="626" d="M111 1087q37 35 58 79t26 98q-29 10 -45.5 33.5t-16.5 56.5q0 35 26.5 62.5t63.5 27.5q41 0 71 -30t30 -81q0 -37 -13.5 -78t-38 -79.5t-58.5 -71.5t-75 -53zM346 1087q37 35 58.5 79t25.5 98q-29 10 -45 33.5t-16 56.5q0 35 26.5 62.5t63.5 27.5q41 0 70.5 -30t29.5 -81 q0 -37 -13.5 -78t-38 -79.5t-58 -71.5t-74.5 -53z" />
<glyph unicode="&#x201e;" horiz-adv-x="600" d="M76 -172q35 35 56.5 68.5t25.5 87.5q-29 10 -45.5 32.5t-16.5 53.5q0 35 27 61.5t63 26.5q41 0 69 -29t28 -78q0 -72 -49.5 -145.5t-129.5 -114.5zM309 -172q35 35 56.5 68.5t25.5 87.5q-29 10 -45 32.5t-16 53.5q0 35 26.5 61.5t63.5 26.5q41 0 68.5 -29t27.5 -78 q0 -72 -49 -145.5t-129 -114.5z" />
<glyph unicode="&#x2026;" horiz-adv-x="1191" d="M90 70q0 35 25.5 60.5t62.5 25.5t62.5 -25.5t25.5 -60.5q0 -37 -25.5 -63.5t-60.5 -26.5q-37 0 -63.5 26.5t-26.5 63.5zM494 70q0 35 25.5 60.5t62.5 25.5t62.5 -25.5t25.5 -60.5q0 -37 -26 -63.5t-60 -26.5q-37 0 -63.5 26.5t-26.5 63.5zM928 70q0 35 25.5 60.5 t62.5 25.5t62.5 -25.5t25.5 -60.5q0 -37 -25.5 -63.5t-60.5 -26.5q-37 0 -63.5 26.5t-26.5 63.5z" />
<glyph unicode="&#x202f;" horiz-adv-x="372" />
<glyph unicode="&#x2039;" horiz-adv-x="614" d="M133 338v80l281 307l47 -39l-203 -309l205 -307l-45 -37z" />
<glyph unicode="&#x203a;" horiz-adv-x="614" d="M131 70l205 307l-203 309l47 39l281 -307v-80l-285 -305z" />
<glyph unicode="&#x205f;" horiz-adv-x="465" />
<glyph unicode="&#x20ac;" d="M70 559v76h843v-76h-639q6 -98 30 -185t74 -151.5t132 -102.5t205 -38q43 0 111.5 6t140.5 23v147h90v-213q-31 -12 -74 -23.5t-91 -18.5t-98.5 -12t-93.5 -5q-133 0 -231 41t-164.5 115.5t-101.5 180t-39 236.5h-94zM70 735v76h100q8 94 42 193.5t98.5 181.5t162.5 134 t236 52q109 0 189.5 -16.5t133.5 -36.5v-244h-92v170q-43 14 -104.5 23.5t-122.5 9.5q-98 0 -173 -33t-129.5 -94t-86 -147t-43.5 -193h632v-76h-843z" />
<glyph unicode="&#x2122;" horiz-adv-x="1458" d="M72 1231v168h510v-168h-64v100h-151v-520h88v-61h-260v61h84v520h-142v-100h-65zM639 748v63h72v518h-72v70h162l215 -459l223 459h158v-70h-72v-518h72v-63h-226v63h72v426h-4l-192 -385h-66l-186 373h-2v-414h73v-63h-227z" />
<glyph unicode="&#x25fc;" horiz-adv-x="993" d="M0 0v993h993v-993h-993z" />
</font>
</defs>
</svg>
