<?xml version="1.0" standalone="no"?>
<!DOCTYPE svg PUBLIC "-//W3C//DTD SVG 1.1//EN" "http://www.w3.org/Graphics/SVG/1.1/DTD/svg11.dtd" >
<svg xmlns="http://www.w3.org/2000/svg" xmlns:xlink="http://www.w3.org/1999/xlink" version="1.1">
<metadata></metadata>
<defs>
<font id="pf_agora_slab_problack" horiz-adv-x="1290" >
<font-face units-per-em="2048" ascent="1536" descent="-512" />
<missing-glyph horiz-adv-x="651" />
<glyph horiz-adv-x="0" />
<glyph horiz-adv-x="682" />
<glyph unicode=" "  horiz-adv-x="651" />
<glyph unicode="&#x09;" horiz-adv-x="651" />
<glyph unicode="&#xa0;" horiz-adv-x="651" />
<glyph unicode="!" horiz-adv-x="673" d="M150 147q0 74 52 127.5t136 53.5q86 0 137 -52.5t51 -128.5q0 -72 -51 -125t-137 -53q-88 0 -138 53.5t-50 124.5zM162 1460h352v-491l-35 -535h-280l-35 535z" />
<glyph unicode="&#x22;" horiz-adv-x="899" d="M115 1417h305l-47 -559h-215zM492 1417h303l-45 -559h-215z" />
<glyph unicode="#" horiz-adv-x="1292" d="M139 408l6 172h187l51 202h-172l2 170h211l92 367h197l-88 -367h178l92 367h195l-86 -367h155l-2 -170h-196l-52 -202h176l-2 -172h-211l-96 -410h-201l97 410h-178l-99 -410h-200l98 410h-154zM535 580h176l51 202h-178z" />
<glyph unicode="$" d="M139 973q0 170 99.5 278.5t273.5 132.5v146h92v-1688h-92v176q-90 8 -179 29t-173 59v347h207v-146q33 -16 68.5 -23.5t76.5 -11.5v328q-74 23 -141.5 52.5t-118.5 73.5t-82 104.5t-31 142.5zM428 1008q0 -43 21.5 -68t62.5 -41v227q-39 -14 -61.5 -42.5t-22.5 -75.5z M672 -158v1688h94v-146q76 -6 151.5 -24.5t137.5 -50.5v-334h-203v139q-37 14 -86 25v-318q70 -20 139.5 -49t125.5 -74t92 -108.5t36 -155.5q0 -174 -105.5 -278.5t-287.5 -132.5v-181h-94zM766 287q94 27 94 125q0 45 -24.5 71.5t-69.5 44.5v-241z" />
<glyph unicode="%" horiz-adv-x="2007" d="M57 956q0 86 20.5 163t66.5 135.5t122 92t187 33.5t185.5 -34.5t119.5 -93t63.5 -135.5t18.5 -161q0 -86 -20.5 -162.5t-66.5 -134t-121 -91t-181 -33.5q-111 0 -186 32.5t-121 90t-66.5 134t-20.5 164.5zM328 956q0 -104 23.5 -167.5t101.5 -63.5q70 0 94 66.5t24 164.5 q0 45 -4 87t-17 75t-37 52.5t-60 19.5q-41 0 -66 -20.5t-38 -53.5t-17 -75t-4 -85zM559 -39l682 1501h219l-684 -1501h-217zM1157 410q0 86 20.5 162.5t66.5 135t122 92.5t186 34q111 0 185.5 -35t120 -93.5t63.5 -134t18 -159.5q0 -86 -20.5 -164t-66.5 -135.5t-120.5 -91 t-181.5 -33.5q-111 0 -185.5 33.5t-120.5 91t-66.5 134.5t-20.5 163zM1427 410q0 -104 24 -168t101 -64q35 0 58.5 18.5t37 49t18.5 73t5 91.5q0 45 -4 87t-17.5 74.5t-37 53t-60.5 20.5q-41 0 -65.5 -20.5t-37.5 -54t-17.5 -75.5t-4.5 -85z" />
<glyph unicode="&#x26;" horiz-adv-x="1724" d="M125 387q0 119 70.5 233.5t238.5 200.5q-49 66 -71.5 135.5t-22.5 135.5q0 45 16.5 101t57.5 106.5t113.5 85t183.5 34.5q121 0 196.5 -35.5t118.5 -86t58.5 -102.5t15.5 -85q0 -61 -25.5 -114.5t-65.5 -98.5t-89.5 -81t-94.5 -62q37 -45 76 -92.5t82 -96.5 q35 -37 66.5 -72.5t66.5 -70.5q41 41 73 94t46 109h-113v227h533v-227h-121q-23 -98 -78 -195.5t-141 -185.5q66 -53 142.5 -104.5t141.5 -82.5l-124 -209q-43 18 -92.5 44t-98.5 57t-97 64.5t-89 68.5q-94 -59 -208 -89t-239 -30q-111 0 -207 26.5t-166.5 81t-111.5 133.5 t-41 183zM457 412q0 -96 68.5 -147.5t172.5 -51.5q98 0 195 51q-35 35 -65.5 71t-63.5 71q-47 53 -91 104t-85 102q-55 -35 -93 -85t-38 -115zM629 1106q0 -33 17.5 -77t47.5 -87q25 14 50.5 30.5t47 38t35 46t13.5 53.5q0 47 -31 73.5t-80 26.5t-74.5 -33.5t-25.5 -70.5z " />
<glyph unicode="'" horiz-adv-x="567" d="M127 1417h305l-45 -559h-217z" />
<glyph unicode="(" horiz-adv-x="759" d="M131 563q0 131 28.5 257t80 241t119 215t147.5 182l168 -104q-29 -41 -68 -109.5t-73.5 -166t-59 -223.5t-24.5 -280q0 -170 24.5 -303t59 -232t73.5 -167t68 -104l-164 -111q-80 82 -149.5 182.5t-121 216t-80 242.5t-28.5 264z" />
<glyph unicode=")" horiz-adv-x="761" d="M88 1354l170 106q78 -82 146.5 -182t118.5 -215t79 -241t29 -257q0 -137 -29 -265t-80 -242.5t-120.5 -215t-149.5 -182.5l-162 109q27 37 66 105.5t73.5 167.5t59 232.5t24.5 303.5q0 154 -24.5 279.5t-59 223t-73.5 166t-68 107.5z" />
<glyph unicode="*" horiz-adv-x="917" d="M84 1069q16 66 35.5 127t42.5 123q55 -35 111.5 -65.5t111.5 -63.5l-51 246q35 2 66.5 2h66.5h65.5t63.5 -2q-14 -61 -25.5 -123t-25.5 -121q55 29 111.5 61.5t113.5 63.5q27 -61 44 -122.5t34 -125.5q-66 -10 -128.5 -18.5t-127.5 -16.5l184 -170q-96 -78 -205 -149 q-29 57 -54 114.5t-52 114.5q-27 -57 -53.5 -113.5t-53.5 -115.5q-55 35 -106 71.5t-102 77.5q47 43 94 87t92 87z" />
<glyph unicode="+" d="M227 520v211h336v346h217v-346h336v-211h-336v-354h-217v354h-336z" />
<glyph unicode="," horiz-adv-x="624" d="M106 -209q61 53 93 106.5t43 118.5q-72 8 -102.5 52t-30.5 110q0 37 14 70t40.5 57.5t63.5 38.5t82 14q53 0 91 -19.5t62.5 -51t36 -71.5t11.5 -83q0 -68 -23.5 -136.5t-64.5 -130t-97.5 -113.5t-121.5 -87z" />
<glyph unicode="-" horiz-adv-x="849" d="M131 430v256h588v-256h-588z" />
<glyph unicode="." horiz-adv-x="624" d="M117 170q0 41 15 77t42 61.5t62.5 41t74.5 15.5t75 -15.5t62.5 -41t42 -61.5t15.5 -77t-15.5 -76t-42 -61.5t-61.5 -42t-74 -15.5q-41 0 -75.5 15.5t-62.5 42t-43 61.5t-15 76z" />
<glyph unicode="/" horiz-adv-x="823" d="M6 -76l535 1532h272l-534 -1532h-273z" />
<glyph unicode="0" d="M47 682q0 141 31 269t100.5 225.5t184 155t284.5 57.5q168 0 281.5 -58.5t183.5 -156t98.5 -225.5t28.5 -265q0 -145 -31.5 -272t-101.5 -223.5t-183.5 -151.5t-275.5 -55q-170 0 -284.5 55t-185.5 150.5t-100.5 222.5t-29.5 272zM436 682q0 -94 9.5 -173t32 -136.5 t63.5 -90t106 -32.5q61 0 100 33.5t61.5 93t32 137.5t9.5 168q0 82 -7 160t-28.5 139t-61.5 99t-106 38q-68 0 -108.5 -39t-63 -101.5t-31 -140t-8.5 -155.5z" />
<glyph unicode="1" d="M131 1243l379 129h336v-1130h289v-242h-959v242h285v825q-23 -2 -63 -7t-84 -9t-84 -8.5t-62 -6.5z" />
<glyph unicode="2" d="M78 0v217q111 86 226.5 179t210.5 187.5t155.5 184.5t60.5 172q0 72 -40 114t-148 42q-55 0 -144.5 -22.5t-193.5 -82.5q-6 10 -22.5 44t-35 73t-34 71.5t-21.5 43.5q131 86 263 124.5t255 38.5q240 0 375 -112.5t135 -312.5q0 -104 -50 -203t-128 -190t-170 -172 t-176 -148v-6h69t87 -1t87 -1h68v133h273v-373h-1102z" />
<glyph unicode="3" d="M102 84l84 242q117 -37 198 -50.5t151 -13.5q123 0 189.5 51.5t66.5 139.5q0 37 -12.5 70.5t-43 58t-84 39t-135.5 14.5q-37 0 -86 -6l-37 176q16 16 64.5 62t102.5 98.5t103.5 98.5t65.5 62h-291v-131h-270v377h950l43 -201l-346 -331q174 -27 271.5 -123t97.5 -264 q0 -119 -45 -208t-124 -148.5t-186.5 -89.5t-232.5 -30q-41 0 -100.5 4.5t-128 16.5t-138 32.5t-127.5 53.5z" />
<glyph unicode="4" d="M57 389v209q16 23 60.5 82t103 138t123 167t121.5 166t101 138.5t61 82.5h411v-739h201v-244h-201v-147h127v-242h-616v242h115v147h-607zM395 633h271l-2 348h-11z" />
<glyph unicode="5" d="M104 86l89 254q117 -39 197.5 -53.5t150.5 -14.5q113 0 184.5 47.5t71.5 145.5t-70 142t-174 44q-86 0 -199 -45l-178 84l60 682h874v-362h-281v116h-294l-21 -239q31 10 65.5 15t77.5 5q117 0 214.5 -28.5t167 -85t108.5 -139.5t39 -191q0 -119 -45 -209t-124 -151.5 t-185.5 -92t-231.5 -30.5q-39 0 -99.5 4t-130 16t-139 32.5t-127.5 53.5z" />
<glyph unicode="6" d="M86 610q0 158 34 299.5t110.5 247t201.5 166.5t309 61q106 0 185.5 -14t132.5 -31l-49 -254q-76 20 -137.5 26.5t-102.5 6.5q-80 0 -135 -28.5t-91 -72.5t-54.5 -99.5t-24.5 -108.5l10 -8q78 41 152.5 57t140.5 16q84 0 161 -26.5t136 -79.5t95 -133t36 -186 q0 -115 -40 -203t-111.5 -146.5t-170 -88t-215.5 -29.5q-156 0 -264 47t-176.5 131t-100.5 199.5t-32 250.5zM471 526q0 -49 8 -97t28.5 -86t57.5 -62.5t94 -24.5q78 0 124 51t46 139q0 37 -7 70t-25.5 57.5t-50 39t-80.5 14.5q-68 0 -117 -24.5t-78 -41.5v-35z" />
<glyph unicode="7" d="M168 944v426h975v-227l-529 -1143h-368l514 1126h-309v-182h-283z" />
<glyph unicode="8" d="M74 377q0 43 11 91t38 98t70 97.5t108 88.5q-78 51 -117 110.5t-39 151.5q0 82 38 152.5t105.5 120.5t160 79t202.5 29q86 0 175 -19.5t163 -64.5t121 -116t47 -171q0 -66 -35 -147.5t-135 -159.5q98 -51 155.5 -132t57.5 -198q0 -86 -41 -160.5t-114.5 -128t-178 -84 t-233.5 -30.5q-262 0 -410.5 104.5t-148.5 288.5zM455 408q0 -59 45 -104.5t137 -45.5q45 0 80 14.5t57.5 36t33.5 48t11 53.5q2 61 -52 107t-196 99q-70 -53 -93 -105t-23 -103zM496 1008q0 -33 17 -56.5t47 -43t70 -37t85 -37.5q59 49 80.5 90t21.5 80q0 49 -39 91 t-129 42q-39 0 -67.5 -13.5t-48 -33t-28.5 -42t-9 -40.5z" />
<glyph unicode="9" d="M80 920q0 115 42 202.5t114.5 146t172 88t216.5 29.5q156 0 263 -47t174.5 -131t97.5 -199.5t30 -250.5q0 -158 -34 -299.5t-110.5 -247t-201.5 -166.5t-309 -61q-106 0 -185.5 14t-132.5 31l49 254q76 -20 137.5 -26.5t102.5 -6.5q80 0 135 28.5t91 72.5t54.5 99.5 t24.5 108.5l-10 8q-78 -41 -153 -57t-140 -16q-84 0 -161 26.5t-136 79.5t-95 133t-36 187zM446 922q0 -37 7.5 -70t26 -57.5t50 -39t80.5 -14.5q68 0 117 25t78 41v35q0 49 -8.5 97t-28.5 86t-57 62.5t-95 24.5q-78 0 -124 -51t-46 -139z" />
<glyph unicode=":" horiz-adv-x="622" d="M117 170q0 41 15 77t42 61.5t62.5 41t74.5 15.5t75 -15.5t62.5 -41t42 -61.5t15.5 -77t-15.5 -76t-42 -61.5t-61.5 -42t-74 -15.5q-41 0 -75.5 15.5t-62.5 42t-43 61.5t-15 76zM117 752q0 39 15 74.5t42 62t62.5 42t74.5 15.5t75 -15.5t62.5 -42t42 -62t15.5 -74.5 q0 -41 -15.5 -77t-42 -62.5t-61.5 -41t-74 -14.5q-41 0 -75.5 14.5t-62.5 41t-43 62.5t-15 77z" />
<glyph unicode=";" horiz-adv-x="622" d="M109 -209q61 53 92.5 106.5t42.5 118.5q-72 8 -102.5 52t-30.5 110q0 37 14 70t39.5 57.5t62.5 38.5t82 14q55 0 93 -19.5t62.5 -51t36 -71.5t11.5 -83q0 -68 -23.5 -136.5t-65.5 -130t-98.5 -113.5t-121.5 -87zM117 752q0 39 15 74.5t42 62t62.5 42t74.5 15.5t75 -15.5 t62.5 -42t42 -62t15.5 -74.5q0 -41 -15.5 -77t-42 -62.5t-61.5 -41t-74 -14.5q-41 0 -75.5 14.5t-62.5 41t-43 62.5t-15 77z" />
<glyph unicode="&#x3c;" d="M156 526v172l987 473v-245l-690 -312l690 -313v-244z" />
<glyph unicode="=" d="M193 334v203h905v-203h-905zM193 688v207h905v-207h-905z" />
<glyph unicode="&#x3e;" d="M158 57v244l692 313l-692 312v245l987 -473v-172z" />
<glyph unicode="?" horiz-adv-x="1107" d="M94 1016v360q137 51 259 68.5t214 17.5q236 0 356.5 -103.5t120.5 -268.5q0 -72 -28.5 -131.5t-72.5 -110.5t-95 -96t-95 -90.5t-73 -91.5t-29 -99q0 -10 1 -29.5t3 -35.5h-59t-96 -1.5t-95.5 -2.5t-58.5 -1q-2 10 -4 29t-3 38t-1 35.5v22.5q0 102 47 175t104.5 131.5 t104.5 110.5t47 114q0 59 -43 93t-121 34q-29 0 -60.5 -4t-62.5 -11l-2 -153h-258zM340 143q0 37 14.5 69t39 55.5t58 37.5t72.5 14q78 0 132.5 -51t54.5 -125q0 -70 -53.5 -121t-131.5 -51q-39 0 -72.5 14.5t-59 38t-40 54.5t-14.5 65z" />
<glyph unicode="@" horiz-adv-x="1964" d="M174 688q0 166 63.5 307.5t176 243.5t267.5 160.5t335 58.5q178 0 319.5 -50t238.5 -141t149.5 -219t52.5 -286q0 -104 -35 -185t-91.5 -138.5t-131 -87t-154.5 -29.5q-45 0 -90 8t-83 25.5t-66.5 45t-41.5 66.5q-51 -59 -121.5 -88t-127.5 -29q-72 0 -116 22.5 t-68.5 54.5t-34 70t-9.5 68q0 61 24.5 100.5t79 64t138.5 38.5t203 27v24q0 53 -19.5 76t-91.5 23q-51 0 -104.5 -8.5t-102.5 -20.5l-37 158q66 27 145 42t160 15q63 0 119 -12.5t96.5 -41t64.5 -75.5t24 -117v-285q0 -18 18 -42.5t63 -24.5q49 0 86 19.5t60.5 52t35 75.5 t11.5 92q0 119 -35 216.5t-105.5 167t-176 108.5t-246.5 39q-152 0 -271.5 -45t-202.5 -123t-127 -184.5t-44 -229.5q0 -127 37.5 -233.5t113.5 -184t187.5 -121.5t257.5 -44q55 0 129.5 10t169.5 39l53 -158q-39 -20 -84 -33.5t-92 -21.5t-93 -12.5t-85 -4.5 q-190 0 -337 57.5t-248 159t-153.5 239.5t-52.5 302zM879 600q0 -39 16 -60.5t57 -21.5q51 0 99 41v127q-33 -4 -64 -8t-55.5 -12.5t-38.5 -23.5t-14 -42z" />
<glyph unicode="A" horiz-adv-x="1626" d="M41 0v248h111l430 1165h485l406 -1165h112v-248h-627v248h119l-45 145h-465l-47 -145h125v-248h-604zM649 629h309q-35 123 -71.5 239.5t-73.5 239.5h-8q-10 -37 -28.5 -95.5t-41 -125t-45 -135t-41.5 -123.5z" />
<glyph unicode="B" horiz-adv-x="1519" d="M88 0v250h152v913h-148v250h836q236 0 350.5 -104.5t114.5 -280.5q0 -25 -7.5 -62.5t-26 -77.5t-51 -78t-83.5 -65v-4q63 -27 105 -67.5t64.5 -86.5t32 -93.5t9.5 -83.5q0 -94 -35 -170t-98.5 -129.5t-153.5 -82t-199 -28.5h-862zM635 250h203q92 0 137 51t45 125 t-44 127t-138 53h-203v-356zM635 840h182q80 0 124 46t44 118t-41 115.5t-127 43.5h-182v-323z" />
<glyph unicode="C" horiz-adv-x="1368" d="M102 707q0 133 31 265t113 237.5t225 171t371 65.5q111 0 207 -15.5t184 -41.5v-455h-272v207q-29 6 -56.5 8t-56.5 2q-92 0 -154.5 -30.5t-100.5 -87t-55.5 -137.5t-17.5 -179q0 -127 23.5 -210t72 -132t122 -68.5t173.5 -19.5q25 0 64 3t84 8t92 12t84 18l57 -271 q-49 -18 -108.5 -33.5t-122 -25.5t-126 -15.5t-120.5 -5.5q-215 0 -353 59.5t-218 161t-111 232.5t-31 277z" />
<glyph unicode="D" horiz-adv-x="1605" d="M90 0v250h154v913h-144v252h734q199 0 328.5 -56t205.5 -152.5t105.5 -224.5t29.5 -271q0 -141 -33.5 -269.5t-113.5 -226.5t-209 -156.5t-320 -58.5h-737zM641 250h145q63 0 117.5 27.5t94.5 84t62.5 142.5t22.5 201q0 238 -81.5 348t-221.5 110h-139v-913z" />
<glyph unicode="E" horiz-adv-x="1460" d="M90 0v252h148v911h-146v250h1272v-485h-270v235h-461v-321l434 16v-260l-434 12v-358h481v252h272v-504h-1296z" />
<glyph unicode="F" horiz-adv-x="1437" d="M90 0v250h150v913h-148v250h1276v-485h-272v235h-461v-348l432 14v-258l-432 13v-334h188v-250h-733z" />
<glyph unicode="G" horiz-adv-x="1509" d="M102 707q0 129 31 261t115 238.5t231.5 173t380.5 66.5q111 0 220.5 -15.5t197.5 -41.5v-443h-272v193q-29 6 -64 10t-65 4q-96 0 -164 -31.5t-111 -88t-62.5 -137.5t-19.5 -179q0 -229 74 -332.5t237 -103.5q35 0 75 4t75 12v235h-152v228h605v-228h-99v-471 q-129 -47 -266 -65.5t-254 -18.5q-215 0 -353 61.5t-218 163t-111 232.5t-31 273z" />
<glyph unicode="H" horiz-adv-x="1753" d="M90 0v250h152v913h-152v250h674v-250h-129v-319h485v319h-129v250h672v-250h-147v-913h147v-250h-672v250h129v360h-485v-360h129v-250h-674z" />
<glyph unicode="I" horiz-adv-x="972" d="M143 0v250h148v913h-148v252h686v-252h-143v-913h143v-250h-686z" />
<glyph unicode="J" horiz-adv-x="1034" d="M-33 -104q117 47 191.5 93t119 100t61.5 124t17 164v786l-194 2v250h753v-252h-165v-788q0 -317 -175.5 -507t-515.5 -249z" />
<glyph unicode="K" horiz-adv-x="1611" d="M90 0v250h150v915h-150v246h668v-246h-135v-338l385 338h-109v246h633v-246h-131l-357 -303l414 -610h115v-252h-664l-2 252h109l-256 381l-137 -119v-264h125v-250h-658z" />
<glyph unicode="L" horiz-adv-x="1406" d="M90 0v250h152v913h-150v250h692v-250h-147v-913h465v266h272v-516h-1284z" />
<glyph unicode="M" horiz-adv-x="2136" d="M80 0v248h151v915h-151v250h651q66 -147 136.5 -304t136.5 -308q39 -84 65 -150h8q16 35 29.5 69t28.5 66q25 55 59.5 137.5t71.5 171.5t72.5 174t60.5 144h651v-250h-131v-915h131v-248h-633v248h117v676h-6q-16 -39 -32.5 -78t-33.5 -80q-25 -57 -54.5 -127t-59 -140.5 t-58 -136t-49.5 -116.5h-328q-68 141 -129 276t-127 279q-12 31 -26.5 61.5t-26.5 61.5h-6v-676h129v-248h-647z" />
<glyph unicode="N" horiz-adv-x="1802" d="M86 0v248h143v915h-141v250h563q63 -100 119.5 -189t112 -176t111 -176.5t114.5 -187.5q23 -35 44.5 -70.5t43.5 -72.5h10v622h-137v250h641v-250h-137v-1163h-387l-326 502l-174 274l-90 146q-2 0 -2 -1t-2 -1v-672h139v-248h-645z" />
<glyph unicode="O" horiz-adv-x="1624" d="M102 709q0 156 43 290t131.5 233t222.5 155.5t316 56.5t315.5 -56.5t220.5 -155.5t129 -233t42 -288q0 -158 -45 -292t-133.5 -232.5t-221.5 -154t-307 -55.5q-182 0 -315 54.5t-222.5 151t-132.5 231.5t-43 295zM520 709q0 -109 15.5 -194t50.5 -143.5t91 -90t138 -31.5 q78 0 132 33.5t88 94t49.5 145t15.5 186.5q0 94 -12.5 177t-45 146.5t-87 100t-140.5 36.5t-143.5 -37.5t-91 -101t-47 -146.5t-13.5 -175z" />
<glyph unicode="P" horiz-adv-x="1402" d="M90 0v250h143v913h-143v252h739q139 0 238.5 -33.5t162 -93t91.5 -141.5t29 -180q0 -86 -30 -166t-90.5 -143.5t-152.5 -101.5t-217 -38h-231v-268h186v-250h-725zM629 760h125q86 0 133 50t47 146q0 106 -49 156.5t-142 50.5h-114v-403z" />
<glyph unicode="Q" horiz-adv-x="1634" d="M102 707q0 156 42 289.5t130 233t221.5 156t315.5 56.5q184 0 317.5 -56.5t219.5 -156t128 -233t42 -287.5q0 -205 -72 -366t-215 -253l311 -82q-27 -72 -53.5 -141.5t-54.5 -140.5l-627 219q-47 12 -91 24.5t-85 26.5q-135 27 -234.5 88t-165 153.5t-97.5 211t-32 258.5 zM518 707q0 -109 15.5 -194t50 -143.5t90 -90t137.5 -31.5q78 0 133 33.5t89 94t49.5 145t15.5 186.5q0 94 -12.5 177t-44 146.5t-88 100t-142.5 36.5t-142.5 -37.5t-90 -101t-47 -146.5t-13.5 -175z" />
<glyph unicode="R" horiz-adv-x="1531" d="M98 0v252h138v911h-138v252h781q141 0 236 -34.5t153.5 -95t84 -138.5t25.5 -164q0 -49 -12 -101.5t-40 -101.5t-70 -90t-103 -65l182 -383l166 -23v-213q-31 -10 -67.5 -18t-71.5 -13.5t-66.5 -7.5t-52.5 -2q-109 0 -164 46t-96 139l-178 407h-180v-305h137v-252h-664z M625 795h139q39 0 74.5 9t62.5 31.5t42 60.5t15 93q0 92 -51 133t-129 41h-153v-368z" />
<glyph unicode="S" horiz-adv-x="1376" d="M100 989q0 209 148.5 327t441.5 118q57 0 122 -5.5t129.5 -16.5t125.5 -29.5t115 -43.5q0 -90 1 -178t1 -178h-273q0 37 -1 74t-1 71q-41 16 -99 24.5t-97 8.5q-109 0 -154 -39t-45 -90q0 -35 24.5 -61.5t65.5 -47t93.5 -38t107.5 -33.5q104 -31 193 -64.5t156 -83 t104.5 -120t37.5 -174.5q0 -211 -159.5 -323t-481.5 -112q-133 0 -275 21.5t-271 75.5q0 92 -1.5 186t-1.5 188h269l3 -149q31 -12 65 -19.5t69 -12.5t65.5 -7t53.5 -2q125 0 175 41t50 98q0 51 -28.5 78t-77.5 43q-143 47 -263 87t-206 89t-133.5 119t-47.5 178z" />
<glyph unicode="T" horiz-adv-x="1423" d="M37 924v491h1349v-491h-268v239h-211v-913h166v-250h-725v250h168v913h-213l2 -239h-268z" />
<glyph unicode="U" horiz-adv-x="1638" d="M70 1163v252h624v-252h-121v-651q0 -137 63.5 -198.5t186.5 -61.5q51 0 95.5 13.5t77 44t51 80.5t18.5 122v651h-117v252h621v-252h-121v-633q0 -131 -36 -233t-112.5 -173t-195.5 -107.5t-283 -36.5q-172 0 -293.5 37.5t-197.5 108.5t-111 173t-35 231v633h-114z" />
<glyph unicode="V" horiz-adv-x="1595" d="M25 1161v252h639v-252h-121q53 -174 106 -339t107 -337l49 -163h8q12 41 25.5 81.5t23.5 83.5q53 168 104.5 337t106.5 337h-125v252h621v-252h-109l-411 -1161h-496l-422 1161h-106z" />
<glyph unicode="W" horiz-adv-x="2324" d="M27 1161v254h651v-254h-115l115 -463l86 -362h6l100 358l109 369l-33 98h-117l-2 254h643l3 -254h-134l150 -461l106 -319h7l75 342l105 438h-121v254h641v-254h-119q-6 -27 -31.5 -116t-60.5 -208.5t-74 -256t-73.5 -256t-60 -208.5t-32.5 -116h-495l-135 430l-62 199 h-6l-61 -201l-134 -428h-493l-328 1161h-110z" />
<glyph unicode="X" horiz-adv-x="1566" d="M43 0v252h113l354 496l-297 411h-162v256h733v-256h-96l176 -250l180 252h-102v254h561v-254h-112l-355 -459l338 -450h137v-252h-729v252h97l-189 276l-192 -276h102v-252h-557z" />
<glyph unicode="Y" horiz-adv-x="1501" d="M29 1161v254h620v-254h-112l215 -389h8l215 389h-117v254h615v-254h-107l-408 -649v-262h154v-250h-735v250h155v260l-401 651h-102z" />
<glyph unicode="Z" horiz-adv-x="1376" d="M57 0v248l717 917h-397v-241h-271v491h1178v-239l-723 -924h490v276h272v-528h-1266z" />
<glyph unicode="[" horiz-adv-x="727" d="M143 -326v1762h512v-207h-190v-1362h190v-193h-512z" />
<glyph unicode="\" horiz-adv-x="823" d="M6 1456h273l534 -1532h-272z" />
<glyph unicode="]" horiz-adv-x="727" d="M88 -133h193v1362h-193v207h514v-1762h-514v193z" />
<glyph unicode="^" horiz-adv-x="1069" d="M37 688l401 698h170q100 -176 200.5 -349t203.5 -349h-248l-242 436l-237 -436h-248z" />
<glyph unicode="_" horiz-adv-x="1024" d="M0 -137h1026v-182h-1026v182z" />
<glyph unicode="`" horiz-adv-x="1116" d="M344 1372l172 203l346 -361l-112 -129z" />
<glyph unicode="a" horiz-adv-x="1245" d="M63 270q0 53 16.5 101.5t57.5 87.5t110.5 67.5t178.5 40.5l272 25v33q0 68 -33.5 103.5t-125.5 35.5q-72 0 -158 -12.5t-150 -32.5l-57 229q45 18 101.5 33t117 27t121.5 17t121 5q98 0 177 -18.5t134 -60.5t85 -111.5t30 -169.5v-424h139q4 -53 8 -104.5t9 -104.5 q-66 -31 -150 -46.5t-162 -15.5q-74 0 -127 27t-57 111l-2 2q-47 -49 -97.5 -78t-95.5 -42t-81.5 -16.5t-57.5 -3.5q-98 0 -160.5 30t-99.5 74t-50.5 96t-13.5 95zM459 317q0 -53 23.5 -82.5t80.5 -29.5q33 0 68 15.5t63 41.5v174l-137 -18q-53 -8 -75.5 -37t-22.5 -64z" />
<glyph unicode="b" horiz-adv-x="1353" d="M35 1233v242h512v-517q78 45 153.5 61.5t122.5 16.5q129 0 214 -40t135.5 -110.5t72 -167.5t21.5 -212q0 -104 -22.5 -199.5t-83 -168t-164 -117t-265.5 -44.5q-37 0 -101.5 4.5t-142 17.5t-162.5 36.5t-163 60.5v1137h-127zM549 274q45 -18 87 -25t75 -7t64.5 9t55 36.5 t38 79t14.5 135.5q0 90 -14.5 142t-38 79t-53 34t-58.5 7q-41 0 -85 -15.5t-85 -37.5v-437z" />
<glyph unicode="c" horiz-adv-x="1083" d="M78 500q0 92 22.5 188t83 173t167 126t276.5 49q88 0 178 -13t168 -42v-342h-250v123q-14 4 -32.5 4h-28.5q-51 0 -87 -19.5t-59.5 -53.5t-34 -81t-10.5 -100q0 -78 15.5 -128t43 -79t65.5 -41t83 -12q63 0 139 12t139 33q16 -55 34 -116.5t34 -119.5q-84 -41 -193.5 -61 t-218.5 -20q-162 0 -265 41.5t-163.5 113.5t-83 166t-22.5 199z" />
<glyph unicode="d" horiz-adv-x="1363" d="M82 481q0 119 23.5 221.5t77 176t139.5 115.5t213 42q23 0 55.5 -3t68 -9t73.5 -16.5t71 -24.5v250h-139v242h524v-1233h127v-242h-490v82l-6 2q-35 -29 -77 -48.5t-83 -31.5t-78.5 -18t-64.5 -6q-125 0 -209 38.5t-134 106.5t-70.5 160t-20.5 196zM467 489 q0 -80 14.5 -128t37 -73.5t53 -33.5t61.5 -8q39 0 86 16.5t82 40.5v418q-37 20 -82 32.5t-86 12.5q-27 0 -56.5 -8t-54 -37t-40 -84t-15.5 -148z" />
<glyph unicode="e" horiz-adv-x="1171" d="M82 502q0 96 26.5 191t88 171t163.5 123t254 47q147 0 239.5 -45t146 -115.5t73 -160.5t19.5 -178v-84h-625q0 -111 52 -157t171 -46q74 0 153 15.5t152 41.5l74 -225q-106 -57 -227 -80t-226 -23q-164 0 -267 44.5t-162.5 118t-82 167.5t-22.5 195zM473 604h272 q0 37 -6 69t-20 55.5t-39 36.5t-64 13q-76 0 -108.5 -53t-34.5 -121z" />
<glyph unicode="f" horiz-adv-x="989" d="M68 768v207l149 45v102q0 70 15.5 136.5t60.5 119t128 85t220 32.5q59 0 151.5 -9t176.5 -36l-51 -256q-47 10 -97.5 14t-85.5 4q-68 0 -106.5 -24.5t-38.5 -83.5v-96h289v-240h-289v-526h151v-242h-651v242h125v526h-147z" />
<glyph unicode="g" horiz-adv-x="1292" d="M68 -199q0 78 35.5 138.5t93.5 95.5q-53 16 -81 57t-28 96q0 66 45 116t123 79q-63 29 -104 95.5t-41 168.5t43 175t113.5 120t163.5 68.5t192 21.5q68 0 128 -7t101 -17h383v-168h-131l-10 -9q23 -33 35 -84t12 -85q0 -90 -40 -157t-108.5 -111t-159 -66.5t-190.5 -24.5 l-121 -2q-100 0 -100 -59q0 -41 63 -41h312q96 0 175 -15.5t136 -49.5t88 -89t31 -135q0 -66 -30 -130.5t-105.5 -116.5t-202.5 -84t-320 -32q-147 0 -244.5 21.5t-153.5 56.5t-79.5 80t-23.5 94zM444 -102q0 -41 39 -70t140 -29q92 0 148 29t56 72q0 39 -29.5 62.5 t-88.5 23.5h-199q-29 -12 -47.5 -39t-18.5 -49zM498 662q0 -57 30.5 -89t89.5 -32q57 0 96.5 30t39.5 93q0 49 -30 88t-101 39q-63 0 -94 -38t-31 -91z" />
<glyph unicode="h" horiz-adv-x="1411" d="M41 1233v240h512v-555q78 57 161 86.5t163 29.5q98 0 164.5 -28.5t107.5 -77.5t58.5 -116t17.5 -140v-418h131v-227q-61 -23 -133 -36.5t-131 -13.5q-80 0 -130.5 19.5t-77 52.5t-35.5 75t-9 87v383q0 80 -31 113.5t-94 33.5q-37 0 -82 -17t-80 -44v-680h-387v1233h-125z " />
<glyph unicode="i" horiz-adv-x="798" d="M92 766v244h488v-754h141v-227q-59 -27 -137 -40.5t-138 -13.5q-143 0 -197 57.5t-56 170.5v563h-101zM158 1337q0 45 17.5 86t47 71t69.5 47.5t87 17.5q45 0 85 -17.5t70.5 -47.5t48 -71t17.5 -86t-17.5 -85t-48 -70.5t-70.5 -48t-85 -17.5q-47 0 -87 17.5t-69.5 48 t-47 70.5t-17.5 85z" />
<glyph unicode="j" horiz-adv-x="757" d="M-57 -254q86 49 136 90t76.5 86t34 103.5t7.5 142.5v598h-111v244h500v-838q0 -147 -31 -257t-97.5 -187.5t-171 -130t-249.5 -82.5zM164 1337q0 45 17.5 86t47 71t69.5 47.5t87 17.5q45 0 85 -17.5t70.5 -47.5t48 -71t17.5 -86t-17.5 -85t-48 -70.5t-70.5 -48t-85 -17.5 q-47 0 -87 17.5t-69.5 48t-47 70.5t-17.5 85z" />
<glyph unicode="k" horiz-adv-x="1347" d="M55 1233v233h518v-776l183 144v174h497v-240h-139l-160 -121l222 -411l139 -25v-207q-29 -10 -65 -16t-72.5 -10.5t-69.5 -6.5t-51 -2q-29 0 -56.5 2t-55 11.5t-52.5 30t-43 55.5l-178 364l-99 -74v-118h95v-240h-607v240h123v993h-129z" />
<glyph unicode="l" horiz-adv-x="802" d="M80 1231v242h518v-1231h129v-242h-643v242h127v989h-131z" />
<glyph unicode="m" horiz-adv-x="2027" d="M53 768v242h502v-97l8 -4q82 63 174 93t164 30q104 0 162.5 -35.5t95.5 -109.5q37 35 82 61.5t91 45t92 28.5t85 10q94 0 159 -26.5t103.5 -73.5t55 -114.5t16.5 -149.5v-414h125v-227q-61 -23 -131 -36.5t-129 -13.5q-80 0 -129 16.5t-76.5 48.5t-37 80t-9.5 111v383 q0 68 -23.5 94.5t-76.5 26.5q-35 0 -80 -16t-78 -41q4 -29 4 -57.5v-55.5v-567h-381v625q0 47 -20.5 78.5t-69.5 31.5q-31 0 -77 -14t-87 -43v-678h-387v768h-127z" />
<glyph unicode="n" horiz-adv-x="1425" d="M55 770v240h504v-88q2 0 6 -1t6 -1q78 53 160 83.5t160 30.5q98 0 165.5 -28.5t107.5 -77.5t57.5 -114.5t17.5 -141.5v-418h131v-225q-61 -27 -133 -39.5t-131 -12.5q-84 0 -133 23t-76 58.5t-35 77.5t-8 81v377q0 80 -29.5 113.5t-95.5 33.5q-37 0 -82 -17t-80 -44v-680 h-389v770h-123z" />
<glyph unicode="o" horiz-adv-x="1286" d="M82 506q0 111 34 207t103.5 166.5t176 111.5t249.5 41t248.5 -41t175.5 -111.5t102.5 -166.5t32.5 -207t-33.5 -207t-103.5 -167t-176.5 -111.5t-251.5 -40.5q-143 0 -248.5 39.5t-174.5 109.5t-101.5 166t-32.5 211zM477 506q0 -55 7.5 -104.5t25.5 -86t50 -57t83 -20.5 q49 0 82 21.5t51.5 57t25.5 85t7 104.5q0 51 -7 98t-24.5 84t-49.5 58.5t-81 21.5q-51 0 -84 -22.5t-52 -59.5t-26.5 -84t-7.5 -96z" />
<glyph unicode="p" horiz-adv-x="1361" d="M51 -193h127v959h-125v242h488v-84l6 -2q35 29 76 49t83 32.5t79.5 18.5t64.5 6q125 0 209 -39t134 -107.5t70.5 -159.5t20.5 -196q0 -121 -23.5 -221t-77 -172t-140.5 -112.5t-212 -40.5q-23 0 -54.5 3t-68 9t-74.5 16t-71 27v-228h133v-241h-645v241zM565 297 q37 -23 82 -35t86 -12q27 0 56.5 9t54 39t40 83t15.5 139q0 80 -14.5 127t-37 71.5t-53 32t-61.5 7.5q-39 0 -86 -16.5t-82 -41.5v-403z" />
<glyph unicode="q" horiz-adv-x="1339" d="M88 465q0 111 25.5 213t90 181t175 126t283.5 47q37 0 97 -4t132 -15.5t150.5 -31.5t150.5 -55v-1116h127v-244h-643v244h131v243q-78 -45 -153.5 -62.5t-123.5 -17.5q-119 0 -202.5 35t-138 99.5t-78 155.5t-23.5 202zM471 506q0 -88 14.5 -139.5t38 -78t53 -33.5 t58.5 -7q43 0 86 13t84 36v440q-31 10 -68 17.5t-71 7.5q-39 0 -75 -12.5t-62.5 -41t-42 -77.5t-15.5 -125z" />
<glyph unicode="r" horiz-adv-x="1067" d="M76 0v242h119v526h-111v244h489v-156l11 -4q35 29 80 60.5t96 57t105.5 43t105.5 17.5q47 0 64.5 -25.5t17.5 -82.5q0 -31 -6.5 -71t-19.5 -80t-33.5 -78t-51.5 -66l-362 53v-438h122v-242h-626z" />
<glyph unicode="s" horiz-adv-x="1130" d="M72 342h254v-52.5t2 -51.5q25 -12 76 -20.5t98 -8.5q59 0 103 19.5t44 54.5q0 51 -34.5 65t-94.5 31q-84 25 -164 49.5t-142 60t-101 88t-39 130.5q0 160 125 242.5t362 82.5q100 0 212 -20t198 -60v-135t2 -135h-256q0 25 -1 49.5t-1 48.5q-29 10 -59.5 14.5t-59.5 4.5 q-55 0 -89 -20.5t-34 -55.5t41 -52.5t88 -29.5q61 -16 140 -33.5t147.5 -54.5t117 -100.5t48.5 -169.5q0 -147 -128 -225t-397 -78q-43 0 -99 3t-117.5 12t-123 23.5t-116.5 38.5v141.5t-2 143.5z" />
<glyph unicode="t" horiz-adv-x="952" d="M27 768v209l168 49l88 260l266 23v-299h285v-242h-285v-348q0 -94 28.5 -125t110.5 -31q23 0 67 4t93 15l43 -246q-35 -14 -76 -25.5t-82 -18.5t-81 -11.5t-72 -4.5q-137 0 -219 32t-125 81t-56.5 109.5t-13.5 119.5v449h-139z" />
<glyph unicode="u" horiz-adv-x="1402" d="M55 766v244h514v-604q0 -70 21.5 -102t87.5 -32q25 0 70 15.5t83 56.5v424h-100v242h488v-756h127v-227q-92 -31 -161 -40.5t-112 -9.5q-113 0 -161 38t-60 110q-76 -72 -162 -112t-178 -40q-166 0 -249 88.5t-83 253.5v451h-125z" />
<glyph unicode="v" horiz-adv-x="1368" d="M51 733v277h402l149 -461l86 -270h8q4 14 16.5 51t26 76.5t25.5 75.5t16 50l78 234h-70v244h529v-244h-82q-8 -23 -31.5 -82t-55.5 -137t-69 -164t-68.5 -164t-55 -137t-31.5 -82h-486q-8 23 -28.5 79t-48 131t-58.5 157t-57.5 156.5t-48 131t-27.5 78.5h-119z" />
<glyph unicode="w" horiz-adv-x="1949" d="M18 733v277h383l140 -486l73 -272h13l78 252l69 227l-14 35h-119v244h600v-244h-86l107 -285l81 -227h11l73 240l80 274h-96v242h520v-242l-82 -2l-250 -766h-485l-84 231l-63 195h-9l-133 -426h-475l-229 733h-103z" />
<glyph unicode="x" horiz-adv-x="1320" d="M61 0v225h89l266 312l-236 247h-104v226h624v-226h-92l119 -125l117 125h-78v226h487v-226h-67l-291 -288l258 -271h115v-225h-629v225h82l-141 150l-127 -150h77v-225h-469z" />
<glyph unicode="y" horiz-adv-x="1333" d="M37 745v265h387l225 -760h8q2 10 15.5 49t30 92t36 113.5t37 115t30.5 94.5t17 52h-96v244h563v-244h-92l-381 -1010q-18 -47 -42.5 -85t-59.5 -65.5t-84 -43t-117 -15.5q-14 0 -49 2t-81 8.5t-98.5 16.5t-101.5 29l45 256q10 -2 31 -5.5t43.5 -6.5t42 -5t27.5 -2h13 q62 0 88 18q30 19 52 74l41 107h-180q-10 31 -29.5 87t-44 123.5t-50 141.5t-50.5 142.5t-45.5 124t-30.5 87.5h-100z" />
<glyph unicode="z" horiz-adv-x="1163" d="M72 0v203l520 581h-248v-145h-248v371h967v-197l-522 -590h301v156h248v-379h-1018z" />
<glyph unicode="{" horiz-adv-x="770" d="M66 473v197q74 10 113.5 51t39.5 121v286q0 61 15.5 118t48 101t86 69.5t131.5 25.5h233v-203h-63q-78 0 -101.5 -40t-23.5 -93v-311q0 -86 -40 -142.5t-120 -72.5v-7q92 -23 126 -86t34 -157v-336q0 -27 4 -51.5t17.5 -43t37 -29.5t64.5 -11h65v-195h-229 q-72 0 -125 24.5t-88 65.5t-53.5 97.5t-18.5 119.5v332q0 84 -40 122t-113 48z" />
<glyph unicode="|" horiz-adv-x="755" d="M250 -311v1771h256v-1771h-256z" />
<glyph unicode="}" horiz-adv-x="770" d="M45 -141h64q39 0 63.5 11t38.5 29.5t18 43t4 51.5v336q0 94 33 157.5t125 85.5v7q-80 16 -119 72.5t-39 142.5v311q0 53 -24.5 93t-102.5 40h-61v203h231q76 0 130.5 -25.5t88 -69.5t49 -100.5t15.5 -118.5v-286q0 -88 40 -125t112 -47v-197q-72 -10 -112 -47t-40 -123 v-332q0 -63 -18.5 -119.5t-54 -97.5t-90 -65.5t-124.5 -24.5h-227v195z" />
<glyph unicode="~" d="M131 537q53 143 127 199.5t164 56.5q59 0 124.5 -14.5t130 -31t126 -31t117.5 -14.5l137 99l123 -94q-47 -131 -116 -197t-169 -66q-68 0 -138.5 14.5t-136 32t-123 32t-102.5 14.5l-137 -95z" />
<glyph unicode="&#xa2;" d="M172 500q0 82 16.5 165t61.5 155.5t120.5 125.5t196.5 76v207h238v-195q68 -4 135.5 -17t126.5 -36v-342h-250v123q-14 4 -32.5 4h-28.5q-51 0 -87 -19.5t-59.5 -53.5t-34 -81t-10.5 -100q0 -78 15.5 -128t43 -79t65.5 -41t83 -12q63 0 139 12t140 33q16 -55 33.5 -116.5 t33.5 -119.5q-66 -31 -146.5 -50t-166.5 -27v-179h-238v185q-119 18 -195.5 65t-120.5 115t-61.5 153t-17.5 177z" />
<glyph unicode="&#xa3;" d="M102 0l2 238q80 61 106 137t34 162l4 67h-119v174h133l12 166q16 223 136 344t356 121q133 0 231.5 -26.5t169.5 -55.5v-348h-258v139q-29 8 -58.5 13.5t-62.5 5.5q-84 0 -121.5 -51.5t-45.5 -161.5l-11 -146h273v-174h-287l-6 -86q-6 -86 -26.5 -158.5t-71.5 -121.5h663 v-238h-1053z" />
<glyph unicode="&#xa5;" d="M31 1126v246h553v-246h-103q12 -29 35 -82t47.5 -112.5t48 -112.5t35.5 -82h6q12 29 35 83t46.5 112.5t46 112t34.5 81.5h-104v246h544v-246h-90q-14 -29 -37.5 -77t-49 -102t-49 -103t-38.5 -78h176v-123h-1042v123h168q-14 29 -37 78t-48.5 103t-48 102.5t-36.5 76.5 h-92zM125 436v123h1042v-123h-340v-194h142v-242h-660v242h144v190l-2 4h-326z" />
<glyph unicode="&#xa8;" horiz-adv-x="903" d="M96 1251q0 59 41 100.5t99 41.5q61 0 102 -40.5t41 -101.5q0 -59 -41 -100t-100 -41t-100.5 41t-41.5 100zM528 1251q0 59 41 100.5t101 41.5q61 0 102 -40.5t41 -101.5q0 -59 -41 -100t-102 -41q-59 0 -100.5 41t-41.5 100z" />
<glyph unicode="&#xa9;" horiz-adv-x="1798" d="M90 672q0 166 63.5 311t173 254t256 171t312.5 62q164 0 309.5 -62t255 -171t173 -254t63.5 -311t-63.5 -311.5t-173 -254t-255 -171t-309.5 -62.5q-166 0 -312.5 62.5t-256 171t-173 254t-63.5 311.5zM242 672q0 -133 51 -252t140 -207t208 -139t254 -51t254 51t207 139 t139 207t51 252t-51 251.5t-139 207t-207 139.5t-254 51t-254 -51t-208 -139.5t-140 -207t-51 -251.5zM438 655q0 88 22.5 177.5t80 161t156 115.5t249.5 44q76 0 138.5 -11.5t121.5 -27.5v-293h-172v127q-16 4 -39.5 6t-40.5 2q-127 0 -184 -76.5t-57 -215.5 q0 -84 18.5 -139.5t52 -89.5t84 -47t115.5 -13q16 0 43 2t57.5 5t61.5 7t53 10l35 -176q-66 -27 -154 -39t-166 -12q-143 0 -235 40t-145.5 106.5t-74 153.5t-20.5 183z" />
<glyph unicode="&#xab;" horiz-adv-x="1112" d="M80 379v78l375 399l153 -104l-217 -334l213 -326l-158 -115zM524 379v78l373 399l156 -104l-217 -334l213 -326l-156 -115z" />
<glyph unicode="&#xad;" horiz-adv-x="849" d="M131 430v256h588v-256h-588z" />
<glyph unicode="&#xae;" horiz-adv-x="1292" d="M92 944q0 115 41 215.5t115 175t175 117.5t222 43t222.5 -43t174 -117.5t113.5 -175t41 -215.5t-41 -214t-114.5 -174t-175 -118t-220.5 -43t-220 43t-175 118t-116 174t-42 214zM207 944q0 -90 31.5 -169t89 -138t138.5 -94t179 -35q102 0 184 35t138.5 94t86 138 t29.5 169t-32.5 170t-91 139.5t-138.5 94t-176 34.5t-176 -34.5t-138.5 -94t-91 -139.5t-32.5 -170zM375 668v106h59v375h-59v108h327q59 0 99.5 -14t65 -38.5t35.5 -57.5t11 -70q0 -39 -22.5 -84t-71.5 -67l74 -154q2 0 12 -1t22.5 -2t24 -3t13.5 -2v-94q-27 -8 -63 -12.5 t-54 -4.5q-47 0 -69.5 19.5t-39.5 60.5l-75 164h-62v-123h53v-106h-280zM602 1004h55q35 0 57.5 15t22.5 60q0 39 -20.5 55.5t-52.5 16.5h-62v-147z" />
<glyph unicode="&#xb4;" horiz-adv-x="1120" d="M379 1214l346 361l178 -203l-409 -287z" />
<glyph unicode="&#xb8;" horiz-adv-x="1028" d="M383 -414q225 23 225 109q0 41 -40 52t-105 11h-35l-39 58l211 278q23 -16 45.5 -28.5t44.5 -26.5l-112 -152q104 -6 162.5 -53t58.5 -127q0 -43 -23.5 -86t-73 -75.5t-128 -54t-189.5 -21.5q0 29 -1 58.5t-1 57.5z" />
<glyph unicode="&#xbb;" horiz-adv-x="1112" d="M74 752l157 104l371 -399v-78l-364 -402l-160 115l215 326zM520 752l156 104l373 -399v-78l-369 -402l-156 115l213 326z" />
<glyph unicode="&#x2c6;" horiz-adv-x="1228" d="M178 1186l320 319h235l326 -317l-90 -107l-355 207l-350 -205z" />
<glyph unicode="&#x2da;" horiz-adv-x="1236" d="M358 1389q0 53 21.5 102t59.5 86t89.5 59.5t110.5 22.5t109.5 -21.5t86 -58.5t56 -86t20.5 -104q0 -57 -21.5 -107.5t-58 -87.5t-86 -57.5t-106.5 -20.5q-59 0 -110.5 21.5t-89.5 58.5t-59.5 87t-21.5 106zM528 1382q0 -41 30 -72.5t81 -31.5q47 0 74.5 31.5t27.5 72.5 q0 43 -26.5 77t-75.5 34q-47 0 -79 -34t-32 -77z" />
<glyph unicode="&#x2dc;" horiz-adv-x="1228" d="M203 1214q43 123 103.5 170.5t133.5 47.5q49 0 101.5 -11.5t103.5 -26t101.5 -25.5t93.5 -11l112 82l103 -78q-74 -223 -232 -223q-55 0 -112.5 12t-109.5 26.5t-98 27t-81 12.5l-113 -80z" />
<glyph unicode="&#x401;" horiz-adv-x="1460" d="M90 0v252h148v911h-146v250h1272v-485h-270v235h-461v-321l434 16v-260l-434 12v-358h481v252h272v-504h-1296zM401 1661q0 59 41 100t99 41q59 0 101 -41t42 -100t-41 -100t-100 -41t-100.5 41t-41.5 100zM834 1661q0 59 40.5 100t100.5 41q59 0 100 -41t41 -100 t-41 -100t-100 -41t-100 41t-41 100z" />
<glyph unicode="&#x402;" horiz-adv-x="1878" d="M43 1018v395h1479v-395h-269v147h-340v-342q86 29 178.5 43.5t180.5 14.5q106 0 201.5 -26t166 -80t112.5 -140t42 -207q0 -127 -42 -237.5t-108.5 -200.5t-145.5 -159t-152 -112l-166 203q86 78 142 183.5t56 254.5q0 141 -64.5 195.5t-164.5 54.5q-53 0 -114.5 -11 t-121.5 -32v-317h160v-250h-700v250h149v915h-209v-147h-270z" />
<glyph unicode="&#x403;" horiz-adv-x="1394" d="M90 0v250h150v915h-148v248h1274v-481h-270v233h-461v-915h188v-250h-733zM596 1651l346 360l178 -203l-409 -286z" />
<glyph unicode="&#x404;" horiz-adv-x="1384" d="M102 705q0 133 31 265t112 237.5t224 171t371 65.5q111 0 211 -15.5t190 -42.5v-415h-274v168q-27 6 -58.5 9t-62.5 3q-154 0 -230.5 -84t-89.5 -225l422 8v-248l-424 8q16 -172 109.5 -246.5t273.5 -74.5q25 0 66 3t88 9t95 13.5t85 15.5l57 -275q-49 -18 -109.5 -32.5 t-125 -23.5t-129 -14t-121.5 -5q-215 0 -352 59t-217 158.5t-111 230.5t-31 277z" />
<glyph unicode="&#x405;" horiz-adv-x="1376" d="M100 989q0 209 148.5 327t441.5 118q57 0 122 -5.5t129.5 -16.5t125.5 -29.5t115 -43.5q0 -90 1 -178t1 -178h-273q0 37 -1 74t-1 71q-41 16 -99 24.5t-97 8.5q-109 0 -154 -39t-45 -90q0 -35 24.5 -61.5t65.5 -47t93.5 -38t107.5 -33.5q104 -31 193 -64.5t156 -83 t104.5 -120t37.5 -174.5q0 -211 -159.5 -323t-481.5 -112q-133 0 -275 21.5t-271 75.5q0 92 -1.5 186t-1.5 188h269l2 -149q31 -12 65.5 -19.5t69.5 -12.5t65.5 -7t53.5 -2q125 0 175 41t50 98q0 51 -28.5 78t-77.5 43q-143 47 -263 87t-206 89t-133.5 119t-47.5 178z" />
<glyph unicode="&#x406;" horiz-adv-x="972" d="M143 0v250h148v913h-148v252h686v-252h-143v-913h143v-250h-686z" />
<glyph unicode="&#x407;" horiz-adv-x="972" d="M131 1661q0 59 41 100t98 41q59 0 101.5 -41t42.5 -100t-41 -100t-101 -41q-59 0 -100 41t-41 100zM143 0v250h148v913h-148v252h686v-252h-143v-913h143v-250h-686zM563 1661q0 59 41 100t101 41q59 0 100 -41t41 -100t-41 -100t-100 -41t-100.5 41t-41.5 100z" />
<glyph unicode="&#x408;" horiz-adv-x="1034" d="M-33 -104q117 47 191.5 93t119 100t61.5 124t17 164v786l-194 2v250h753v-252h-165v-788q0 -317 -175.5 -507t-515.5 -249z" />
<glyph unicode="&#x409;" horiz-adv-x="2267" d="M37 211q113 45 181.5 105.5t105 148.5t49 213t12.5 303v184h-186v250h1333v-250h-150v-282h252q104 0 202.5 -21.5t176.5 -73t125 -136.5t47 -210q0 -115 -35.5 -197.5t-100 -137t-156 -81t-203.5 -26.5h-832v250h129v915h-246v-116q0 -221 -19.5 -405.5t-83 -326 t-183 -237.5t-320.5 -139zM1382 250h201q80 0 132 51t52 145q0 92 -53 141.5t-137 49.5h-195v-387z" />
<glyph unicode="&#x40a;" horiz-adv-x="2369" d="M98 0v250h152v915h-152v248h668v-248h-123v-303h447v303h-129v250h675v-250h-149v-297h250q104 0 203.5 -20.5t176 -69.5t124 -132t47.5 -208q0 -109 -35 -190.5t-99.5 -137t-155.5 -83t-204 -27.5h-827v250h123v379h-447v-379h123v-250h-668zM1487 250h201q80 0 132 48 t52 142q0 92 -53.5 138.5t-139.5 46.5h-192v-375z" />
<glyph unicode="&#x40b;" horiz-adv-x="1974" d="M45 1018v395h1462v-395h-268v147h-324v-336q86 25 178.5 39.5t184.5 14.5q96 0 184 -18.5t154.5 -62.5t106.5 -117t40 -179v-256h142v-250h-664v250h129v213q0 90 -58.5 125t-142.5 35q-70 0 -138 -17.5t-116 -38.5v-317h134v-250h-680v250h155v915h-209v-147h-270z" />
<glyph unicode="&#x40c;" horiz-adv-x="1636" d="M90 0v250h150v915h-150v248h682v-248h-139v-915h139v-250h-682zM692 657v125l340 521q47 78 102.5 105.5t131.5 27.5q141 0 260 -66l-21 -213l-178 -14l-283 -391l340 -490l195 -18v-215q-31 -12 -66.5 -21.5t-69.5 -15.5t-63.5 -9t-50.5 -3q-100 -4 -160.5 20.5 t-109.5 97.5zM735 1655l346 360l179 -203l-410 -286z" />
<glyph unicode="&#x40e;" horiz-adv-x="1503" d="M33 1163v252h602v-252h-115l142 -307l102 -240h10l98 250l123 297h-121v252h594v-252h-104l-426 -962q-59 -133 -143 -186.5t-207 -53.5q-63 0 -142 10.5t-178 38.5l58 248q61 -12 99 -15t67 -3q35 0 61.5 16t44.5 57l31 72h-97l-397 778h-102zM344 1812l139 111 q72 -98 150 -142t131 -44q18 0 45 2t65.5 18.5t92 52t123.5 101.5l100 -99q-51 -84 -107.5 -140t-113 -90t-110.5 -48t-103 -14q-66 0 -123.5 22.5t-108.5 62.5t-96 93t-84 114z" />
<glyph unicode="&#x40f;" horiz-adv-x="1753" d="M90 0v248h152v915h-152v250h674v-250h-129v-915h485v915h-129v250h672v-250h-147v-915h147v-248h-633v-420h-299v420h-641z" />
<glyph unicode="&#x410;" horiz-adv-x="1626" d="M41 0v248h111l430 1165h485l406 -1165h112v-248h-627v248h119l-45 145h-465l-47 -145h125v-248h-604zM649 629h309q-35 123 -71.5 239.5t-73.5 239.5h-8q-10 -37 -28.5 -95.5t-41 -125t-45 -135t-41.5 -123.5z" />
<glyph unicode="&#x411;" horiz-adv-x="1515" d="M90 0v250h148v915h-148v248h1206v-391h-270v143h-393v-282h252q104 0 203.5 -20.5t176 -71t123 -134.5t46.5 -208q0 -111 -35 -195t-99.5 -140.5t-155.5 -85t-204 -28.5h-850zM633 250h207q80 0 130 56t50 145q0 88 -50 137t-139 49h-198v-387z" />
<glyph unicode="&#x412;" horiz-adv-x="1519" d="M88 0v250h152v913h-148v250h836q236 0 350.5 -104.5t114.5 -280.5q0 -25 -7.5 -62.5t-26 -77.5t-51 -78t-83.5 -65v-4q63 -27 105 -67.5t64.5 -86.5t32 -93.5t9.5 -83.5q0 -94 -35 -170t-98.5 -129.5t-153.5 -82t-199 -28.5h-862zM635 250h203q92 0 137 51t45 125 t-44 127t-138 53h-203v-356zM635 840h182q80 0 124 46t44 118t-41 115.5t-127 43.5h-182v-323z" />
<glyph unicode="&#x413;" horiz-adv-x="1394" d="M90 0v250h150v915h-148v248h1274v-481h-270v233h-461v-915h188v-250h-733z" />
<glyph unicode="&#x414;" horiz-adv-x="1689" d="M31 244l141 6q131 147 176 353t45 480v82h-168v248h1358v-248h-147v-915l149 -6v-623h-285v379h-981v-379h-288v623zM559 250h481v915h-301v-110q0 -137 -7 -252t-27.5 -213t-55.5 -182t-90 -158z" />
<glyph unicode="&#x415;" horiz-adv-x="1460" d="M90 0v252h148v911h-146v250h1272v-485h-270v235h-461v-321l434 16v-260l-434 12v-358h481v252h272v-504h-1296z" />
<glyph unicode="&#x416;" horiz-adv-x="2332" d="M55 29v215l205 18l307 481l-293 400l-190 14l-18 213q119 66 266 66q68 0 125 -25t104 -102l354 -535v-125l-344 -551q-49 -74 -113.5 -98.5t-152.5 -19.5q-20 0 -50 3t-63.5 9t-69.5 15t-67 22zM836 0v248h141v917h-141v246h663v-246h-139v-917h139v-248h-663zM1417 649 v125l352 535q47 78 104.5 102.5t125.5 24.5q145 0 266 -66l-18 -213l-191 -14l-291 -400l312 -481l204 -18v-215q-31 -12 -66.5 -21.5t-69.5 -15.5t-63.5 -9t-49.5 -3q-88 -4 -152.5 20.5t-114.5 97.5z" />
<glyph unicode="&#x417;" horiz-adv-x="1339" d="M61 80l80 250q113 -33 210.5 -49.5t170.5 -16.5q152 0 228.5 49t76.5 138q0 84 -55 127t-160 43h-188v235h166q106 0 155.5 49t49.5 113q0 90 -62.5 125t-159.5 35q-43 0 -87 -7.5t-85 -17.5v-190h-280v389q63 27 135 45t139.5 28.5t127 15.5t100.5 5q106 0 210.5 -16.5 t186.5 -60.5t132 -119.5t50 -192.5q0 -78 -50 -160t-148 -129v-2q123 -45 181 -134t58 -181q0 -117 -51 -205t-138 -146.5t-205 -88t-249 -29.5q-41 0 -106.5 4t-140 14t-152.5 29.5t-140 50.5z" />
<glyph unicode="&#x418;" horiz-adv-x="1794" d="M86 0v248h156v917h-154v246h680v-246h-135v-544h2l534 489v55h-143v246h680v-246h-152v-917h152v-248h-672v248h135v555h-2q-135 -123 -267 -246t-267 -246v-63h135v-248h-682z" />
<glyph unicode="&#x419;" horiz-adv-x="1794" d="M86 0v248h156v917h-154v246h680v-246h-135v-544h2l534 489v55h-143v246h680v-246h-152v-917h152v-248h-672v248h135v555h-2q-135 -123 -267 -246t-267 -246v-63h135v-248h-682zM479 1847l139 113q72 -98 150 -142t131 -44q18 0 45 2t66 17t92 51t123 102l100 -99 q-51 -84 -107.5 -140t-112.5 -90t-110.5 -48.5t-103.5 -14.5q-66 0 -123 22.5t-108.5 62.5t-96.5 93.5t-84 114.5z" />
<glyph unicode="&#x41a;" horiz-adv-x="1636" d="M90 0v250h150v915h-150v248h682v-248h-139v-915h139v-250h-682zM692 657v125l340 521q47 78 102.5 105.5t131.5 27.5q141 0 260 -66l-21 -213l-178 -14l-283 -391l340 -490l195 -18v-215q-31 -12 -66.5 -21.5t-69.5 -15.5t-63.5 -9t-50.5 -3q-100 -4 -160.5 20.5 t-109.5 97.5z" />
<glyph unicode="&#x41b;" horiz-adv-x="1673" d="M37 211q113 45 181.5 105.5t105 148.5t49 213t12.5 303v184h-186v250h1372v-250h-148v-915h148v-250h-672v250h129v915h-287v-116q0 -221 -19.5 -405.5t-83 -326t-183 -237.5t-320.5 -139z" />
<glyph unicode="&#x41c;" horiz-adv-x="2136" d="M80 0v248h151v915h-151v250h651q66 -147 136.5 -304t136.5 -308q39 -84 65 -150h8q16 35 29.5 69t28.5 66q25 55 59.5 137.5t71.5 171.5t72.5 174t60.5 144h651v-250h-131v-915h131v-248h-633v248h117v676h-6q-16 -39 -32.5 -78t-33.5 -80q-25 -57 -54.5 -127t-59 -140.5 t-58 -136t-49.5 -116.5h-328q-68 141 -129 276t-127 279q-12 31 -26.5 61.5t-26.5 61.5h-6v-676h129v-248h-647z" />
<glyph unicode="&#x41d;" horiz-adv-x="1753" d="M90 0v250h152v913h-152v250h674v-250h-129v-319h485v319h-129v250h672v-250h-147v-913h147v-250h-672v250h129v360h-485v-360h129v-250h-674z" />
<glyph unicode="&#x41e;" horiz-adv-x="1624" d="M102 709q0 156 43 290t131.5 233t222.5 155.5t316 56.5t315.5 -56.5t220.5 -155.5t129 -233t42 -288q0 -158 -45 -292t-133.5 -232.5t-221.5 -154t-307 -55.5q-182 0 -315 54.5t-222.5 151t-132.5 231.5t-43 295zM520 709q0 -109 15.5 -194t50.5 -143.5t91 -90t138 -31.5 q78 0 132 33.5t88 94t49.5 145t15.5 186.5q0 94 -12.5 177t-45 146.5t-87 100t-140.5 36.5t-143.5 -37.5t-91 -101t-47 -146.5t-13.5 -175z" />
<glyph unicode="&#x41f;" horiz-adv-x="1753" d="M90 0v250h152v915h-152v250h1575v-250h-149v-915h149v-250h-674v250h129v915h-483v-915h129v-250h-676z" />
<glyph unicode="&#x420;" horiz-adv-x="1402" d="M90 0v250h143v913h-143v252h739q139 0 238.5 -33.5t162 -93t91.5 -141.5t29 -180q0 -86 -30 -166t-90.5 -143.5t-152.5 -101.5t-217 -38h-231v-268h186v-250h-725zM629 760h125q86 0 133 50t47 146q0 106 -49 156.5t-142 50.5h-114v-403z" />
<glyph unicode="&#x421;" horiz-adv-x="1368" d="M102 707q0 133 31 265t113 237.5t225 171t371 65.5q111 0 207 -15.5t184 -41.5v-455h-272v207q-29 6 -56.5 8t-56.5 2q-92 0 -154.5 -30.5t-100.5 -87t-55.5 -137.5t-17.5 -179q0 -127 23.5 -210t72 -132t122 -68.5t173.5 -19.5q25 0 64 3t84 8t92 12t84 18l57 -271 q-49 -18 -108.5 -33.5t-122 -25.5t-126 -15.5t-120.5 -5.5q-215 0 -353 59.5t-218 161t-111 232.5t-31 277z" />
<glyph unicode="&#x422;" horiz-adv-x="1423" d="M37 924v491h1349v-491h-268v239h-211v-913h166v-250h-725v250h168v913h-213l2 -239h-268z" />
<glyph unicode="&#x423;" horiz-adv-x="1503" d="M33 1163v252h602v-252h-115l142 -307l102 -240h10l98 250l123 297h-121v252h594v-252h-104l-426 -962q-59 -133 -143 -186.5t-207 -53.5q-63 0 -142 10.5t-178 38.5l58 248q61 -12 99 -15t67 -3q35 0 61.5 16t44.5 57l31 72h-97l-397 778h-102z" />
<glyph unicode="&#x424;" horiz-adv-x="1916" d="M82 727q0 123 50 229.5t141.5 187.5t217 130t279.5 57v84h385v-86q162 -8 289 -57t214 -129t132 -185.5t45 -228.5q0 -129 -46 -236.5t-134 -187.5t-214 -128t-286 -58v-119h-385v119q-162 8 -289 54t-216 125t-136 187.5t-47 241.5zM477 721q0 -139 74 -228.5 t219 -109.5v682q-137 -16 -215 -111.5t-78 -232.5zM1155 383q57 8 109.5 34.5t90.5 70.5t60.5 103.5t22.5 131.5q0 68 -16.5 126t-51.5 104t-88 76t-127 36v-682z" />
<glyph unicode="&#x425;" horiz-adv-x="1566" d="M43 0v252h113l354 496l-297 411h-162v256h733v-256h-96l176 -250l180 252h-102v254h561v-254h-112l-355 -459l338 -450h137v-252h-729v252h97l-189 276l-192 -276h102v-252h-557z" />
<glyph unicode="&#x426;" horiz-adv-x="1753" d="M88 0v248h152v915h-152v250h676v-250h-129v-915h483v915h-127v250h672v-250h-150v-915h211v-627h-286v379h-1350z" />
<glyph unicode="&#x427;" horiz-adv-x="1669" d="M45 1165v248h662v-248h-127v-194q0 -98 56 -141.5t146 -43.5q63 0 127 9.5t123 25.5v344h-127v248h666v-248h-146v-917h146v-248h-686v248h147v303q-76 -14 -155.5 -24.5t-161.5 -10.5q-102 0 -197.5 19.5t-169.5 65.5t-118 122t-44 188v254h-141z" />
<glyph unicode="&#x428;" horiz-adv-x="2394" d="M90 0v248h152v915h-152v250h653v-250h-122v-915h383v915h-115v250h610v-250h-115v-915h392v915h-121v250h649v-250h-147v-915h147v-248h-2214z" />
<glyph unicode="&#x429;" horiz-adv-x="2394" d="M90 0v248h152v915h-152v250h653v-250h-122v-915h383v915h-115v250h610v-250h-115v-915h392v915h-121v250h649v-250h-147v-915h208v-627h-286v379h-1989z" />
<glyph unicode="&#x42a;" horiz-adv-x="1853" d="M39 944v469h1073v-248h-143l-2 -282h252q104 0 203.5 -21.5t176 -73t123.5 -136.5t47 -210q0 -115 -34.5 -197.5t-99 -137t-157 -81t-204.5 -26.5h-852v250h149v915h-262v-221h-270zM967 250h200q80 0 133.5 51t53.5 145q0 92 -53.5 141.5t-139.5 49.5h-194v-387z" />
<glyph unicode="&#x42b;" horiz-adv-x="2299" d="M90 0v250h150v915h-150v250h694v-250h-149v-282h252q104 0 203.5 -21.5t176 -73t124 -136.5t47.5 -210q0 -115 -35 -197.5t-99.5 -137t-156.5 -81t-205 -26.5h-852zM635 250h201q82 0 134 51t52 145q0 92 -53.5 141.5t-139.5 49.5h-194v-387zM1522 0v250h147v915h-147 v248h686v-248h-146v-915h146v-250h-686z" />
<glyph unicode="&#x42c;" horiz-adv-x="1529" d="M100 0v250h150v915h-150v250h695v-250h-150v-282h252q104 0 203.5 -21.5t176.5 -73t124 -136.5t47 -210q0 -115 -35 -197.5t-99.5 -137t-156.5 -81t-205 -26.5h-852zM645 250h201q82 0 134 51t52 145q0 92 -53 141.5t-139 49.5h-195v-387z" />
<glyph unicode="&#x42d;" horiz-adv-x="1363" d="M86 55l57 275q37 -8 82 -15.5t89 -13.5t82 -9t63 -3q178 0 275 76.5t106 246.5l-404 -8v246l404 -6q-2 139 -74 223t-229 84q-31 0 -71 -4t-65 -10v-168h-274v415q90 29 196.5 44.5t217.5 15.5q215 0 354 -59.5t221 -159t115 -227.5t33 -265t-34 -272t-117 -241.5 t-220 -173t-346 -66.5q-117 0 -240 18t-221 57z" />
<glyph unicode="&#x42e;" horiz-adv-x="2353" d="M90 0v250h152v915h-152v248h674v-248h-129v-321h248q16 129 64 239.5t131 190.5t204 125t283 45q184 0 314 -56.5t213 -155.5t121 -233t38 -288q0 -158 -41 -292t-126 -232.5t-214 -154t-305 -55.5q-164 0 -287 45.5t-208 128t-131 199.5t-58 260h-246v-360h129v-250 h-674zM1276 707q0 -106 14.5 -191.5t48 -145t89 -91t137.5 -31.5q78 0 132 33.5t87 94t47 146t14 187.5q0 92 -11 176t-43 147.5t-86 100t-140 36.5t-142.5 -37.5t-88 -101t-45 -147.5t-13.5 -176z" />
<glyph unicode="&#x42f;" horiz-adv-x="1562" d="M37 12v211l172 25l199 375q-63 25 -106.5 62.5t-70 82.5t-39 95t-12.5 98q0 86 25.5 167.5t84 145t154 102.5t234.5 39h782v-250h-139v-915h141v-250h-661v250h131v305h-178l-199 -399q-23 -45 -44.5 -80t-51 -57.5t-68.5 -35t-94 -12.5q-20 0 -52 2t-68 7.5t-72.5 13.5 t-67.5 18zM592 973q0 -55 18.5 -91t48 -55.5t66.5 -26.5t74 -7h133v372h-150q-82 0 -136 -50t-54 -142z" />
<glyph unicode="&#x430;" horiz-adv-x="1245" d="M63 270q0 53 16.5 101.5t57.5 87.5t110.5 67.5t178.5 40.5l272 25v33q0 68 -33.5 103.5t-125.5 35.5q-72 0 -158 -12.5t-150 -32.5l-57 229q45 18 101.5 33.5t117 27t121.5 16.5t121 5q98 0 177 -18.5t134 -60.5t85 -111.5t30 -169.5v-424h139q4 -53 8 -104.5t9 -104.5 q-66 -31 -150 -46.5t-162 -15.5q-74 0 -127 27t-57 111l-2 2q-47 -49 -97.5 -78t-95.5 -42t-81.5 -16.5t-57.5 -3.5q-98 0 -160.5 30t-99.5 74t-50.5 96t-13.5 95zM459 317q0 -53 23.5 -82.5t80.5 -29.5q33 0 68 15.5t63 41.5v174l-137 -18q-53 -8 -75.5 -37t-22.5 -64z" />
<glyph unicode="&#x431;" horiz-adv-x="1282" d="M82 625q0 104 10 178t29 133q47 152 162 259t303 179q33 12 90 35t118.5 47.5t118 48t86.5 39.5q25 -53 51.5 -104t51.5 -105q-59 -39 -121.5 -67.5t-118.5 -50.5q-90 -35 -170 -70t-143.5 -79t-105.5 -102.5t-56 -144.5q4 0 6 -2q55 78 145.5 121t196.5 43 q125 0 213 -37t143.5 -103.5t81 -157.5t25.5 -198q0 -104 -32.5 -196t-102.5 -161t-175.5 -108.5t-252.5 -39.5q-139 0 -238.5 35.5t-165 98t-99.5 148.5t-44 189q-6 82 -6 172zM471 487q0 -49 7 -95t25.5 -81t51.5 -55t84 -20q49 0 81 20t50 55t25.5 82t7.5 101 q0 51 -7.5 96t-24.5 77.5t-48 51t-80 18.5q-47 0 -80 -21.5t-53.5 -57t-29.5 -81t-9 -90.5z" />
<glyph unicode="&#x432;" horiz-adv-x="1251" d="M61 0v242h115v532h-113v234h734q182 0 269 -73t87 -202q0 -49 -26.5 -106.5t-94.5 -91.5q45 -16 75 -43t46 -60t23.5 -67.5t7.5 -65.5q0 -141 -103.5 -220t-275.5 -79h-744zM545 231h172q45 0 70.5 26t25.5 67q0 39 -23.5 66.5t-72.5 27.5h-172v-187zM545 616h160 q35 0 58 23t23 61q0 37 -20.5 59.5t-67.5 22.5h-153v-166z" />
<glyph unicode="&#x433;" horiz-adv-x="1138" d="M78 0v240h115v534h-113v234h1014v-390h-246v156h-270v-534h147v-240h-647z" />
<glyph unicode="&#x434;" horiz-adv-x="1400" d="M49 236l125 6q45 53 70.5 108.5t38 118.5t14.5 138t2 167h-131v234h1042v-766l127 -6v-560h-286v324h-709v-324h-293v560zM537 242h288v532h-186q0 -190 -17.5 -317t-84.5 -215z" />
<glyph unicode="&#x435;" horiz-adv-x="1171" d="M82 502q0 96 26.5 191t88 171t163.5 123t254 47q147 0 239.5 -45t146 -115.5t73 -160.5t19.5 -178v-84h-625q0 -111 52 -157t171 -46q74 0 153 15.5t152 41.5l74 -225q-106 -57 -227 -80t-226 -23q-164 0 -267 44.5t-162.5 118t-82 167.5t-22.5 195zM473 604h272 q0 37 -6 69t-20 55.5t-39 36.5t-64 13q-76 0 -108.5 -53t-34.5 -121z" />
<glyph unicode="&#x436;" horiz-adv-x="1972" d="M66 16v193l122 22l209 299l-174 242l-104 8l-21 201q43 23 106.5 37t123.5 14q74 0 119 -25.5t79 -84.5l232 -373v-88l-254 -395q-33 -49 -79 -70t-130 -19q-20 0 -49 3.5t-60.5 8.5t-63.5 11t-56 16zM709 774v234h563v-234h-92v-536h92v-238h-557v238h82v536h-88z M1212 461v88l236 373q37 59 81 84.5t118 25.5q59 0 120.5 -14t102.5 -37l-19 -201l-106 -8l-174 -242l213 -299l125 -22v-193q-51 -18 -119 -27t-109 -12q-86 -2 -132 18.5t-79 70.5z" />
<glyph unicode="&#x437;" horiz-adv-x="1056" d="M35 45l63 234q86 -25 151.5 -34t121.5 -9q102 0 156.5 25.5t54.5 78.5q0 51 -38 68.5t-83 17.5h-115v195h96q47 0 83 18t36 59q0 80 -119 80q-20 0 -51 -3t-61 -13v-76h-250v277q98 35 206.5 54t223.5 19t200 -21.5t140 -60.5t81.5 -90t26.5 -110q0 -63 -33.5 -116.5 t-111.5 -94.5v-6q80 -29 123 -94.5t43 -133.5q0 -70 -30.5 -130t-94 -105t-159 -71t-226.5 -26q-137 0 -254 21.5t-180 46.5z" />
<glyph unicode="&#x438;" horiz-adv-x="1499" d="M55 774v232h512v-529h8v-2q29 43 68 102.5t82 118.5q59 86 118.5 168t100.5 142h371q0 -188 1 -375t1 -377h125v-227q-61 -23 -131 -36.5t-129 -13.5q-76 0 -125 18.5t-78 50.5t-40 75t-11 94v299h-13q-27 -41 -58.5 -92t-65.5 -98q-63 -88 -127 -174.5t-109 -149.5h-373 v774h-127z" />
<glyph unicode="&#x439;" horiz-adv-x="1499" d="M55 774v232h512v-529h8v-2q29 43 68 102.5t82 118.5q59 86 118.5 168t100.5 142h371q0 -188 1 -375t1 -377h125v-227q-61 -23 -131 -36.5t-129 -13.5q-76 0 -125 18.5t-78 50.5t-40 75t-11 94v299h-13q-27 -41 -58.5 -92t-65.5 -98q-63 -88 -127 -174.5t-109 -149.5h-373 v774h-127zM328 1393l139 112q72 -98 149.5 -142t131.5 -44q18 0 44.5 2t65.5 17.5t92.5 51t122.5 101.5l101 -98q-51 -84 -107.5 -140.5t-113 -90.5t-111 -48t-103.5 -14q-66 0 -123 22.5t-108 62.5t-96 93t-84 115z" />
<glyph unicode="&#x43a;" horiz-adv-x="1361" d="M59 774v234h512v-768h95v-240h-590v240h106v534h-123zM602 467v90l244 365q37 59 82 84.5t116 25.5q59 0 121 -14t105 -37l-21 -201l-104 -8l-184 -233l215 -308l124 -22v-193q-25 -10 -55.5 -16t-62 -11t-60 -8.5t-49.5 -3.5q-86 -2 -132 18.5t-79 70.5z" />
<glyph unicode="&#x43b;" horiz-adv-x="1349" d="M23 193q76 45 121.5 85.5t70.5 91t32 119t7 168.5v117h-154v234h1074v-768h114v-240h-610v240h106v534h-186v-61q0 -139 -12.5 -260t-58.5 -220.5t-135 -174t-240 -119.5z" />
<glyph unicode="&#x43c;" horiz-adv-x="1732" d="M57 772v236h553l131 -226l123 -219h13l122 230l121 215h533v-236h-113v-518h127v-225q-61 -27 -126.5 -39.5t-125.5 -12.5q-76 0 -124 17.5t-75.5 50.5t-38 78t-10.5 100v277h-10l-78 -148l-110 -198h-195l-100 172l-103 184h-10v-510h-377v772h-127z" />
<glyph unicode="&#x43d;" horiz-adv-x="1433" d="M51 774v234h510v-383h311v383h388v-752h124v-227q-59 -27 -129.5 -40.5t-130.5 -13.5q-143 0 -197.5 57.5t-54.5 170.5v213h-311v-416h-389v774h-121z" />
<glyph unicode="&#x43e;" horiz-adv-x="1286" d="M82 506q0 111 34 207t103.5 166.5t176 111.5t249.5 41t248.5 -41t175.5 -111.5t102.5 -166.5t32.5 -207t-33.5 -207t-103.5 -167t-176.5 -111.5t-251.5 -40.5q-143 0 -248.5 39.5t-174.5 109.5t-101.5 166t-32.5 211zM477 506q0 -55 7.5 -104.5t25.5 -86t50 -57t83 -20.5 q49 0 82 21.5t51.5 57t25.5 85t7 104.5q0 51 -7 98t-24.5 84t-49.5 58.5t-81 21.5q-51 0 -84 -22.5t-52 -59.5t-26.5 -84t-7.5 -96z" />
<glyph unicode="&#x43f;" horiz-adv-x="1419" d="M57 768v238h1301v-238h-127v-514h141v-225q-31 -12 -65.5 -22.5t-71.5 -17.5t-73 -10.5t-64 -3.5q-76 0 -124 16.5t-77 46.5t-40 73t-11 96v561h-289v-768h-381v768h-119z" />
<glyph unicode="&#x440;" horiz-adv-x="1361" d="M51 -193h127v959h-125v242h488v-84l6 -2q35 29 76 49t83 32.5t79.5 18.5t64.5 6q125 0 209 -39t134 -107.5t70.5 -159.5t20.5 -196q0 -121 -23.5 -221t-77 -172t-140.5 -112.5t-212 -40.5q-23 0 -54.5 3t-68 9t-74.5 16t-71 27v-228h133v-241h-645v241zM565 297 q37 -23 82 -35t86 -12q27 0 56.5 9t54 39t40 83t15.5 139q0 80 -14.5 127t-37 71.5t-53 32t-61.5 7.5q-39 0 -86 -16.5t-82 -41.5v-403z" />
<glyph unicode="&#x441;" horiz-adv-x="1083" d="M78 500q0 92 22.5 188t83 173t167 126t276.5 49q88 0 178 -13t168 -42v-342h-250v123q-14 4 -32.5 4h-28.5q-51 0 -87 -19.5t-59.5 -53.5t-34 -81t-10.5 -100q0 -78 15.5 -128t43 -79t65.5 -41t83 -12q63 0 139 12t139 33q16 -55 34 -116.5t34 -119.5q-84 -41 -193.5 -61 t-218.5 -20q-162 0 -265 41.5t-163.5 113.5t-83 166t-22.5 199z" />
<glyph unicode="&#x442;" horiz-adv-x="1251" d="M41 627v381h1169v-381h-245v147h-146v-534h142v-240h-666v240h137v534h-143v-147h-248z" />
<glyph unicode="&#x443;" horiz-adv-x="1333" d="M31 745v263h393q6 -20 24.5 -81t42 -140.5t50 -168t49 -166t39 -134t20.5 -70.5h10q43 129 83 260t83 260h-98v240h565v-240h-92q-94 -248 -189.5 -496.5t-191.5 -496.5q-18 -49 -42.5 -90t-60.5 -71t-88.5 -47.5t-127.5 -17.5q-39 0 -128 9.5t-190 44.5l39 241 q41 -4 78 -9t72 -5q43 0 70.5 8t48 30.5t37 62.5t38.5 106h-182l-250 708h-102z" />
<glyph unicode="&#x444;" horiz-adv-x="1708" d="M82 510q0 115 38 209t112.5 163.5t183 108.5t250.5 43v209h-131v232h507v-441q143 -2 252 -40t182.5 -105.5t111.5 -161.5t38 -209q0 -117 -36 -214t-108.5 -167.5t-182 -110.5t-257.5 -44v-183h138v-233h-643v233h129v183q-174 6 -287 55t-179.5 124t-92 167t-25.5 182z M451 508q0 -279 215 -285v563q-59 -4 -100.5 -27.5t-67 -62.5t-36.5 -87t-11 -101zM1042 223q104 6 159.5 77t55.5 200q0 55 -9 105t-33.5 90t-66.5 63.5t-106 27.5v-563z" />
<glyph unicode="&#x445;" horiz-adv-x="1320" d="M61 0v225h89l266 312l-236 247h-104v226h624v-226h-92l119 -125l117 125h-78v226h487v-226h-67l-291 -288l258 -271h115v-225h-629v225h82l-141 150l-127 -150h77v-225h-469z" />
<glyph unicode="&#x446;" horiz-adv-x="1482" d="M78 0v240h121v534h-119v234h504v-768h305v534h-98v234h591v-234h-106v-532l129 -2v-564h-291v324h-1036z" />
<glyph unicode="&#x447;" horiz-adv-x="1396" d="M43 774v236h514v-293q0 -74 32 -105.5t93 -31.5q74 0 137 28v402h389v-758h123v-227q-88 -33 -157.5 -41.5t-112.5 -8.5q-117 0 -179.5 60.5t-62.5 159.5v165q-66 -27 -138.5 -41t-150.5 -14q-166 0 -263 82t-97 262v125h-127z" />
<glyph unicode="&#x448;" horiz-adv-x="2017" d="M70 772v234h508v-768h223v534h-72v234h531v-234h-78v-534h239v534h-67v234h571v-234h-115v-534h125v-238h-1863v238h118v534h-120z" />
<glyph unicode="&#x449;" horiz-adv-x="2023" d="M70 772v234h508v-768h223v534h-72v234h531v-234h-78v-534h239v534h-67v234h571v-234h-115v-534h127l2 -560h-290v322h-1577v238h118v534h-120z" />
<glyph unicode="&#x44a;" horiz-adv-x="1562" d="M31 598v410h835v-359h254q68 0 137.5 -17.5t126 -55t91 -99t34.5 -149.5q0 -78 -26.5 -138.5t-75.5 -102.5t-116.5 -64.5t-149.5 -22.5h-660v774h-202v-176h-248zM866 227h144q59 0 88.5 30t29.5 77q0 51 -32.5 78.5t-91.5 27.5h-138v-213z" />
<glyph unicode="&#x44b;" horiz-adv-x="1912" d="M55 778v230h512v-361h254q68 0 137.5 -17.5t126 -55t91 -98t34.5 -148.5q0 -78 -26.5 -138.5t-75.5 -102.5t-116.5 -64.5t-147.5 -22.5h-662v778h-127zM567 227h144q59 0 88.5 30t29.5 77q0 51 -32.5 78.5t-91.5 27.5h-138v-213zM1223 770v240h491v-754h141v-227 q-61 -27 -139 -39.5t-137 -12.5q-72 0 -121 15.5t-77.5 46.5t-41 75t-12.5 103v553h-104z" />
<glyph unicode="&#x44c;" horiz-adv-x="1263" d="M55 778v230h512v-361h254q68 0 137.5 -17.5t126 -55t91 -98t34.5 -148.5q0 -78 -26.5 -138.5t-75.5 -102.5t-116.5 -64.5t-147.5 -22.5h-662v778h-127zM567 227h144q59 0 88.5 30t29.5 77q0 51 -32.5 78.5t-91.5 27.5h-138v-213z" />
<glyph unicode="&#x44d;" horiz-adv-x="1081" d="M53 53l62 230q53 -16 123.5 -28.5t136.5 -12.5q94 0 154.5 47t64.5 139l-256 -8v186l258 -4q-4 82 -41 131t-123 49q-35 0 -82 -10v-92h-244l-6 295q82 29 177.5 43t181.5 14q166 0 270.5 -45t162.5 -118.5t79.5 -167t21.5 -191.5q0 -102 -24.5 -197.5t-88 -171 t-170 -121t-272.5 -45.5q-102 0 -203.5 19.5t-181.5 58.5z" />
<glyph unicode="&#x44e;" horiz-adv-x="1857" d="M57 770v240h510v-394h138q14 90 53 167t105.5 132.5t159.5 87t214 31.5q137 0 239.5 -41t168 -111.5t98.5 -167t33 -206.5q0 -113 -33 -209t-99.5 -167t-169 -111.5t-243.5 -40.5q-127 0 -221.5 32.5t-160 92t-102 141.5t-47.5 180h-133v-426h-387v770h-123zM1079 506 q0 -55 6.5 -104.5t23.5 -86t48 -57t80 -20.5q45 0 75.5 21.5t47 58t24 86t7.5 104.5q0 51 -6.5 98t-24 84t-47 58.5t-76.5 21.5q-45 0 -76 -22.5t-49 -59.5t-25.5 -85t-7.5 -97z" />
<glyph unicode="&#x44f;" horiz-adv-x="1312" d="M43 10v209l150 21q6 12 22 36.5t35.5 52t36 52.5t22.5 37q-82 23 -132 92.5t-50 171.5q0 82 29.5 143.5t79 102.5t115 60.5t136.5 19.5l740 2v-236h-109v-514h125v-227q-59 -27 -130 -40t-130 -13q-141 0 -195.5 57t-56.5 170v160h-102l-135 -238q-41 -72 -91.5 -112 t-146.5 -40q-39 0 -97.5 7.5t-115.5 25.5zM504 672q0 -51 35.5 -74t87.5 -23h104v205h-110q-59 0 -88 -29.5t-29 -78.5z" />
<glyph unicode="&#x451;" horiz-adv-x="1171" d="M82 502q0 96 26.5 191t88 171t163.5 123t254 47q147 0 239.5 -45t146 -115.5t73 -160.5t19.5 -178v-84h-625q0 -111 52 -157t171 -46q74 0 153 15.5t152 41.5l74 -225q-106 -57 -227 -80t-226 -23q-164 0 -267 44.5t-162.5 118t-82 167.5t-22.5 195zM258 1266 q0 59 41 100t98 41q61 0 102.5 -40t41.5 -101q0 -59 -41 -100.5t-101 -41.5q-59 0 -100 41t-41 101zM473 604h272q0 37 -6 69t-20 55.5t-39 36.5t-64 13q-76 0 -108.5 -53t-34.5 -121zM690 1266q0 59 41 100t100 41q61 0 102.5 -40t41.5 -101q0 -59 -41 -100.5t-103 -41.5 q-59 0 -100 41t-41 101z" />
<glyph unicode="&#x452;" horiz-adv-x="1353" d="M31 1237v238h538v-332h320v-133h-320v-160q72 39 145.5 57.5t137.5 18.5q119 0 202 -34t134 -99.5t73.5 -159.5t22.5 -217q0 -102 -23.5 -196.5t-83 -166t-159.5 -114.5t-256 -43h-23.5t-23.5 2v258q49 6 85 17t59.5 39t34.5 76t11 126t-14 126t-38 74.5t-53.5 35.5 t-58.5 9q-39 0 -84 -14t-86 -37l-2 -608h-389v1010h-100v133h100v94h-149z" />
<glyph unicode="&#x453;" horiz-adv-x="1138" d="M78 0v240h115v534h-113v234h1014v-390h-246v156h-270v-534h147v-240h-647zM330 1276l346 360l178 -202l-410 -287z" />
<glyph unicode="&#x454;" horiz-adv-x="1083" d="M82 496q0 94 22.5 190t84 173t169 125t277.5 48q86 0 174 -13t166 -40q0 -74 -1 -147.5t-1 -149.5h-246v86q-31 6 -55 6q-84 0 -135.5 -44t-61.5 -134l262 6v-184l-258 4q8 -92 63.5 -137t149.5 -45q66 0 139.5 14t126.5 31l62 -228q-82 -41 -188.5 -59t-213.5 -18 q-164 0 -267 43t-163.5 113.5t-83 163.5t-22.5 196z" />
<glyph unicode="&#x455;" horiz-adv-x="1130" d="M72 342h254v-52.5t2 -51.5q25 -12 76 -20.5t98 -8.5q59 0 103 19.5t44 54.5q0 51 -34.5 65t-94.5 31q-84 25 -164 49.5t-142 60t-101 88t-39 130.5q0 160 125 242.5t362 82.5q100 0 212 -19.5t198 -60.5v-135t2 -135h-256q0 25 -1 49.5t-1 48.5q-29 10 -59.5 14.5 t-59.5 4.5q-55 0 -89 -20.5t-34 -55.5t41 -52.5t88 -29.5q61 -16 140 -33.5t147.5 -54.5t117 -100.5t48.5 -169.5q0 -147 -128 -225t-397 -78q-43 0 -99 3t-117.5 12t-123 23.5t-116.5 38.5v141.5t-2 143.5z" />
<glyph unicode="&#x456;" horiz-adv-x="798" d="M92 766v244h488v-754h141v-227q-59 -27 -137 -40.5t-138 -13.5q-143 0 -197 57.5t-56 170.5v563h-101zM158 1337q0 45 17.5 86t47 71t69.5 47.5t87 17.5q45 0 85 -17.5t70.5 -47.5t48 -71t17.5 -86t-17.5 -85t-48 -70.5t-70.5 -48t-85 -17.5q-47 0 -87 17.5t-69.5 48 t-47 70.5t-17.5 85z" />
<glyph unicode="&#x457;" horiz-adv-x="798" d="M4 1251q0 59 41 100.5t98 41.5q61 0 102.5 -40.5t41.5 -101.5q0 -59 -41 -100t-101 -41q-59 0 -100 41t-41 100zM88 770v240h492v-754h141v-227q-59 -27 -137 -40.5t-138 -13.5q-143 0 -197 57.5t-54 170.5v567h-107zM436 1251q0 59 41 100.5t101 41.5q61 0 102 -40.5 t41 -101.5q0 -59 -41 -100t-102 -41q-59 0 -100.5 41t-41.5 100z" />
<glyph unicode="&#x458;" horiz-adv-x="757" d="M-57 -254q86 49 136 90t76.5 86t34 103.5t7.5 142.5v598h-111v244h500v-838q0 -147 -31 -257t-97.5 -187.5t-171 -130t-249.5 -82.5zM164 1337q0 45 17.5 86t47 71t69.5 47.5t87 17.5q45 0 85 -17.5t70.5 -47.5t48 -71t17.5 -86t-17.5 -85t-48 -70.5t-70.5 -48t-85 -17.5 q-47 0 -87 17.5t-69.5 48t-47 70.5t-17.5 85z" />
<glyph unicode="&#x459;" horiz-adv-x="1835" d="M25 184q76 45 122 87t70.5 94.5t31.5 122t7 169.5v119h-154v232h1037v-359h254q68 0 137 -17.5t124.5 -55t91.5 -99t36 -149.5q0 -78 -26.5 -138.5t-76 -102.5t-117 -64.5t-149.5 -22.5h-659v776h-154v-63q0 -139 -12.5 -260t-58.5 -220.5t-135 -174t-240 -119.5z M1139 227h143q59 0 89 30t30 77q0 51 -33 78.5t-92 27.5h-137v-213z" />
<glyph unicode="&#x45a;" horiz-adv-x="1921" d="M57 774v234h508v-402h275v172h-109v230h494v-375h254q68 0 137.5 -14.5t125.5 -50.5t91 -94t35 -146q0 -78 -26.5 -138.5t-75 -102.5t-116 -64.5t-149.5 -22.5h-661v414h-275v-414h-389v774h-119zM1225 227h153q109 0 109 101q0 51 -31 73.5t-84 22.5h-147v-197z" />
<glyph unicode="&#x45b;" horiz-adv-x="1411" d="M41 1257v218h514v-312h336v-131h-336v-215q78 57 162 86t162 29q96 0 162.5 -25.5t108.5 -73t60.5 -114t18.5 -148.5v-315h125v-227q-61 -27 -131 -40.5t-129 -13.5q-143 0 -197.5 57.5t-54.5 170.5v286q0 78 -28 116t-97 38q-35 0 -81 -17.5t-81 -43.5v-582h-389v1032 h-103v131h103v94h-125z" />
<glyph unicode="&#x45c;" horiz-adv-x="1361" d="M59 774v234h512v-768h95v-240h-590v240h106v534h-123zM535 1214l346 361l178 -203l-410 -287zM602 467v90l244 365q37 59 82 84.5t116 25.5q59 0 121 -14t105 -37l-21 -201l-104 -8l-184 -233l215 -308l124 -22v-193q-25 -10 -55.5 -16t-62 -11t-60 -8.5t-49.5 -3.5 q-86 -2 -132 18.5t-79 70.5z" />
<glyph unicode="&#x45e;" horiz-adv-x="1333" d="M37 745v265h387l225 -760h8q2 10 15.5 49t30 92t36 113.5t37 115t30.5 94.5t17 52h-96v244h563v-244h-92l-381 -1010q-18 -47 -42.5 -85t-59.5 -65.5t-84 -43t-117 -15.5q-14 0 -49 2t-81 8.5t-98.5 16.5t-101.5 29l45 256q10 -2 31 -5.5t43.5 -6.5t42 -5t27.5 -2 q72 -2 101.5 17.5t51.5 74.5l41 107h-180q-10 31 -29.5 87t-44 123.5t-50 141.5t-50.5 142.5t-45.5 124t-30.5 87.5h-100zM238 1417l139 113q72 -98 149.5 -142.5t130.5 -44.5q18 0 45 2.5t66 17.5t92 51t123 102l100 -99q-51 -84 -107 -140t-112.5 -90t-111 -48.5 t-103.5 -14.5q-66 0 -123 22.5t-108 62.5t-96.5 93.5t-83.5 114.5z" />
<glyph unicode="&#x45f;" horiz-adv-x="1482" d="M78 0v240h121v532h-119v236h504v-768h305v532h-98v236h591v-236h-106v-530h23.5t41 -1t41 -1h23.5v-240h-518v-348h-293v348h-516z" />
<glyph unicode="&#x490;" horiz-adv-x="1394" d="M90 0v250h150v915h-148v248h1004v270h270v-518h-731v-915h188v-250h-733z" />
<glyph unicode="&#x491;" horiz-adv-x="1128" d="M78 0v240h115v534h-113v234h751v247h250v-481h-503v-534h145v-240h-645z" />
<glyph unicode="&#x4d9;" horiz-adv-x="1171" d="M84 479v70h627q0 111 -52.5 164t-171.5 53q-72 0 -151.5 -16.5t-153.5 -40.5l-73 223q106 59 227 80.5t225 21.5q164 0 267.5 -44t163 -115.5t82 -167t22.5 -195.5q0 -96 -27 -191.5t-88 -171t-163.5 -122.5t-254.5 -47q-147 0 -240.5 46t-146.5 118.5t-72.5 161.5 t-19.5 173zM430 424q0 -86 26.5 -138.5t104.5 -52.5q76 0 107.5 56.5t36.5 134.5h-275z" />
<glyph unicode="&#x2000;" horiz-adv-x="1007" />
<glyph unicode="&#x2001;" horiz-adv-x="2015" />
<glyph unicode="&#x2002;" horiz-adv-x="1007" />
<glyph unicode="&#x2003;" horiz-adv-x="2015" />
<glyph unicode="&#x2004;" horiz-adv-x="671" />
<glyph unicode="&#x2005;" horiz-adv-x="503" />
<glyph unicode="&#x2006;" horiz-adv-x="335" />
<glyph unicode="&#x2007;" horiz-adv-x="335" />
<glyph unicode="&#x2008;" horiz-adv-x="251" />
<glyph unicode="&#x2009;" horiz-adv-x="403" />
<glyph unicode="&#x200a;" horiz-adv-x="111" />
<glyph unicode="&#x2010;" horiz-adv-x="849" d="M131 430v256h588v-256h-588z" />
<glyph unicode="&#x2011;" horiz-adv-x="849" d="M131 430v256h588v-256h-588z" />
<glyph unicode="&#x2012;" horiz-adv-x="849" d="M131 430v256h588v-256h-588z" />
<glyph unicode="&#x2013;" horiz-adv-x="1024" d="M96 418v221h834v-221h-834z" />
<glyph unicode="&#x2014;" horiz-adv-x="2048" d="M129 418v221h1788v-221h-1788z" />
<glyph unicode="&#x2018;" horiz-adv-x="593" d="M102 1071q0 68 26 134.5t69 126t98 106.5t113 75l92 -122q-57 -47 -89 -92.5t-42 -110.5q66 -10 95.5 -52t29.5 -108q0 -35 -14.5 -67.5t-40 -57t-61.5 -39t-79 -14.5q-53 0 -90 19.5t-60.5 50t-35 70.5t-11.5 81z" />
<glyph unicode="&#x2019;" horiz-adv-x="593" d="M104 973q57 47 89 92t43 111q-66 10 -96.5 53t-30.5 106q0 37 14 70t39.5 57.5t62.5 39t80 14.5q53 0 90 -19.5t60.5 -51.5t34 -72t10.5 -81q0 -68 -25.5 -134t-67.5 -124.5t-97.5 -105.5t-112.5 -76z" />
<glyph unicode="&#x201a;" horiz-adv-x="624" d="M106 -209q61 53 93 106.5t43 118.5q-72 8 -102.5 52t-30.5 110q0 37 14 70t40.5 57.5t63.5 38.5t82 14q53 0 91 -19.5t62.5 -51t36 -71.5t11.5 -83q0 -68 -23.5 -136.5t-64.5 -130t-97.5 -113.5t-121.5 -87z" />
<glyph unicode="&#x201c;" horiz-adv-x="997" d="M90 1071q0 68 25.5 134.5t68.5 125t97.5 106.5t113.5 76q23 -31 45.5 -61.5t46.5 -60.5q-57 -47 -89.5 -92.5t-41.5 -110.5q66 -10 95.5 -52t29.5 -108q0 -72 -54 -125t-142 -53q-53 0 -90 19.5t-59.5 50t-34 70.5t-11.5 81zM518 1071q0 68 25.5 134.5t68.5 126 t97.5 106.5t111.5 75q25 -31 47.5 -61.5t46.5 -60.5q-55 -47 -88.5 -92.5t-42.5 -110.5q66 -10 95.5 -52t29.5 -108q0 -35 -14 -67.5t-40 -57t-61.5 -39t-78.5 -14.5q-53 0 -90 19.5t-60.5 50t-35 70.5t-11.5 81z" />
<glyph unicode="&#x201d;" horiz-adv-x="997" d="M92 973q59 47 91 92t40 111q-66 10 -95.5 53t-29.5 106q0 37 14.5 70t40 57.5t62.5 39t82 14.5q51 0 89 -19.5t60.5 -51.5t34 -72t11.5 -81q0 -68 -26 -134t-69 -124.5t-98 -105.5t-113 -76zM522 973q57 47 90 92t41 111q-66 10 -95.5 53t-29.5 106q0 37 14.5 70t40 57.5 t62.5 39t80 14.5q51 0 89 -19.5t60.5 -51.5t34 -72t11.5 -81q0 -68 -26 -134t-68 -124.5t-97 -105.5t-113 -76z" />
<glyph unicode="&#x201e;" horiz-adv-x="1085" d="M106 -209q61 53 93 106.5t43 118.5q-72 8 -102.5 52t-30.5 110q0 37 14 70t40.5 57.5t63.5 38.5t82 14q53 0 91 -19.5t62.5 -51t36 -71.5t11.5 -83q0 -68 -23.5 -136.5t-64.5 -130t-97.5 -113.5t-121.5 -87zM571 -209q61 53 94 106.5t42 118.5q-70 8 -101 52t-31 110 q0 37 14.5 70t40 57.5t62.5 38.5t82 14q55 0 93 -19.5t62.5 -51t36 -71.5t11.5 -83q0 -68 -23.5 -136.5t-65.5 -130t-98.5 -113.5t-121.5 -87z" />
<glyph unicode="&#x2026;" horiz-adv-x="1753" d="M113 176q0 39 15 73t42 60.5t61.5 42t75.5 15.5q39 0 74 -15.5t60.5 -42t41 -60.5t15.5 -73q0 -41 -15.5 -75.5t-42 -61.5t-60.5 -41t-73 -14q-41 0 -75.5 14t-61.5 41t-42 61.5t-15 75.5zM680 176q0 39 15.5 73t41 60.5t60 42t75.5 15.5q39 0 74 -15.5t61.5 -42 t42 -60.5t15.5 -73q0 -41 -15.5 -75.5t-42 -61.5t-61.5 -41t-74 -14t-73.5 14t-61 41t-42 61.5t-15.5 75.5zM1253 176q0 39 15.5 73t42 60.5t61.5 42t74 15.5t74.5 -15.5t61.5 -42t41 -60.5t15 -73q0 -41 -15 -75.5t-42 -61.5t-60.5 -41t-72.5 -14t-75 14t-62.5 41t-42 61.5 t-15.5 75.5z" />
<glyph unicode="&#x202f;" horiz-adv-x="403" />
<glyph unicode="&#x2039;" horiz-adv-x="763" d="M100 379v78l373 399l156 -104l-217 -334l213 -326l-158 -115z" />
<glyph unicode="&#x203a;" horiz-adv-x="763" d="M102 752l156 104l373 -399v-78l-365 -402l-160 115l213 326z" />
<glyph unicode="&#x205f;" horiz-adv-x="503" />
<glyph unicode="&#x20ac;" d="M53 526v117h891v-117h-399q49 -252 309 -252q20 0 45 2.5t53 6.5v116h250v-366q-84 -25 -196.5 -40.5t-208.5 -15.5q-164 0 -280 43t-191.5 118t-115.5 175.5t-52 212.5h-105zM53 725v125h105q14 106 54 205.5t118 175.5t197.5 121t293.5 45q100 0 188.5 -15.5 t170.5 -40.5v-360h-252v121q-47 12 -101 12q-133 0 -200.5 -69.5t-87.5 -194.5h405v-125h-891z" />
<glyph unicode="&#x2122;" horiz-adv-x="1918" d="M57 1145v268h725v-268h-149v127h-105v-459h90v-139h-399v139h90v459h-102v-127h-150zM819 674v139h82v461h-82v139h355l77 -166q6 -12 18.5 -40.5t28 -61.5t27.5 -61.5t18 -39.5h3q6 10 18 40t26.5 63t27 62.5t18.5 39.5l71 164h357v-139h-72v-461h72v-139h-348v139h63 v320h-4l-80 -179q-4 -6 -12 -25.5t-18.5 -43t-18.5 -44t-10 -26.5h-179q-4 6 -13 27.5t-20.5 45t-21.5 44t-12 26.5q-6 10 -17.5 35t-23.5 51.5t-23.5 51t-15.5 34.5h-2v-317h70v-139h-359z" />
<glyph unicode="&#x25fc;" horiz-adv-x="1013" d="M0 0v1014h1014v-1014h-1014z" />
</font>
</defs>
</svg>
